G04 #@! TF.GenerationSoftware,KiCad,Pcbnew,5.1.5+dfsg1-2build2*
G04 #@! TF.CreationDate,2021-03-04T20:11:05+00:00*
G04 #@! TF.ProjectId,PicoMMC,5069636f-4d4d-4432-9e6b-696361645f70,rev?*
G04 #@! TF.SameCoordinates,Original*
G04 #@! TF.FileFunction,Copper,L1,Top*
G04 #@! TF.FilePolarity,Positive*
%FSLAX46Y46*%
G04 Gerber Fmt 4.6, Leading zero omitted, Abs format (unit mm)*
G04 Created by KiCad (PCBNEW 5.1.5+dfsg1-2build2) date 2021-03-04 20:11:05*
%MOMM*%
%LPD*%
G04 APERTURE LIST*
%ADD10R,1.700000X1.700000*%
%ADD11O,1.700000X1.700000*%
%ADD12O,1.500000X1.050000*%
%ADD13R,1.500000X1.050000*%
%ADD14C,1.600000*%
%ADD15O,1.600000X1.600000*%
%ADD16R,1.600000X1.600000*%
%ADD17R,3.500000X1.700000*%
%ADD18R,1.700000X3.500000*%
%ADD19C,0.800000*%
%ADD20C,0.250000*%
%ADD21C,0.254000*%
G04 APERTURE END LIST*
D10*
X157480000Y-126365000D03*
D11*
X154940000Y-126365000D03*
X152400000Y-126365000D03*
X149860000Y-126365000D03*
X147320000Y-126365000D03*
X144780000Y-126365000D03*
X142240000Y-126365000D03*
X139700000Y-126365000D03*
X137160000Y-126365000D03*
D12*
X114935000Y-100965000D03*
X114935000Y-99695000D03*
D13*
X114935000Y-102235000D03*
D10*
X113665000Y-93345000D03*
D11*
X116205000Y-93345000D03*
X113665000Y-90805000D03*
X116205000Y-90805000D03*
X113665000Y-88265000D03*
X116205000Y-88265000D03*
X113665000Y-85725000D03*
X116205000Y-85725000D03*
X113665000Y-83185000D03*
X116205000Y-83185000D03*
X113665000Y-80645000D03*
X116205000Y-80645000D03*
X113665000Y-78105000D03*
X116205000Y-78105000D03*
X113665000Y-75565000D03*
X116205000Y-75565000D03*
X113665000Y-73025000D03*
X116205000Y-73025000D03*
X113665000Y-70485000D03*
X116205000Y-70485000D03*
D14*
X121920000Y-135890000D03*
D15*
X129420000Y-135890000D03*
D14*
X121920000Y-99695000D03*
D15*
X129420000Y-99695000D03*
D16*
X129540000Y-94615000D03*
D14*
X129540000Y-92075000D03*
X129540000Y-89535000D03*
X129540000Y-86995000D03*
X129540000Y-84455000D03*
X129540000Y-81915000D03*
X129540000Y-79375000D03*
X121920000Y-79375000D03*
X121920000Y-81915000D03*
X121920000Y-84455000D03*
X121920000Y-86995000D03*
X121920000Y-89535000D03*
X121920000Y-92075000D03*
X121920000Y-94615000D03*
X129540000Y-76835000D03*
X121920000Y-76835000D03*
X129540000Y-74295000D03*
X121920000Y-74295000D03*
X129540000Y-71755000D03*
X121920000Y-71755000D03*
D11*
X138430000Y-71120000D03*
X138430000Y-73660000D03*
D10*
X138430000Y-76200000D03*
D11*
X138430000Y-78740000D03*
X138430000Y-81280000D03*
X138430000Y-83820000D03*
X138430000Y-86360000D03*
D10*
X138430000Y-88900000D03*
D11*
X138430000Y-91440000D03*
X138430000Y-93980000D03*
X138430000Y-96520000D03*
X138430000Y-99060000D03*
D10*
X138430000Y-101600000D03*
D11*
X138430000Y-104140000D03*
X138430000Y-106680000D03*
X138430000Y-109220000D03*
X138430000Y-111760000D03*
D10*
X138430000Y-114300000D03*
D11*
X138430000Y-116840000D03*
X138430000Y-119380000D03*
X156210000Y-119380000D03*
X156210000Y-116840000D03*
D10*
X156210000Y-114300000D03*
D11*
X156210000Y-111760000D03*
X156210000Y-109220000D03*
X156210000Y-106680000D03*
X156210000Y-104140000D03*
D10*
X156210000Y-101600000D03*
D11*
X156210000Y-99060000D03*
X156210000Y-96520000D03*
X156210000Y-93980000D03*
X156210000Y-91440000D03*
D10*
X156210000Y-88900000D03*
D11*
X156210000Y-86360000D03*
X156210000Y-83820000D03*
X156210000Y-81280000D03*
X156210000Y-78740000D03*
D10*
X156210000Y-76200000D03*
D11*
X156210000Y-73660000D03*
X156210000Y-71120000D03*
D17*
X137530000Y-71120000D03*
X137530000Y-73660000D03*
X137530000Y-76200000D03*
X137530000Y-78740000D03*
X137530000Y-81280000D03*
X137530000Y-83820000D03*
X137530000Y-86360000D03*
X137530000Y-88900000D03*
X137530000Y-91440000D03*
X137530000Y-93980000D03*
X137530000Y-96520000D03*
X137530000Y-99060000D03*
X137530000Y-101600000D03*
X137530000Y-104140000D03*
X137530000Y-106680000D03*
X137530000Y-109220000D03*
X137530000Y-111760000D03*
X137530000Y-114300000D03*
X137530000Y-116840000D03*
X137530000Y-119380000D03*
X157110000Y-71120000D03*
X157110000Y-73660000D03*
X157110000Y-76200000D03*
X157110000Y-78740000D03*
X157110000Y-81280000D03*
X157110000Y-83820000D03*
X157110000Y-86360000D03*
X157110000Y-88900000D03*
X157110000Y-91440000D03*
X157110000Y-93980000D03*
X157110000Y-96520000D03*
X157110000Y-99060000D03*
X157110000Y-101600000D03*
X157110000Y-104140000D03*
X157110000Y-106680000D03*
X157110000Y-109220000D03*
X157110000Y-111760000D03*
X157110000Y-114300000D03*
X157110000Y-116840000D03*
X157110000Y-119380000D03*
D18*
X144780000Y-120050000D03*
D11*
X144780000Y-119150000D03*
D18*
X147320000Y-120050000D03*
D10*
X147320000Y-119150000D03*
D18*
X149860000Y-120050000D03*
D11*
X149860000Y-119150000D03*
D16*
X129540000Y-130810000D03*
D14*
X129540000Y-128270000D03*
X129540000Y-125730000D03*
X129540000Y-123190000D03*
X129540000Y-120650000D03*
X129540000Y-118110000D03*
X129540000Y-115570000D03*
X121920000Y-115570000D03*
X121920000Y-118110000D03*
X121920000Y-120650000D03*
X121920000Y-123190000D03*
X121920000Y-125730000D03*
X121920000Y-128270000D03*
X121920000Y-130810000D03*
X129540000Y-113030000D03*
X121920000Y-113030000D03*
X129540000Y-110490000D03*
X121920000Y-110490000D03*
X129540000Y-107950000D03*
X121920000Y-107950000D03*
D19*
X114467000Y-89535000D03*
X119871400Y-82564500D03*
X118236400Y-82104200D03*
X121076500Y-75693600D03*
X119477600Y-88829700D03*
X117380300Y-104293400D03*
X133422900Y-83811000D03*
X131777500Y-82023800D03*
D20*
X129420000Y-135890000D02*
X129420000Y-134764700D01*
X129420000Y-134764700D02*
X130665400Y-133519300D01*
X130665400Y-133519300D02*
X130665400Y-122717800D01*
X130665400Y-122717800D02*
X129867600Y-121920000D01*
X129867600Y-121920000D02*
X129138200Y-121920000D01*
X129138200Y-121920000D02*
X128408900Y-121190700D01*
X128408900Y-121190700D02*
X128408900Y-109081100D01*
X128408900Y-109081100D02*
X129540000Y-107950000D01*
X129540000Y-71755000D02*
X133985000Y-76200000D01*
X133985000Y-76200000D02*
X138430000Y-76200000D01*
X121920000Y-92075000D02*
X124460000Y-94615000D01*
X124460000Y-94615000D02*
X129540000Y-94615000D01*
X138430000Y-114300000D02*
X139605300Y-114300000D01*
X139605300Y-114300000D02*
X139605300Y-101600000D01*
X129540000Y-94615000D02*
X129540000Y-95740300D01*
X129540000Y-95740300D02*
X129420000Y-95860300D01*
X129420000Y-95860300D02*
X129420000Y-99695000D01*
X138430000Y-76200000D02*
X139605300Y-76200000D01*
X139605300Y-88900000D02*
X139605300Y-76200000D01*
X139492700Y-88900000D02*
X139605300Y-88900000D01*
X138430000Y-88900000D02*
X139492700Y-88900000D01*
X138430000Y-101600000D02*
X139605300Y-101600000D01*
X139605300Y-101600000D02*
X139605300Y-88900000D01*
X156210000Y-76200000D02*
X155034700Y-76200000D01*
X155034700Y-76200000D02*
X155034700Y-88900000D01*
X156210000Y-101600000D02*
X155034700Y-101600000D01*
X156210000Y-88900000D02*
X155034700Y-88900000D01*
X155034700Y-88900000D02*
X155034700Y-101600000D01*
X156210000Y-114300000D02*
X155034700Y-114300000D01*
X154940000Y-126365000D02*
X154940000Y-114394700D01*
X154940000Y-114394700D02*
X155034700Y-114300000D01*
X156210000Y-109220000D02*
X155034700Y-109220000D01*
X149860000Y-126365000D02*
X148684700Y-126365000D01*
X148684700Y-126365000D02*
X148684700Y-126732300D01*
X148684700Y-126732300D02*
X147870300Y-127546700D01*
X147870300Y-127546700D02*
X146793000Y-127546700D01*
X146793000Y-127546700D02*
X146144600Y-126898300D01*
X146144600Y-126898300D02*
X146144600Y-118110100D01*
X146144600Y-118110100D02*
X155034700Y-109220000D01*
X156210000Y-91440000D02*
X159185300Y-91440000D01*
X152400000Y-126365000D02*
X152400000Y-125189700D01*
X152400000Y-125189700D02*
X153575300Y-124014400D01*
X153575300Y-124014400D02*
X153575300Y-114755900D01*
X153575300Y-114755900D02*
X155206600Y-113124600D01*
X155206600Y-113124600D02*
X158812400Y-113124600D01*
X158812400Y-113124600D02*
X159185300Y-112751700D01*
X159185300Y-112751700D02*
X159185300Y-91440000D01*
X156210000Y-81280000D02*
X159185300Y-81280000D01*
X157480000Y-126365000D02*
X157480000Y-125189700D01*
X157480000Y-125189700D02*
X159665900Y-123003800D01*
X159665900Y-123003800D02*
X159665900Y-81760600D01*
X159665900Y-81760600D02*
X159185300Y-81280000D01*
X121920000Y-130810000D02*
X124434500Y-128295500D01*
X124434500Y-128295500D02*
X124434500Y-102209500D01*
X124434500Y-102209500D02*
X121920000Y-99695000D01*
X121920000Y-135890000D02*
X121920000Y-130810000D01*
X121920000Y-99695000D02*
X121920000Y-94615000D01*
X156210000Y-111760000D02*
X155034700Y-111760000D01*
X147320000Y-126365000D02*
X147320000Y-125189700D01*
X147320000Y-125189700D02*
X147834200Y-125189700D01*
X147834200Y-125189700D02*
X153106000Y-119917900D01*
X153106000Y-119917900D02*
X153106000Y-113688700D01*
X153106000Y-113688700D02*
X155034700Y-111760000D01*
X142240000Y-126365000D02*
X142240000Y-119474700D01*
X142240000Y-119474700D02*
X155034700Y-106680000D01*
X156210000Y-106680000D02*
X155034700Y-106680000D01*
X156210000Y-104140000D02*
X155034700Y-104140000D01*
X139700000Y-126365000D02*
X139700000Y-119474700D01*
X139700000Y-119474700D02*
X155034700Y-104140000D01*
X116205000Y-70485000D02*
X117380300Y-70485000D01*
X117380300Y-70485000D02*
X119920300Y-73025000D01*
X119920300Y-73025000D02*
X122274000Y-73025000D01*
X122274000Y-73025000D02*
X123563400Y-74314400D01*
X123563400Y-74314400D02*
X123563400Y-86978600D01*
X123563400Y-86978600D02*
X122370500Y-88171500D01*
X122370500Y-88171500D02*
X121435400Y-88171500D01*
X121435400Y-88171500D02*
X120781000Y-87517100D01*
X120781000Y-87517100D02*
X120781000Y-83780000D01*
X120781000Y-83780000D02*
X121920000Y-82641000D01*
X121920000Y-82641000D02*
X121920000Y-81915000D01*
X114467000Y-89535000D02*
X113249900Y-89535000D01*
X113249900Y-89535000D02*
X111998800Y-88283900D01*
X111998800Y-88283900D02*
X111998800Y-72961200D01*
X111998800Y-72961200D02*
X113299700Y-71660300D01*
X113299700Y-71660300D02*
X113665000Y-71660300D01*
X113665000Y-70485000D02*
X113665000Y-71660300D01*
X120781000Y-77601000D02*
X120781000Y-82917800D01*
X120781000Y-82917800D02*
X120330700Y-83368100D01*
X120330700Y-83368100D02*
X120330700Y-92083700D01*
X120330700Y-92083700D02*
X121592000Y-93345000D01*
X121592000Y-93345000D02*
X122312800Y-93345000D01*
X122312800Y-93345000D02*
X125730000Y-96762200D01*
X125730000Y-96762200D02*
X125730000Y-126156000D01*
X125730000Y-126156000D02*
X129258700Y-129684700D01*
X129258700Y-129684700D02*
X129540000Y-129684700D01*
X116205000Y-73025000D02*
X117380300Y-73025000D01*
X117380300Y-73025000D02*
X117380300Y-74200300D01*
X117380300Y-74200300D02*
X120781000Y-77601000D01*
X121920000Y-76835000D02*
X121154000Y-77601000D01*
X121154000Y-77601000D02*
X120781000Y-77601000D01*
X129540000Y-130810000D02*
X129540000Y-129684700D01*
X116205000Y-75565000D02*
X119871400Y-79231400D01*
X119871400Y-79231400D02*
X119871400Y-82564500D01*
X116205000Y-78105000D02*
X116205000Y-79280300D01*
X116205000Y-79280300D02*
X116572300Y-79280300D01*
X116572300Y-79280300D02*
X118236400Y-80944400D01*
X118236400Y-80944400D02*
X118236400Y-82104200D01*
X113665000Y-79280300D02*
X114032400Y-79280300D01*
X114032400Y-79280300D02*
X114840300Y-80088200D01*
X114840300Y-80088200D02*
X114840300Y-80981300D01*
X114840300Y-80981300D02*
X115774000Y-81915000D01*
X115774000Y-81915000D02*
X116608700Y-81915000D01*
X116608700Y-81915000D02*
X118302000Y-83608300D01*
X118302000Y-83608300D02*
X118302000Y-104332000D01*
X118302000Y-104332000D02*
X121920000Y-107950000D01*
X113665000Y-78105000D02*
X113665000Y-79280300D01*
X121076500Y-75693600D02*
X122370400Y-75693600D01*
X122370400Y-75693600D02*
X123093500Y-76416700D01*
X123093500Y-76416700D02*
X123093500Y-85821500D01*
X123093500Y-85821500D02*
X121920000Y-86995000D01*
X121920000Y-125730000D02*
X123981000Y-123669000D01*
X123981000Y-123669000D02*
X123981000Y-106522700D01*
X123981000Y-106522700D02*
X119477600Y-102019300D01*
X119477600Y-102019300D02*
X119477600Y-88829700D01*
X113665000Y-84549700D02*
X113297700Y-84549700D01*
X113297700Y-84549700D02*
X112463700Y-83715700D01*
X112463700Y-83715700D02*
X112463700Y-77585900D01*
X112463700Y-77585900D02*
X113123000Y-76926600D01*
X113123000Y-76926600D02*
X116739000Y-76926600D01*
X116739000Y-76926600D02*
X118961700Y-79149300D01*
X118961700Y-79149300D02*
X118961700Y-82404700D01*
X118961700Y-82404700D02*
X118752300Y-82614100D01*
X118752300Y-82614100D02*
X118752300Y-102335500D01*
X118752300Y-102335500D02*
X123530700Y-107113900D01*
X123530700Y-107113900D02*
X123530700Y-116499300D01*
X123530700Y-116499300D02*
X121920000Y-118110000D01*
X113665000Y-85725000D02*
X113665000Y-84549700D01*
X116205000Y-89440300D02*
X116572400Y-89440300D01*
X116572400Y-89440300D02*
X117380300Y-90248200D01*
X117380300Y-90248200D02*
X117380300Y-104293400D01*
X116205000Y-88265000D02*
X116205000Y-89440300D01*
X116205000Y-90805000D02*
X115029700Y-90805000D01*
X115029700Y-90805000D02*
X115029700Y-91172400D01*
X115029700Y-91172400D02*
X114221800Y-91980300D01*
X114221800Y-91980300D02*
X112811700Y-91980300D01*
X112811700Y-91980300D02*
X112484100Y-92307900D01*
X112484100Y-92307900D02*
X112484100Y-118834100D01*
X112484100Y-118834100D02*
X121920000Y-128270000D01*
X116205000Y-93345000D02*
X116205000Y-104143800D01*
X116205000Y-104143800D02*
X121281200Y-109220000D01*
X121281200Y-109220000D02*
X122241800Y-109220000D01*
X122241800Y-109220000D02*
X123061400Y-110039600D01*
X123061400Y-110039600D02*
X123061400Y-111888600D01*
X123061400Y-111888600D02*
X121920000Y-113030000D01*
X113665000Y-93345000D02*
X113665000Y-102754300D01*
X113665000Y-102754300D02*
X121400700Y-110490000D01*
X121400700Y-110490000D02*
X121920000Y-110490000D01*
X129540000Y-113030000D02*
X133350000Y-116840000D01*
X133350000Y-116840000D02*
X138430000Y-116840000D01*
X135454700Y-99060000D02*
X127958600Y-106556100D01*
X127958600Y-106556100D02*
X127958600Y-124148600D01*
X127958600Y-124148600D02*
X129540000Y-125730000D01*
X138430000Y-99060000D02*
X135454700Y-99060000D01*
X135454700Y-96520000D02*
X127508300Y-104466400D01*
X127508300Y-104466400D02*
X127508300Y-126238300D01*
X127508300Y-126238300D02*
X129540000Y-128270000D01*
X138430000Y-96520000D02*
X135454700Y-96520000D01*
X135454700Y-93980000D02*
X134148200Y-92673500D01*
X134148200Y-92673500D02*
X134148200Y-83368700D01*
X134148200Y-83368700D02*
X130154500Y-79375000D01*
X130154500Y-79375000D02*
X129540000Y-79375000D01*
X138430000Y-93980000D02*
X135454700Y-93980000D01*
X129540000Y-76835000D02*
X135004400Y-82299400D01*
X135004400Y-82299400D02*
X135004400Y-90989700D01*
X135004400Y-90989700D02*
X135454700Y-91440000D01*
X138430000Y-91440000D02*
X135454700Y-91440000D01*
X138430000Y-86360000D02*
X135454700Y-86360000D01*
X129540000Y-74295000D02*
X135454700Y-80209700D01*
X135454700Y-80209700D02*
X135454700Y-86360000D01*
X129540000Y-86995000D02*
X130238900Y-86995000D01*
X130238900Y-86995000D02*
X133422900Y-83811000D01*
X129540000Y-89535000D02*
X128403700Y-88398700D01*
X128403700Y-88398700D02*
X128403700Y-86530300D01*
X128403700Y-86530300D02*
X129209000Y-85725000D01*
X129209000Y-85725000D02*
X129925700Y-85725000D01*
X129925700Y-85725000D02*
X131777500Y-83873200D01*
X131777500Y-83873200D02*
X131777500Y-82023800D01*
X138430000Y-78740000D02*
X135454700Y-78740000D01*
X129540000Y-92075000D02*
X127901000Y-90436000D01*
X127901000Y-90436000D02*
X127901000Y-74286200D01*
X127901000Y-74286200D02*
X129023100Y-73164100D01*
X129023100Y-73164100D02*
X130018100Y-73164100D01*
X130018100Y-73164100D02*
X135454700Y-78600700D01*
X135454700Y-78600700D02*
X135454700Y-78740000D01*
D21*
G36*
X160167249Y-65502437D02*
G01*
X160924774Y-65709672D01*
X161633625Y-66047777D01*
X162271404Y-66506067D01*
X162817946Y-67070055D01*
X163255977Y-67721913D01*
X163571651Y-68441038D01*
X163756206Y-69209768D01*
X163805000Y-69874207D01*
X163805001Y-133955597D01*
X163732563Y-134767249D01*
X163525328Y-135524774D01*
X163187221Y-136233627D01*
X162728928Y-136871410D01*
X162164945Y-137417946D01*
X161513085Y-137855978D01*
X160793963Y-138171651D01*
X160025232Y-138356206D01*
X159360792Y-138405000D01*
X114964392Y-138405000D01*
X114152751Y-138332563D01*
X113395226Y-138125328D01*
X112686373Y-137787221D01*
X112048590Y-137328928D01*
X111502054Y-136764945D01*
X111064022Y-136113085D01*
X110748349Y-135393963D01*
X110563794Y-134625232D01*
X110515000Y-133960792D01*
X110515000Y-72961200D01*
X111235124Y-72961200D01*
X111238801Y-72998533D01*
X111238800Y-88246578D01*
X111235124Y-88283900D01*
X111238800Y-88321222D01*
X111238800Y-88321232D01*
X111249797Y-88432885D01*
X111281517Y-88537453D01*
X111293254Y-88576146D01*
X111363826Y-88708176D01*
X111386086Y-88735299D01*
X111458799Y-88823901D01*
X111487803Y-88847704D01*
X112506294Y-89866196D01*
X112349010Y-90101589D01*
X112237068Y-90371842D01*
X112180000Y-90658740D01*
X112180000Y-90951260D01*
X112237068Y-91238158D01*
X112308341Y-91410228D01*
X112271699Y-91440299D01*
X112247896Y-91469303D01*
X111973103Y-91744096D01*
X111944099Y-91767899D01*
X111911703Y-91807374D01*
X111849126Y-91883624D01*
X111797612Y-91980000D01*
X111778554Y-92015654D01*
X111735097Y-92158915D01*
X111724100Y-92270568D01*
X111724100Y-92270578D01*
X111720424Y-92307900D01*
X111724100Y-92345222D01*
X111724101Y-118796767D01*
X111720424Y-118834100D01*
X111724101Y-118871433D01*
X111733189Y-118963698D01*
X111735098Y-118983085D01*
X111778554Y-119126346D01*
X111849126Y-119258376D01*
X111920301Y-119345102D01*
X111944100Y-119374101D01*
X111973098Y-119397899D01*
X120521312Y-127946114D01*
X120485000Y-128128665D01*
X120485000Y-128411335D01*
X120540147Y-128688574D01*
X120648320Y-128949727D01*
X120805363Y-129184759D01*
X121005241Y-129384637D01*
X121237759Y-129540000D01*
X121005241Y-129695363D01*
X120805363Y-129895241D01*
X120648320Y-130130273D01*
X120540147Y-130391426D01*
X120485000Y-130668665D01*
X120485000Y-130951335D01*
X120540147Y-131228574D01*
X120648320Y-131489727D01*
X120805363Y-131724759D01*
X121005241Y-131924637D01*
X121160001Y-132028044D01*
X121160000Y-134671956D01*
X121005241Y-134775363D01*
X120805363Y-134975241D01*
X120648320Y-135210273D01*
X120540147Y-135471426D01*
X120485000Y-135748665D01*
X120485000Y-136031335D01*
X120540147Y-136308574D01*
X120648320Y-136569727D01*
X120805363Y-136804759D01*
X121005241Y-137004637D01*
X121240273Y-137161680D01*
X121501426Y-137269853D01*
X121778665Y-137325000D01*
X122061335Y-137325000D01*
X122338574Y-137269853D01*
X122599727Y-137161680D01*
X122834759Y-137004637D01*
X123034637Y-136804759D01*
X123191680Y-136569727D01*
X123299853Y-136308574D01*
X123313684Y-136239039D01*
X128028096Y-136239039D01*
X128068754Y-136373087D01*
X128188963Y-136627420D01*
X128356481Y-136853414D01*
X128564869Y-137042385D01*
X128806119Y-137187070D01*
X129070960Y-137281909D01*
X129293000Y-137160624D01*
X129293000Y-136017000D01*
X129547000Y-136017000D01*
X129547000Y-137160624D01*
X129769040Y-137281909D01*
X130033881Y-137187070D01*
X130275131Y-137042385D01*
X130483519Y-136853414D01*
X130651037Y-136627420D01*
X130771246Y-136373087D01*
X130811904Y-136239039D01*
X130689915Y-136017000D01*
X129547000Y-136017000D01*
X129293000Y-136017000D01*
X128150085Y-136017000D01*
X128028096Y-136239039D01*
X123313684Y-136239039D01*
X123355000Y-136031335D01*
X123355000Y-135748665D01*
X123313685Y-135540961D01*
X128028096Y-135540961D01*
X128150085Y-135763000D01*
X129293000Y-135763000D01*
X129293000Y-134619376D01*
X129547000Y-134619376D01*
X129547000Y-135763000D01*
X130689915Y-135763000D01*
X130811904Y-135540961D01*
X130771246Y-135406913D01*
X130651037Y-135152580D01*
X130483519Y-134926586D01*
X130275131Y-134737615D01*
X130033881Y-134592930D01*
X129769040Y-134498091D01*
X129547000Y-134619376D01*
X129293000Y-134619376D01*
X129070960Y-134498091D01*
X128806119Y-134592930D01*
X128564869Y-134737615D01*
X128356481Y-134926586D01*
X128188963Y-135152580D01*
X128068754Y-135406913D01*
X128028096Y-135540961D01*
X123313685Y-135540961D01*
X123299853Y-135471426D01*
X123191680Y-135210273D01*
X123034637Y-134975241D01*
X122834759Y-134775363D01*
X122680000Y-134671957D01*
X122680000Y-132028043D01*
X122834759Y-131924637D01*
X123034637Y-131724759D01*
X123191680Y-131489727D01*
X123299853Y-131228574D01*
X123355000Y-130951335D01*
X123355000Y-130668665D01*
X123318688Y-130486114D01*
X124945504Y-128859298D01*
X124974501Y-128835501D01*
X125000832Y-128803417D01*
X125069474Y-128719777D01*
X125140046Y-128587747D01*
X125140046Y-128587746D01*
X125183503Y-128444486D01*
X125194500Y-128332833D01*
X125194500Y-128332823D01*
X125198176Y-128295501D01*
X125194500Y-128258178D01*
X125194500Y-126699694D01*
X125218998Y-126719799D01*
X128190389Y-129691191D01*
X128150498Y-129765820D01*
X128114188Y-129885518D01*
X128101928Y-130010000D01*
X128101928Y-131610000D01*
X128114188Y-131734482D01*
X128150498Y-131854180D01*
X128209463Y-131964494D01*
X128288815Y-132061185D01*
X128385506Y-132140537D01*
X128495820Y-132199502D01*
X128615518Y-132235812D01*
X128740000Y-132248072D01*
X130340000Y-132248072D01*
X130464482Y-132235812D01*
X130584180Y-132199502D01*
X130694494Y-132140537D01*
X130791185Y-132061185D01*
X130870537Y-131964494D01*
X130929502Y-131854180D01*
X130965812Y-131734482D01*
X130978072Y-131610000D01*
X130978072Y-130010000D01*
X130965812Y-129885518D01*
X130929502Y-129765820D01*
X130870537Y-129655506D01*
X130791185Y-129558815D01*
X130694494Y-129479463D01*
X130584180Y-129420498D01*
X130464482Y-129384188D01*
X130456039Y-129383357D01*
X130654637Y-129184759D01*
X130811680Y-128949727D01*
X130919853Y-128688574D01*
X130975000Y-128411335D01*
X130975000Y-128128665D01*
X130919853Y-127851426D01*
X130811680Y-127590273D01*
X130654637Y-127355241D01*
X130454759Y-127155363D01*
X130222241Y-127000000D01*
X130454759Y-126844637D01*
X130654637Y-126644759D01*
X130811680Y-126409727D01*
X130919853Y-126148574D01*
X130975000Y-125871335D01*
X130975000Y-125588665D01*
X130919853Y-125311426D01*
X130811680Y-125050273D01*
X130654637Y-124815241D01*
X130454759Y-124615363D01*
X130222241Y-124460000D01*
X130454759Y-124304637D01*
X130654637Y-124104759D01*
X130811680Y-123869727D01*
X130919853Y-123608574D01*
X130975000Y-123331335D01*
X130975000Y-123048665D01*
X130919853Y-122771426D01*
X130811680Y-122510273D01*
X130654637Y-122275241D01*
X130454759Y-122075363D01*
X130222241Y-121920000D01*
X130454759Y-121764637D01*
X130654637Y-121564759D01*
X130811680Y-121329727D01*
X130919853Y-121068574D01*
X130975000Y-120791335D01*
X130975000Y-120508665D01*
X130919853Y-120231426D01*
X130811680Y-119970273D01*
X130654637Y-119735241D01*
X130454759Y-119535363D01*
X130222241Y-119380000D01*
X130454759Y-119224637D01*
X130654637Y-119024759D01*
X130811680Y-118789727D01*
X130919853Y-118528574D01*
X130975000Y-118251335D01*
X130975000Y-117968665D01*
X130919853Y-117691426D01*
X130811680Y-117430273D01*
X130654637Y-117195241D01*
X130454759Y-116995363D01*
X130222241Y-116840000D01*
X130454759Y-116684637D01*
X130654637Y-116484759D01*
X130811680Y-116249727D01*
X130919853Y-115988574D01*
X130975000Y-115711335D01*
X130975000Y-115539802D01*
X132786201Y-117351003D01*
X132809999Y-117380001D01*
X132925724Y-117474974D01*
X133057753Y-117545546D01*
X133201014Y-117589003D01*
X133312667Y-117600000D01*
X133312675Y-117600000D01*
X133350000Y-117603676D01*
X133387325Y-117600000D01*
X135141928Y-117600000D01*
X135141928Y-117690000D01*
X135154188Y-117814482D01*
X135190498Y-117934180D01*
X135249463Y-118044494D01*
X135303222Y-118110000D01*
X135249463Y-118175506D01*
X135190498Y-118285820D01*
X135154188Y-118405518D01*
X135141928Y-118530000D01*
X135141928Y-120230000D01*
X135154188Y-120354482D01*
X135190498Y-120474180D01*
X135249463Y-120584494D01*
X135328815Y-120681185D01*
X135425506Y-120760537D01*
X135535820Y-120819502D01*
X135655518Y-120855812D01*
X135780000Y-120868072D01*
X138940001Y-120868072D01*
X138940000Y-125086821D01*
X138753368Y-125211525D01*
X138546525Y-125418368D01*
X138430000Y-125592760D01*
X138313475Y-125418368D01*
X138106632Y-125211525D01*
X137863411Y-125049010D01*
X137593158Y-124937068D01*
X137306260Y-124880000D01*
X137013740Y-124880000D01*
X136726842Y-124937068D01*
X136456589Y-125049010D01*
X136213368Y-125211525D01*
X136006525Y-125418368D01*
X135844010Y-125661589D01*
X135732068Y-125931842D01*
X135675000Y-126218740D01*
X135675000Y-126511260D01*
X135732068Y-126798158D01*
X135844010Y-127068411D01*
X136006525Y-127311632D01*
X136213368Y-127518475D01*
X136456589Y-127680990D01*
X136726842Y-127792932D01*
X137013740Y-127850000D01*
X137306260Y-127850000D01*
X137593158Y-127792932D01*
X137863411Y-127680990D01*
X138106632Y-127518475D01*
X138313475Y-127311632D01*
X138430000Y-127137240D01*
X138546525Y-127311632D01*
X138753368Y-127518475D01*
X138996589Y-127680990D01*
X139266842Y-127792932D01*
X139553740Y-127850000D01*
X139846260Y-127850000D01*
X140133158Y-127792932D01*
X140403411Y-127680990D01*
X140646632Y-127518475D01*
X140853475Y-127311632D01*
X140970000Y-127137240D01*
X141086525Y-127311632D01*
X141293368Y-127518475D01*
X141536589Y-127680990D01*
X141806842Y-127792932D01*
X142093740Y-127850000D01*
X142386260Y-127850000D01*
X142673158Y-127792932D01*
X142943411Y-127680990D01*
X143186632Y-127518475D01*
X143393475Y-127311632D01*
X143510000Y-127137240D01*
X143626525Y-127311632D01*
X143833368Y-127518475D01*
X144076589Y-127680990D01*
X144346842Y-127792932D01*
X144633740Y-127850000D01*
X144926260Y-127850000D01*
X145213158Y-127792932D01*
X145483411Y-127680990D01*
X145704657Y-127533158D01*
X146229200Y-128057702D01*
X146252999Y-128086701D01*
X146281997Y-128110499D01*
X146368723Y-128181674D01*
X146500753Y-128252246D01*
X146644014Y-128295703D01*
X146755667Y-128306700D01*
X146755676Y-128306700D01*
X146792999Y-128310376D01*
X146830322Y-128306700D01*
X147832978Y-128306700D01*
X147870300Y-128310376D01*
X147907622Y-128306700D01*
X147907633Y-128306700D01*
X148019286Y-128295703D01*
X148162547Y-128252246D01*
X148294576Y-128181674D01*
X148410301Y-128086701D01*
X148434103Y-128057698D01*
X148949311Y-127542491D01*
X149156589Y-127680990D01*
X149426842Y-127792932D01*
X149713740Y-127850000D01*
X150006260Y-127850000D01*
X150293158Y-127792932D01*
X150563411Y-127680990D01*
X150806632Y-127518475D01*
X151013475Y-127311632D01*
X151130000Y-127137240D01*
X151246525Y-127311632D01*
X151453368Y-127518475D01*
X151696589Y-127680990D01*
X151966842Y-127792932D01*
X152253740Y-127850000D01*
X152546260Y-127850000D01*
X152833158Y-127792932D01*
X153103411Y-127680990D01*
X153346632Y-127518475D01*
X153553475Y-127311632D01*
X153675195Y-127129466D01*
X153744822Y-127246355D01*
X153939731Y-127462588D01*
X154173080Y-127636641D01*
X154435901Y-127761825D01*
X154583110Y-127806476D01*
X154813000Y-127685155D01*
X154813000Y-126492000D01*
X154793000Y-126492000D01*
X154793000Y-126238000D01*
X154813000Y-126238000D01*
X154813000Y-125044845D01*
X154583110Y-124923524D01*
X154435901Y-124968175D01*
X154173080Y-125093359D01*
X153939731Y-125267412D01*
X153744822Y-125483645D01*
X153675195Y-125600534D01*
X153553475Y-125418368D01*
X153399804Y-125264697D01*
X154086304Y-124578198D01*
X154115301Y-124554401D01*
X154210274Y-124438676D01*
X154280846Y-124306647D01*
X154324303Y-124163386D01*
X154335300Y-124051733D01*
X154335300Y-124051724D01*
X154338976Y-124014401D01*
X154335300Y-123977078D01*
X154335300Y-115070701D01*
X154724479Y-114681523D01*
X154721928Y-115150000D01*
X154734188Y-115274482D01*
X154770498Y-115394180D01*
X154829463Y-115504494D01*
X154883222Y-115570000D01*
X154829463Y-115635506D01*
X154770498Y-115745820D01*
X154734188Y-115865518D01*
X154721928Y-115990000D01*
X154721928Y-117690000D01*
X154734188Y-117814482D01*
X154770498Y-117934180D01*
X154829463Y-118044494D01*
X154883222Y-118110000D01*
X154829463Y-118175506D01*
X154770498Y-118285820D01*
X154734188Y-118405518D01*
X154721928Y-118530000D01*
X154721928Y-120230000D01*
X154734188Y-120354482D01*
X154770498Y-120474180D01*
X154829463Y-120584494D01*
X154908815Y-120681185D01*
X155005506Y-120760537D01*
X155115820Y-120819502D01*
X155235518Y-120855812D01*
X155360000Y-120868072D01*
X158860000Y-120868072D01*
X158905900Y-120863551D01*
X158905900Y-122688997D01*
X156968998Y-124625901D01*
X156940000Y-124649699D01*
X156916202Y-124678697D01*
X156916201Y-124678698D01*
X156845026Y-124765424D01*
X156785425Y-124876928D01*
X156630000Y-124876928D01*
X156505518Y-124889188D01*
X156385820Y-124925498D01*
X156275506Y-124984463D01*
X156178815Y-125063815D01*
X156099463Y-125160506D01*
X156040498Y-125270820D01*
X156016034Y-125351466D01*
X155940269Y-125267412D01*
X155706920Y-125093359D01*
X155444099Y-124968175D01*
X155296890Y-124923524D01*
X155067000Y-125044845D01*
X155067000Y-126238000D01*
X155087000Y-126238000D01*
X155087000Y-126492000D01*
X155067000Y-126492000D01*
X155067000Y-127685155D01*
X155296890Y-127806476D01*
X155444099Y-127761825D01*
X155706920Y-127636641D01*
X155940269Y-127462588D01*
X156016034Y-127378534D01*
X156040498Y-127459180D01*
X156099463Y-127569494D01*
X156178815Y-127666185D01*
X156275506Y-127745537D01*
X156385820Y-127804502D01*
X156505518Y-127840812D01*
X156630000Y-127853072D01*
X158330000Y-127853072D01*
X158454482Y-127840812D01*
X158574180Y-127804502D01*
X158684494Y-127745537D01*
X158781185Y-127666185D01*
X158860537Y-127569494D01*
X158919502Y-127459180D01*
X158955812Y-127339482D01*
X158968072Y-127215000D01*
X158968072Y-125515000D01*
X158955812Y-125390518D01*
X158919502Y-125270820D01*
X158860537Y-125160506D01*
X158781185Y-125063815D01*
X158725987Y-125018515D01*
X160176909Y-123567594D01*
X160205901Y-123543801D01*
X160229695Y-123514808D01*
X160229699Y-123514804D01*
X160300873Y-123428077D01*
X160300874Y-123428076D01*
X160371446Y-123296047D01*
X160414903Y-123152786D01*
X160425900Y-123041133D01*
X160425900Y-123041124D01*
X160429576Y-123003801D01*
X160425900Y-122966478D01*
X160425900Y-81797922D01*
X160429576Y-81760599D01*
X160425900Y-81723276D01*
X160425900Y-81723267D01*
X160414903Y-81611614D01*
X160371446Y-81468353D01*
X160350403Y-81428985D01*
X160300874Y-81336323D01*
X160238337Y-81260123D01*
X160205901Y-81220599D01*
X160176897Y-81196796D01*
X159749104Y-80769003D01*
X159725301Y-80739999D01*
X159609576Y-80645026D01*
X159498072Y-80585425D01*
X159498072Y-80430000D01*
X159485812Y-80305518D01*
X159449502Y-80185820D01*
X159390537Y-80075506D01*
X159336778Y-80010000D01*
X159390537Y-79944494D01*
X159449502Y-79834180D01*
X159485812Y-79714482D01*
X159498072Y-79590000D01*
X159498072Y-77890000D01*
X159485812Y-77765518D01*
X159449502Y-77645820D01*
X159390537Y-77535506D01*
X159336778Y-77470000D01*
X159390537Y-77404494D01*
X159449502Y-77294180D01*
X159485812Y-77174482D01*
X159498072Y-77050000D01*
X159495000Y-76485750D01*
X159336250Y-76327000D01*
X154883750Y-76327000D01*
X154725000Y-76485750D01*
X154721928Y-77050000D01*
X154734188Y-77174482D01*
X154770498Y-77294180D01*
X154829463Y-77404494D01*
X154883222Y-77470000D01*
X154829463Y-77535506D01*
X154770498Y-77645820D01*
X154734188Y-77765518D01*
X154721928Y-77890000D01*
X154721928Y-79590000D01*
X154734188Y-79714482D01*
X154770498Y-79834180D01*
X154829463Y-79944494D01*
X154883222Y-80010000D01*
X154829463Y-80075506D01*
X154770498Y-80185820D01*
X154734188Y-80305518D01*
X154721928Y-80430000D01*
X154721928Y-82130000D01*
X154734188Y-82254482D01*
X154770498Y-82374180D01*
X154829463Y-82484494D01*
X154883222Y-82550000D01*
X154829463Y-82615506D01*
X154770498Y-82725820D01*
X154734188Y-82845518D01*
X154721928Y-82970000D01*
X154721928Y-84670000D01*
X154734188Y-84794482D01*
X154770498Y-84914180D01*
X154829463Y-85024494D01*
X154883222Y-85090000D01*
X154829463Y-85155506D01*
X154770498Y-85265820D01*
X154734188Y-85385518D01*
X154721928Y-85510000D01*
X154721928Y-87210000D01*
X154734188Y-87334482D01*
X154770498Y-87454180D01*
X154829463Y-87564494D01*
X154883222Y-87630000D01*
X154829463Y-87695506D01*
X154770498Y-87805820D01*
X154734188Y-87925518D01*
X154721928Y-88050000D01*
X154725000Y-88614250D01*
X154883750Y-88773000D01*
X157257000Y-88773000D01*
X157257000Y-89027000D01*
X154883750Y-89027000D01*
X154725000Y-89185750D01*
X154721928Y-89750000D01*
X154734188Y-89874482D01*
X154770498Y-89994180D01*
X154829463Y-90104494D01*
X154883222Y-90170000D01*
X154829463Y-90235506D01*
X154770498Y-90345820D01*
X154734188Y-90465518D01*
X154721928Y-90590000D01*
X154721928Y-92290000D01*
X154734188Y-92414482D01*
X154770498Y-92534180D01*
X154829463Y-92644494D01*
X154883222Y-92710000D01*
X154829463Y-92775506D01*
X154770498Y-92885820D01*
X154734188Y-93005518D01*
X154721928Y-93130000D01*
X154721928Y-94830000D01*
X154734188Y-94954482D01*
X154770498Y-95074180D01*
X154829463Y-95184494D01*
X154883222Y-95250000D01*
X154829463Y-95315506D01*
X154770498Y-95425820D01*
X154734188Y-95545518D01*
X154721928Y-95670000D01*
X154721928Y-97370000D01*
X154734188Y-97494482D01*
X154770498Y-97614180D01*
X154829463Y-97724494D01*
X154883222Y-97790000D01*
X154829463Y-97855506D01*
X154770498Y-97965820D01*
X154734188Y-98085518D01*
X154721928Y-98210000D01*
X154721928Y-99910000D01*
X154734188Y-100034482D01*
X154770498Y-100154180D01*
X154829463Y-100264494D01*
X154883222Y-100330000D01*
X154829463Y-100395506D01*
X154770498Y-100505820D01*
X154734188Y-100625518D01*
X154721928Y-100750000D01*
X154725000Y-101314250D01*
X154883750Y-101473000D01*
X157257000Y-101473000D01*
X157257000Y-101727000D01*
X154883750Y-101727000D01*
X154725000Y-101885750D01*
X154721928Y-102450000D01*
X154734188Y-102574482D01*
X154770498Y-102694180D01*
X154829463Y-102804494D01*
X154883222Y-102870000D01*
X154829463Y-102935506D01*
X154770498Y-103045820D01*
X154734188Y-103165518D01*
X154721928Y-103290000D01*
X154721928Y-103445425D01*
X154610424Y-103505026D01*
X154494699Y-103599999D01*
X154470901Y-103628997D01*
X139850196Y-118249702D01*
X139810537Y-118175506D01*
X139756778Y-118110000D01*
X139810537Y-118044494D01*
X139869502Y-117934180D01*
X139905812Y-117814482D01*
X139918072Y-117690000D01*
X139918072Y-115990000D01*
X139905812Y-115865518D01*
X139869502Y-115745820D01*
X139810537Y-115635506D01*
X139756778Y-115570000D01*
X139810537Y-115504494D01*
X139869502Y-115394180D01*
X139905812Y-115274482D01*
X139918072Y-115150000D01*
X139915000Y-114585750D01*
X139756250Y-114427000D01*
X135303750Y-114427000D01*
X135145000Y-114585750D01*
X135141928Y-115150000D01*
X135154188Y-115274482D01*
X135190498Y-115394180D01*
X135249463Y-115504494D01*
X135303222Y-115570000D01*
X135249463Y-115635506D01*
X135190498Y-115745820D01*
X135154188Y-115865518D01*
X135141928Y-115990000D01*
X135141928Y-116080000D01*
X133664802Y-116080000D01*
X130938688Y-113353887D01*
X130975000Y-113171335D01*
X130975000Y-112888665D01*
X130919853Y-112611426D01*
X130811680Y-112350273D01*
X130654637Y-112115241D01*
X130454759Y-111915363D01*
X130222241Y-111760000D01*
X130454759Y-111604637D01*
X130654637Y-111404759D01*
X130811680Y-111169727D01*
X130919853Y-110908574D01*
X130975000Y-110631335D01*
X130975000Y-110348665D01*
X130919853Y-110071426D01*
X130811680Y-109810273D01*
X130654637Y-109575241D01*
X130454759Y-109375363D01*
X130220872Y-109219085D01*
X130281514Y-109186671D01*
X130353097Y-108942702D01*
X129540000Y-108129605D01*
X129525858Y-108143748D01*
X129346253Y-107964143D01*
X129360395Y-107950000D01*
X129719605Y-107950000D01*
X130532702Y-108763097D01*
X130776671Y-108691514D01*
X130897571Y-108436004D01*
X130966300Y-108161816D01*
X130980217Y-107879488D01*
X130938787Y-107599870D01*
X130843603Y-107333708D01*
X130776671Y-107208486D01*
X130532702Y-107136903D01*
X129719605Y-107950000D01*
X129360395Y-107950000D01*
X129346253Y-107935858D01*
X129525858Y-107756253D01*
X129540000Y-107770395D01*
X130353097Y-106957298D01*
X130281514Y-106713329D01*
X130026004Y-106592429D01*
X129751816Y-106523700D01*
X129469488Y-106509783D01*
X129189870Y-106551213D01*
X128953902Y-106635599D01*
X133139501Y-102450000D01*
X135141928Y-102450000D01*
X135154188Y-102574482D01*
X135190498Y-102694180D01*
X135249463Y-102804494D01*
X135303222Y-102870000D01*
X135249463Y-102935506D01*
X135190498Y-103045820D01*
X135154188Y-103165518D01*
X135141928Y-103290000D01*
X135141928Y-104990000D01*
X135154188Y-105114482D01*
X135190498Y-105234180D01*
X135249463Y-105344494D01*
X135303222Y-105410000D01*
X135249463Y-105475506D01*
X135190498Y-105585820D01*
X135154188Y-105705518D01*
X135141928Y-105830000D01*
X135141928Y-107530000D01*
X135154188Y-107654482D01*
X135190498Y-107774180D01*
X135249463Y-107884494D01*
X135303222Y-107950000D01*
X135249463Y-108015506D01*
X135190498Y-108125820D01*
X135154188Y-108245518D01*
X135141928Y-108370000D01*
X135141928Y-110070000D01*
X135154188Y-110194482D01*
X135190498Y-110314180D01*
X135249463Y-110424494D01*
X135303222Y-110490000D01*
X135249463Y-110555506D01*
X135190498Y-110665820D01*
X135154188Y-110785518D01*
X135141928Y-110910000D01*
X135141928Y-112610000D01*
X135154188Y-112734482D01*
X135190498Y-112854180D01*
X135249463Y-112964494D01*
X135303222Y-113030000D01*
X135249463Y-113095506D01*
X135190498Y-113205820D01*
X135154188Y-113325518D01*
X135141928Y-113450000D01*
X135145000Y-114014250D01*
X135303750Y-114173000D01*
X139756250Y-114173000D01*
X139915000Y-114014250D01*
X139918072Y-113450000D01*
X139905812Y-113325518D01*
X139869502Y-113205820D01*
X139810537Y-113095506D01*
X139756778Y-113030000D01*
X139810537Y-112964494D01*
X139869502Y-112854180D01*
X139905812Y-112734482D01*
X139918072Y-112610000D01*
X139918072Y-110910000D01*
X139905812Y-110785518D01*
X139869502Y-110665820D01*
X139810537Y-110555506D01*
X139756778Y-110490000D01*
X139810537Y-110424494D01*
X139869502Y-110314180D01*
X139905812Y-110194482D01*
X139918072Y-110070000D01*
X139918072Y-108370000D01*
X139905812Y-108245518D01*
X139869502Y-108125820D01*
X139810537Y-108015506D01*
X139756778Y-107950000D01*
X139810537Y-107884494D01*
X139869502Y-107774180D01*
X139905812Y-107654482D01*
X139918072Y-107530000D01*
X139918072Y-105830000D01*
X139905812Y-105705518D01*
X139869502Y-105585820D01*
X139810537Y-105475506D01*
X139756778Y-105410000D01*
X139810537Y-105344494D01*
X139869502Y-105234180D01*
X139905812Y-105114482D01*
X139918072Y-104990000D01*
X139918072Y-103290000D01*
X139905812Y-103165518D01*
X139869502Y-103045820D01*
X139810537Y-102935506D01*
X139756778Y-102870000D01*
X139810537Y-102804494D01*
X139869502Y-102694180D01*
X139905812Y-102574482D01*
X139918072Y-102450000D01*
X139915000Y-101885750D01*
X139756250Y-101727000D01*
X135303750Y-101727000D01*
X135145000Y-101885750D01*
X135141928Y-102450000D01*
X133139501Y-102450000D01*
X135283515Y-100305987D01*
X135303222Y-100330000D01*
X135249463Y-100395506D01*
X135190498Y-100505820D01*
X135154188Y-100625518D01*
X135141928Y-100750000D01*
X135145000Y-101314250D01*
X135303750Y-101473000D01*
X139756250Y-101473000D01*
X139915000Y-101314250D01*
X139918072Y-100750000D01*
X139905812Y-100625518D01*
X139869502Y-100505820D01*
X139810537Y-100395506D01*
X139756778Y-100330000D01*
X139810537Y-100264494D01*
X139869502Y-100154180D01*
X139905812Y-100034482D01*
X139918072Y-99910000D01*
X139918072Y-98210000D01*
X139905812Y-98085518D01*
X139869502Y-97965820D01*
X139810537Y-97855506D01*
X139756778Y-97790000D01*
X139810537Y-97724494D01*
X139869502Y-97614180D01*
X139905812Y-97494482D01*
X139918072Y-97370000D01*
X139918072Y-95670000D01*
X139905812Y-95545518D01*
X139869502Y-95425820D01*
X139810537Y-95315506D01*
X139756778Y-95250000D01*
X139810537Y-95184494D01*
X139869502Y-95074180D01*
X139905812Y-94954482D01*
X139918072Y-94830000D01*
X139918072Y-93130000D01*
X139905812Y-93005518D01*
X139869502Y-92885820D01*
X139810537Y-92775506D01*
X139756778Y-92710000D01*
X139810537Y-92644494D01*
X139869502Y-92534180D01*
X139905812Y-92414482D01*
X139918072Y-92290000D01*
X139918072Y-90590000D01*
X139905812Y-90465518D01*
X139869502Y-90345820D01*
X139810537Y-90235506D01*
X139756778Y-90170000D01*
X139810537Y-90104494D01*
X139869502Y-89994180D01*
X139905812Y-89874482D01*
X139918072Y-89750000D01*
X139915000Y-89185750D01*
X139756250Y-89027000D01*
X137383000Y-89027000D01*
X137383000Y-88773000D01*
X139756250Y-88773000D01*
X139915000Y-88614250D01*
X139918072Y-88050000D01*
X139905812Y-87925518D01*
X139869502Y-87805820D01*
X139810537Y-87695506D01*
X139756778Y-87630000D01*
X139810537Y-87564494D01*
X139869502Y-87454180D01*
X139905812Y-87334482D01*
X139918072Y-87210000D01*
X139918072Y-85510000D01*
X139905812Y-85385518D01*
X139869502Y-85265820D01*
X139810537Y-85155506D01*
X139756778Y-85090000D01*
X139810537Y-85024494D01*
X139869502Y-84914180D01*
X139905812Y-84794482D01*
X139918072Y-84670000D01*
X139918072Y-82970000D01*
X139905812Y-82845518D01*
X139869502Y-82725820D01*
X139810537Y-82615506D01*
X139756778Y-82550000D01*
X139810537Y-82484494D01*
X139869502Y-82374180D01*
X139905812Y-82254482D01*
X139918072Y-82130000D01*
X139918072Y-80430000D01*
X139905812Y-80305518D01*
X139869502Y-80185820D01*
X139810537Y-80075506D01*
X139756778Y-80010000D01*
X139810537Y-79944494D01*
X139869502Y-79834180D01*
X139905812Y-79714482D01*
X139918072Y-79590000D01*
X139918072Y-77890000D01*
X139905812Y-77765518D01*
X139869502Y-77645820D01*
X139810537Y-77535506D01*
X139756778Y-77470000D01*
X139810537Y-77404494D01*
X139869502Y-77294180D01*
X139905812Y-77174482D01*
X139918072Y-77050000D01*
X139915000Y-76485750D01*
X139756250Y-76327000D01*
X135303750Y-76327000D01*
X135145000Y-76485750D01*
X135141928Y-77050000D01*
X135154188Y-77174482D01*
X135176353Y-77247550D01*
X130631074Y-72702273D01*
X130648977Y-72684370D01*
X130532704Y-72568097D01*
X130776671Y-72496514D01*
X130897571Y-72241004D01*
X130966300Y-71966816D01*
X130980217Y-71684488D01*
X130938787Y-71404870D01*
X130843603Y-71138708D01*
X130776671Y-71013486D01*
X130532702Y-70941903D01*
X129719605Y-71755000D01*
X129733748Y-71769143D01*
X129554143Y-71948748D01*
X129540000Y-71934605D01*
X129525858Y-71948748D01*
X129346253Y-71769143D01*
X129360395Y-71755000D01*
X128547298Y-70941903D01*
X128303329Y-71013486D01*
X128182429Y-71268996D01*
X128113700Y-71543184D01*
X128099783Y-71825512D01*
X128141213Y-72105130D01*
X128236397Y-72371292D01*
X128303329Y-72496514D01*
X128547296Y-72568097D01*
X128528800Y-72586593D01*
X128522404Y-72591842D01*
X128483099Y-72624099D01*
X128459301Y-72653097D01*
X127389998Y-73722401D01*
X127361000Y-73746199D01*
X127337202Y-73775197D01*
X127337201Y-73775198D01*
X127266026Y-73861924D01*
X127195454Y-73993954D01*
X127169353Y-74080000D01*
X127151998Y-74137214D01*
X127141001Y-74248867D01*
X127137324Y-74286200D01*
X127141001Y-74323533D01*
X127141000Y-90398678D01*
X127137324Y-90436000D01*
X127141000Y-90473322D01*
X127141000Y-90473332D01*
X127151997Y-90584985D01*
X127179704Y-90676323D01*
X127195454Y-90728246D01*
X127266026Y-90860276D01*
X127298626Y-90899999D01*
X127360999Y-90976001D01*
X127390003Y-90999804D01*
X128141312Y-91751114D01*
X128105000Y-91933665D01*
X128105000Y-92216335D01*
X128160147Y-92493574D01*
X128268320Y-92754727D01*
X128425363Y-92989759D01*
X128623961Y-93188357D01*
X128615518Y-93189188D01*
X128495820Y-93225498D01*
X128385506Y-93284463D01*
X128288815Y-93363815D01*
X128209463Y-93460506D01*
X128150498Y-93570820D01*
X128114188Y-93690518D01*
X128101928Y-93815000D01*
X128105000Y-94329250D01*
X128263750Y-94488000D01*
X129413000Y-94488000D01*
X129413000Y-94468000D01*
X129667000Y-94468000D01*
X129667000Y-94488000D01*
X130816250Y-94488000D01*
X130975000Y-94329250D01*
X130978072Y-93815000D01*
X130965812Y-93690518D01*
X130929502Y-93570820D01*
X130870537Y-93460506D01*
X130791185Y-93363815D01*
X130694494Y-93284463D01*
X130584180Y-93225498D01*
X130464482Y-93189188D01*
X130456039Y-93188357D01*
X130654637Y-92989759D01*
X130811680Y-92754727D01*
X130919853Y-92493574D01*
X130975000Y-92216335D01*
X130975000Y-91933665D01*
X130919853Y-91656426D01*
X130811680Y-91395273D01*
X130654637Y-91160241D01*
X130454759Y-90960363D01*
X130222241Y-90805000D01*
X130454759Y-90649637D01*
X130654637Y-90449759D01*
X130811680Y-90214727D01*
X130919853Y-89953574D01*
X130975000Y-89676335D01*
X130975000Y-89393665D01*
X130919853Y-89116426D01*
X130811680Y-88855273D01*
X130654637Y-88620241D01*
X130454759Y-88420363D01*
X130222241Y-88265000D01*
X130454759Y-88109637D01*
X130654637Y-87909759D01*
X130811680Y-87674727D01*
X130919853Y-87413574D01*
X130925993Y-87382708D01*
X133388201Y-84920501D01*
X133388200Y-92636178D01*
X133384524Y-92673500D01*
X133388200Y-92710822D01*
X133388200Y-92710832D01*
X133399197Y-92822485D01*
X133430294Y-92925000D01*
X133442654Y-92965746D01*
X133513226Y-93097776D01*
X133539672Y-93130000D01*
X133608199Y-93213501D01*
X133637203Y-93237304D01*
X134890901Y-94491003D01*
X134914699Y-94520001D01*
X134943697Y-94543799D01*
X135030423Y-94614974D01*
X135141928Y-94674575D01*
X135141928Y-94830000D01*
X135154188Y-94954482D01*
X135190498Y-95074180D01*
X135249463Y-95184494D01*
X135303222Y-95250000D01*
X135249463Y-95315506D01*
X135190498Y-95425820D01*
X135154188Y-95545518D01*
X135141928Y-95670000D01*
X135141928Y-95825425D01*
X135030424Y-95885026D01*
X134914699Y-95979999D01*
X134890901Y-96008997D01*
X130792768Y-100107131D01*
X130811904Y-100044039D01*
X130689915Y-99822000D01*
X129547000Y-99822000D01*
X129547000Y-100965624D01*
X129769040Y-101086909D01*
X129837508Y-101062391D01*
X126997303Y-103902596D01*
X126968299Y-103926399D01*
X126915271Y-103991014D01*
X126873326Y-104042124D01*
X126821010Y-104140000D01*
X126802754Y-104174154D01*
X126759297Y-104317415D01*
X126748300Y-104429068D01*
X126748300Y-104429078D01*
X126744624Y-104466400D01*
X126748300Y-104503722D01*
X126748301Y-126099500D01*
X126490000Y-125841199D01*
X126490000Y-100044039D01*
X128028096Y-100044039D01*
X128068754Y-100178087D01*
X128188963Y-100432420D01*
X128356481Y-100658414D01*
X128564869Y-100847385D01*
X128806119Y-100992070D01*
X129070960Y-101086909D01*
X129293000Y-100965624D01*
X129293000Y-99822000D01*
X128150085Y-99822000D01*
X128028096Y-100044039D01*
X126490000Y-100044039D01*
X126490000Y-99345961D01*
X128028096Y-99345961D01*
X128150085Y-99568000D01*
X129293000Y-99568000D01*
X129293000Y-98424376D01*
X129547000Y-98424376D01*
X129547000Y-99568000D01*
X130689915Y-99568000D01*
X130811904Y-99345961D01*
X130771246Y-99211913D01*
X130651037Y-98957580D01*
X130483519Y-98731586D01*
X130275131Y-98542615D01*
X130033881Y-98397930D01*
X129769040Y-98303091D01*
X129547000Y-98424376D01*
X129293000Y-98424376D01*
X129070960Y-98303091D01*
X128806119Y-98397930D01*
X128564869Y-98542615D01*
X128356481Y-98731586D01*
X128188963Y-98957580D01*
X128068754Y-99211913D01*
X128028096Y-99345961D01*
X126490000Y-99345961D01*
X126490000Y-96799533D01*
X126493677Y-96762200D01*
X126479003Y-96613214D01*
X126435546Y-96469953D01*
X126364974Y-96337924D01*
X126293799Y-96251197D01*
X126270001Y-96222199D01*
X126241004Y-96198402D01*
X125457602Y-95415000D01*
X128101928Y-95415000D01*
X128114188Y-95539482D01*
X128150498Y-95659180D01*
X128209463Y-95769494D01*
X128288815Y-95866185D01*
X128385506Y-95945537D01*
X128495820Y-96004502D01*
X128615518Y-96040812D01*
X128740000Y-96053072D01*
X129254250Y-96050000D01*
X129413000Y-95891250D01*
X129413000Y-94742000D01*
X129667000Y-94742000D01*
X129667000Y-95891250D01*
X129825750Y-96050000D01*
X130340000Y-96053072D01*
X130464482Y-96040812D01*
X130584180Y-96004502D01*
X130694494Y-95945537D01*
X130791185Y-95866185D01*
X130870537Y-95769494D01*
X130929502Y-95659180D01*
X130965812Y-95539482D01*
X130978072Y-95415000D01*
X130975000Y-94900750D01*
X130816250Y-94742000D01*
X129667000Y-94742000D01*
X129413000Y-94742000D01*
X128263750Y-94742000D01*
X128105000Y-94900750D01*
X128101928Y-95415000D01*
X125457602Y-95415000D01*
X122926616Y-92884015D01*
X123156671Y-92816514D01*
X123277571Y-92561004D01*
X123346300Y-92286816D01*
X123360217Y-92004488D01*
X123318787Y-91724870D01*
X123223603Y-91458708D01*
X123156671Y-91333486D01*
X122912702Y-91261903D01*
X122099605Y-92075000D01*
X122113748Y-92089143D01*
X121934143Y-92268748D01*
X121920000Y-92254605D01*
X121905858Y-92268748D01*
X121726253Y-92089143D01*
X121740395Y-92075000D01*
X121726253Y-92060858D01*
X121905858Y-91881253D01*
X121920000Y-91895395D01*
X122733097Y-91082298D01*
X122661514Y-90838329D01*
X122597008Y-90807806D01*
X122599727Y-90806680D01*
X122834759Y-90649637D01*
X123034637Y-90449759D01*
X123191680Y-90214727D01*
X123299853Y-89953574D01*
X123355000Y-89676335D01*
X123355000Y-89393665D01*
X123299853Y-89116426D01*
X123191680Y-88855273D01*
X123034637Y-88620241D01*
X123015599Y-88601203D01*
X124074403Y-87542399D01*
X124103401Y-87518601D01*
X124198374Y-87402876D01*
X124268946Y-87270847D01*
X124312403Y-87127586D01*
X124323400Y-87015933D01*
X124323400Y-87015924D01*
X124327076Y-86978601D01*
X124323400Y-86941278D01*
X124323400Y-74351723D01*
X124327076Y-74314400D01*
X124323400Y-74277077D01*
X124323400Y-74277067D01*
X124312403Y-74165414D01*
X124268946Y-74022153D01*
X124198375Y-73890125D01*
X124198374Y-73890123D01*
X124127199Y-73803397D01*
X124103401Y-73774399D01*
X124074404Y-73750602D01*
X123014099Y-72690297D01*
X123034637Y-72669759D01*
X123191680Y-72434727D01*
X123299853Y-72173574D01*
X123355000Y-71896335D01*
X123355000Y-71613665D01*
X123299853Y-71336426D01*
X123191680Y-71075273D01*
X123034637Y-70840241D01*
X122956694Y-70762298D01*
X128726903Y-70762298D01*
X129540000Y-71575395D01*
X130353097Y-70762298D01*
X130281514Y-70518329D01*
X130026004Y-70397429D01*
X129751816Y-70328700D01*
X129469488Y-70314783D01*
X129189870Y-70356213D01*
X128923708Y-70451397D01*
X128798486Y-70518329D01*
X128726903Y-70762298D01*
X122956694Y-70762298D01*
X122834759Y-70640363D01*
X122599727Y-70483320D01*
X122338574Y-70375147D01*
X122061335Y-70320000D01*
X121778665Y-70320000D01*
X121501426Y-70375147D01*
X121240273Y-70483320D01*
X121005241Y-70640363D01*
X120805363Y-70840241D01*
X120648320Y-71075273D01*
X120540147Y-71336426D01*
X120485000Y-71613665D01*
X120485000Y-71896335D01*
X120540147Y-72173574D01*
X120578017Y-72265000D01*
X120235103Y-72265000D01*
X118240102Y-70270000D01*
X135141928Y-70270000D01*
X135141928Y-71970000D01*
X135154188Y-72094482D01*
X135190498Y-72214180D01*
X135249463Y-72324494D01*
X135303222Y-72390000D01*
X135249463Y-72455506D01*
X135190498Y-72565820D01*
X135154188Y-72685518D01*
X135141928Y-72810000D01*
X135141928Y-74510000D01*
X135154188Y-74634482D01*
X135190498Y-74754180D01*
X135249463Y-74864494D01*
X135303222Y-74930000D01*
X135249463Y-74995506D01*
X135190498Y-75105820D01*
X135154188Y-75225518D01*
X135141928Y-75350000D01*
X135145000Y-75914250D01*
X135303750Y-76073000D01*
X139756250Y-76073000D01*
X139915000Y-75914250D01*
X139918072Y-75350000D01*
X139905812Y-75225518D01*
X139869502Y-75105820D01*
X139810537Y-74995506D01*
X139756778Y-74930000D01*
X139810537Y-74864494D01*
X139869502Y-74754180D01*
X139905812Y-74634482D01*
X139918072Y-74510000D01*
X139918072Y-72810000D01*
X139905812Y-72685518D01*
X139869502Y-72565820D01*
X139810537Y-72455506D01*
X139756778Y-72390000D01*
X139810537Y-72324494D01*
X139869502Y-72214180D01*
X139905812Y-72094482D01*
X139918072Y-71970000D01*
X139918072Y-71098816D01*
X143060000Y-71098816D01*
X143060000Y-71401184D01*
X143118989Y-71697743D01*
X143234701Y-71977095D01*
X143383000Y-72199040D01*
X143383000Y-84455000D01*
X143385440Y-84479776D01*
X143392667Y-84503601D01*
X143404403Y-84525557D01*
X143420197Y-84544803D01*
X143439443Y-84560597D01*
X143461399Y-84572333D01*
X143485224Y-84579560D01*
X143510000Y-84582000D01*
X146685000Y-84582000D01*
X146709776Y-84579560D01*
X146733601Y-84572333D01*
X146755557Y-84560597D01*
X146774803Y-84544803D01*
X146790597Y-84525557D01*
X146802333Y-84503601D01*
X146809560Y-84479776D01*
X146812000Y-84455000D01*
X146812000Y-76864980D01*
X147398490Y-75692000D01*
X151765000Y-75692000D01*
X151789776Y-75689560D01*
X151813601Y-75682333D01*
X151835557Y-75670597D01*
X151854803Y-75654803D01*
X151870597Y-75635557D01*
X151882333Y-75613601D01*
X151889560Y-75589776D01*
X151892000Y-75565000D01*
X151892000Y-70270000D01*
X154721928Y-70270000D01*
X154721928Y-71970000D01*
X154734188Y-72094482D01*
X154770498Y-72214180D01*
X154829463Y-72324494D01*
X154883222Y-72390000D01*
X154829463Y-72455506D01*
X154770498Y-72565820D01*
X154734188Y-72685518D01*
X154721928Y-72810000D01*
X154721928Y-74510000D01*
X154734188Y-74634482D01*
X154770498Y-74754180D01*
X154829463Y-74864494D01*
X154883222Y-74930000D01*
X154829463Y-74995506D01*
X154770498Y-75105820D01*
X154734188Y-75225518D01*
X154721928Y-75350000D01*
X154725000Y-75914250D01*
X154883750Y-76073000D01*
X159336250Y-76073000D01*
X159495000Y-75914250D01*
X159498072Y-75350000D01*
X159485812Y-75225518D01*
X159449502Y-75105820D01*
X159390537Y-74995506D01*
X159336778Y-74930000D01*
X159390537Y-74864494D01*
X159449502Y-74754180D01*
X159485812Y-74634482D01*
X159498072Y-74510000D01*
X159498072Y-72810000D01*
X159485812Y-72685518D01*
X159449502Y-72565820D01*
X159390537Y-72455506D01*
X159336778Y-72390000D01*
X159390537Y-72324494D01*
X159449502Y-72214180D01*
X159485812Y-72094482D01*
X159498072Y-71970000D01*
X159498072Y-70270000D01*
X159485812Y-70145518D01*
X159449502Y-70025820D01*
X159390537Y-69915506D01*
X159311185Y-69818815D01*
X159214494Y-69739463D01*
X159104180Y-69680498D01*
X158984482Y-69644188D01*
X158860000Y-69631928D01*
X155360000Y-69631928D01*
X155235518Y-69644188D01*
X155115820Y-69680498D01*
X155005506Y-69739463D01*
X154908815Y-69818815D01*
X154829463Y-69915506D01*
X154770498Y-70025820D01*
X154734188Y-70145518D01*
X154721928Y-70270000D01*
X151892000Y-70270000D01*
X151892000Y-69850000D01*
X151889560Y-69825224D01*
X151882333Y-69801399D01*
X151870597Y-69779443D01*
X151854803Y-69760197D01*
X151835557Y-69744403D01*
X151813601Y-69732667D01*
X151789776Y-69725440D01*
X151765000Y-69723000D01*
X150236403Y-69723000D01*
X150196184Y-69715000D01*
X149893816Y-69715000D01*
X149853597Y-69723000D01*
X144786403Y-69723000D01*
X144746184Y-69715000D01*
X144443816Y-69715000D01*
X144403597Y-69723000D01*
X143510000Y-69723000D01*
X143485224Y-69725440D01*
X143461399Y-69732667D01*
X143439443Y-69744403D01*
X143420197Y-69760197D01*
X143404403Y-69779443D01*
X143392667Y-69801399D01*
X143385440Y-69825224D01*
X143383000Y-69850000D01*
X143383000Y-70300960D01*
X143234701Y-70522905D01*
X143118989Y-70802257D01*
X143060000Y-71098816D01*
X139918072Y-71098816D01*
X139918072Y-70270000D01*
X139905812Y-70145518D01*
X139869502Y-70025820D01*
X139810537Y-69915506D01*
X139731185Y-69818815D01*
X139634494Y-69739463D01*
X139524180Y-69680498D01*
X139404482Y-69644188D01*
X139280000Y-69631928D01*
X135780000Y-69631928D01*
X135655518Y-69644188D01*
X135535820Y-69680498D01*
X135425506Y-69739463D01*
X135328815Y-69818815D01*
X135249463Y-69915506D01*
X135190498Y-70025820D01*
X135154188Y-70145518D01*
X135141928Y-70270000D01*
X118240102Y-70270000D01*
X117944104Y-69974003D01*
X117920301Y-69944999D01*
X117804576Y-69850026D01*
X117672547Y-69779454D01*
X117529286Y-69735997D01*
X117487796Y-69731911D01*
X117358475Y-69538368D01*
X117151632Y-69331525D01*
X116908411Y-69169010D01*
X116638158Y-69057068D01*
X116351260Y-69000000D01*
X116058740Y-69000000D01*
X115771842Y-69057068D01*
X115501589Y-69169010D01*
X115258368Y-69331525D01*
X115051525Y-69538368D01*
X114935000Y-69712760D01*
X114818475Y-69538368D01*
X114611632Y-69331525D01*
X114368411Y-69169010D01*
X114098158Y-69057068D01*
X113811260Y-69000000D01*
X113518740Y-69000000D01*
X113231842Y-69057068D01*
X112961589Y-69169010D01*
X112718368Y-69331525D01*
X112511525Y-69538368D01*
X112349010Y-69781589D01*
X112237068Y-70051842D01*
X112180000Y-70338740D01*
X112180000Y-70631260D01*
X112237068Y-70918158D01*
X112349010Y-71188411D01*
X112488310Y-71396888D01*
X111487798Y-72397401D01*
X111458800Y-72421199D01*
X111435002Y-72450197D01*
X111435001Y-72450198D01*
X111363826Y-72536924D01*
X111293254Y-72668954D01*
X111271757Y-72739824D01*
X111249798Y-72812214D01*
X111244142Y-72869637D01*
X111235124Y-72961200D01*
X110515000Y-72961200D01*
X110515000Y-69879392D01*
X110587437Y-69067751D01*
X110794672Y-68310226D01*
X111132777Y-67601375D01*
X111591067Y-66963596D01*
X112155055Y-66417054D01*
X112806913Y-65979023D01*
X113526038Y-65663349D01*
X114294768Y-65478794D01*
X114959207Y-65430000D01*
X159355608Y-65430000D01*
X160167249Y-65502437D01*
G37*
X160167249Y-65502437D02*
X160924774Y-65709672D01*
X161633625Y-66047777D01*
X162271404Y-66506067D01*
X162817946Y-67070055D01*
X163255977Y-67721913D01*
X163571651Y-68441038D01*
X163756206Y-69209768D01*
X163805000Y-69874207D01*
X163805001Y-133955597D01*
X163732563Y-134767249D01*
X163525328Y-135524774D01*
X163187221Y-136233627D01*
X162728928Y-136871410D01*
X162164945Y-137417946D01*
X161513085Y-137855978D01*
X160793963Y-138171651D01*
X160025232Y-138356206D01*
X159360792Y-138405000D01*
X114964392Y-138405000D01*
X114152751Y-138332563D01*
X113395226Y-138125328D01*
X112686373Y-137787221D01*
X112048590Y-137328928D01*
X111502054Y-136764945D01*
X111064022Y-136113085D01*
X110748349Y-135393963D01*
X110563794Y-134625232D01*
X110515000Y-133960792D01*
X110515000Y-72961200D01*
X111235124Y-72961200D01*
X111238801Y-72998533D01*
X111238800Y-88246578D01*
X111235124Y-88283900D01*
X111238800Y-88321222D01*
X111238800Y-88321232D01*
X111249797Y-88432885D01*
X111281517Y-88537453D01*
X111293254Y-88576146D01*
X111363826Y-88708176D01*
X111386086Y-88735299D01*
X111458799Y-88823901D01*
X111487803Y-88847704D01*
X112506294Y-89866196D01*
X112349010Y-90101589D01*
X112237068Y-90371842D01*
X112180000Y-90658740D01*
X112180000Y-90951260D01*
X112237068Y-91238158D01*
X112308341Y-91410228D01*
X112271699Y-91440299D01*
X112247896Y-91469303D01*
X111973103Y-91744096D01*
X111944099Y-91767899D01*
X111911703Y-91807374D01*
X111849126Y-91883624D01*
X111797612Y-91980000D01*
X111778554Y-92015654D01*
X111735097Y-92158915D01*
X111724100Y-92270568D01*
X111724100Y-92270578D01*
X111720424Y-92307900D01*
X111724100Y-92345222D01*
X111724101Y-118796767D01*
X111720424Y-118834100D01*
X111724101Y-118871433D01*
X111733189Y-118963698D01*
X111735098Y-118983085D01*
X111778554Y-119126346D01*
X111849126Y-119258376D01*
X111920301Y-119345102D01*
X111944100Y-119374101D01*
X111973098Y-119397899D01*
X120521312Y-127946114D01*
X120485000Y-128128665D01*
X120485000Y-128411335D01*
X120540147Y-128688574D01*
X120648320Y-128949727D01*
X120805363Y-129184759D01*
X121005241Y-129384637D01*
X121237759Y-129540000D01*
X121005241Y-129695363D01*
X120805363Y-129895241D01*
X120648320Y-130130273D01*
X120540147Y-130391426D01*
X120485000Y-130668665D01*
X120485000Y-130951335D01*
X120540147Y-131228574D01*
X120648320Y-131489727D01*
X120805363Y-131724759D01*
X121005241Y-131924637D01*
X121160001Y-132028044D01*
X121160000Y-134671956D01*
X121005241Y-134775363D01*
X120805363Y-134975241D01*
X120648320Y-135210273D01*
X120540147Y-135471426D01*
X120485000Y-135748665D01*
X120485000Y-136031335D01*
X120540147Y-136308574D01*
X120648320Y-136569727D01*
X120805363Y-136804759D01*
X121005241Y-137004637D01*
X121240273Y-137161680D01*
X121501426Y-137269853D01*
X121778665Y-137325000D01*
X122061335Y-137325000D01*
X122338574Y-137269853D01*
X122599727Y-137161680D01*
X122834759Y-137004637D01*
X123034637Y-136804759D01*
X123191680Y-136569727D01*
X123299853Y-136308574D01*
X123313684Y-136239039D01*
X128028096Y-136239039D01*
X128068754Y-136373087D01*
X128188963Y-136627420D01*
X128356481Y-136853414D01*
X128564869Y-137042385D01*
X128806119Y-137187070D01*
X129070960Y-137281909D01*
X129293000Y-137160624D01*
X129293000Y-136017000D01*
X129547000Y-136017000D01*
X129547000Y-137160624D01*
X129769040Y-137281909D01*
X130033881Y-137187070D01*
X130275131Y-137042385D01*
X130483519Y-136853414D01*
X130651037Y-136627420D01*
X130771246Y-136373087D01*
X130811904Y-136239039D01*
X130689915Y-136017000D01*
X129547000Y-136017000D01*
X129293000Y-136017000D01*
X128150085Y-136017000D01*
X128028096Y-136239039D01*
X123313684Y-136239039D01*
X123355000Y-136031335D01*
X123355000Y-135748665D01*
X123313685Y-135540961D01*
X128028096Y-135540961D01*
X128150085Y-135763000D01*
X129293000Y-135763000D01*
X129293000Y-134619376D01*
X129547000Y-134619376D01*
X129547000Y-135763000D01*
X130689915Y-135763000D01*
X130811904Y-135540961D01*
X130771246Y-135406913D01*
X130651037Y-135152580D01*
X130483519Y-134926586D01*
X130275131Y-134737615D01*
X130033881Y-134592930D01*
X129769040Y-134498091D01*
X129547000Y-134619376D01*
X129293000Y-134619376D01*
X129070960Y-134498091D01*
X128806119Y-134592930D01*
X128564869Y-134737615D01*
X128356481Y-134926586D01*
X128188963Y-135152580D01*
X128068754Y-135406913D01*
X128028096Y-135540961D01*
X123313685Y-135540961D01*
X123299853Y-135471426D01*
X123191680Y-135210273D01*
X123034637Y-134975241D01*
X122834759Y-134775363D01*
X122680000Y-134671957D01*
X122680000Y-132028043D01*
X122834759Y-131924637D01*
X123034637Y-131724759D01*
X123191680Y-131489727D01*
X123299853Y-131228574D01*
X123355000Y-130951335D01*
X123355000Y-130668665D01*
X123318688Y-130486114D01*
X124945504Y-128859298D01*
X124974501Y-128835501D01*
X125000832Y-128803417D01*
X125069474Y-128719777D01*
X125140046Y-128587747D01*
X125140046Y-128587746D01*
X125183503Y-128444486D01*
X125194500Y-128332833D01*
X125194500Y-128332823D01*
X125198176Y-128295501D01*
X125194500Y-128258178D01*
X125194500Y-126699694D01*
X125218998Y-126719799D01*
X128190389Y-129691191D01*
X128150498Y-129765820D01*
X128114188Y-129885518D01*
X128101928Y-130010000D01*
X128101928Y-131610000D01*
X128114188Y-131734482D01*
X128150498Y-131854180D01*
X128209463Y-131964494D01*
X128288815Y-132061185D01*
X128385506Y-132140537D01*
X128495820Y-132199502D01*
X128615518Y-132235812D01*
X128740000Y-132248072D01*
X130340000Y-132248072D01*
X130464482Y-132235812D01*
X130584180Y-132199502D01*
X130694494Y-132140537D01*
X130791185Y-132061185D01*
X130870537Y-131964494D01*
X130929502Y-131854180D01*
X130965812Y-131734482D01*
X130978072Y-131610000D01*
X130978072Y-130010000D01*
X130965812Y-129885518D01*
X130929502Y-129765820D01*
X130870537Y-129655506D01*
X130791185Y-129558815D01*
X130694494Y-129479463D01*
X130584180Y-129420498D01*
X130464482Y-129384188D01*
X130456039Y-129383357D01*
X130654637Y-129184759D01*
X130811680Y-128949727D01*
X130919853Y-128688574D01*
X130975000Y-128411335D01*
X130975000Y-128128665D01*
X130919853Y-127851426D01*
X130811680Y-127590273D01*
X130654637Y-127355241D01*
X130454759Y-127155363D01*
X130222241Y-127000000D01*
X130454759Y-126844637D01*
X130654637Y-126644759D01*
X130811680Y-126409727D01*
X130919853Y-126148574D01*
X130975000Y-125871335D01*
X130975000Y-125588665D01*
X130919853Y-125311426D01*
X130811680Y-125050273D01*
X130654637Y-124815241D01*
X130454759Y-124615363D01*
X130222241Y-124460000D01*
X130454759Y-124304637D01*
X130654637Y-124104759D01*
X130811680Y-123869727D01*
X130919853Y-123608574D01*
X130975000Y-123331335D01*
X130975000Y-123048665D01*
X130919853Y-122771426D01*
X130811680Y-122510273D01*
X130654637Y-122275241D01*
X130454759Y-122075363D01*
X130222241Y-121920000D01*
X130454759Y-121764637D01*
X130654637Y-121564759D01*
X130811680Y-121329727D01*
X130919853Y-121068574D01*
X130975000Y-120791335D01*
X130975000Y-120508665D01*
X130919853Y-120231426D01*
X130811680Y-119970273D01*
X130654637Y-119735241D01*
X130454759Y-119535363D01*
X130222241Y-119380000D01*
X130454759Y-119224637D01*
X130654637Y-119024759D01*
X130811680Y-118789727D01*
X130919853Y-118528574D01*
X130975000Y-118251335D01*
X130975000Y-117968665D01*
X130919853Y-117691426D01*
X130811680Y-117430273D01*
X130654637Y-117195241D01*
X130454759Y-116995363D01*
X130222241Y-116840000D01*
X130454759Y-116684637D01*
X130654637Y-116484759D01*
X130811680Y-116249727D01*
X130919853Y-115988574D01*
X130975000Y-115711335D01*
X130975000Y-115539802D01*
X132786201Y-117351003D01*
X132809999Y-117380001D01*
X132925724Y-117474974D01*
X133057753Y-117545546D01*
X133201014Y-117589003D01*
X133312667Y-117600000D01*
X133312675Y-117600000D01*
X133350000Y-117603676D01*
X133387325Y-117600000D01*
X135141928Y-117600000D01*
X135141928Y-117690000D01*
X135154188Y-117814482D01*
X135190498Y-117934180D01*
X135249463Y-118044494D01*
X135303222Y-118110000D01*
X135249463Y-118175506D01*
X135190498Y-118285820D01*
X135154188Y-118405518D01*
X135141928Y-118530000D01*
X135141928Y-120230000D01*
X135154188Y-120354482D01*
X135190498Y-120474180D01*
X135249463Y-120584494D01*
X135328815Y-120681185D01*
X135425506Y-120760537D01*
X135535820Y-120819502D01*
X135655518Y-120855812D01*
X135780000Y-120868072D01*
X138940001Y-120868072D01*
X138940000Y-125086821D01*
X138753368Y-125211525D01*
X138546525Y-125418368D01*
X138430000Y-125592760D01*
X138313475Y-125418368D01*
X138106632Y-125211525D01*
X137863411Y-125049010D01*
X137593158Y-124937068D01*
X137306260Y-124880000D01*
X137013740Y-124880000D01*
X136726842Y-124937068D01*
X136456589Y-125049010D01*
X136213368Y-125211525D01*
X136006525Y-125418368D01*
X135844010Y-125661589D01*
X135732068Y-125931842D01*
X135675000Y-126218740D01*
X135675000Y-126511260D01*
X135732068Y-126798158D01*
X135844010Y-127068411D01*
X136006525Y-127311632D01*
X136213368Y-127518475D01*
X136456589Y-127680990D01*
X136726842Y-127792932D01*
X137013740Y-127850000D01*
X137306260Y-127850000D01*
X137593158Y-127792932D01*
X137863411Y-127680990D01*
X138106632Y-127518475D01*
X138313475Y-127311632D01*
X138430000Y-127137240D01*
X138546525Y-127311632D01*
X138753368Y-127518475D01*
X138996589Y-127680990D01*
X139266842Y-127792932D01*
X139553740Y-127850000D01*
X139846260Y-127850000D01*
X140133158Y-127792932D01*
X140403411Y-127680990D01*
X140646632Y-127518475D01*
X140853475Y-127311632D01*
X140970000Y-127137240D01*
X141086525Y-127311632D01*
X141293368Y-127518475D01*
X141536589Y-127680990D01*
X141806842Y-127792932D01*
X142093740Y-127850000D01*
X142386260Y-127850000D01*
X142673158Y-127792932D01*
X142943411Y-127680990D01*
X143186632Y-127518475D01*
X143393475Y-127311632D01*
X143510000Y-127137240D01*
X143626525Y-127311632D01*
X143833368Y-127518475D01*
X144076589Y-127680990D01*
X144346842Y-127792932D01*
X144633740Y-127850000D01*
X144926260Y-127850000D01*
X145213158Y-127792932D01*
X145483411Y-127680990D01*
X145704657Y-127533158D01*
X146229200Y-128057702D01*
X146252999Y-128086701D01*
X146281997Y-128110499D01*
X146368723Y-128181674D01*
X146500753Y-128252246D01*
X146644014Y-128295703D01*
X146755667Y-128306700D01*
X146755676Y-128306700D01*
X146792999Y-128310376D01*
X146830322Y-128306700D01*
X147832978Y-128306700D01*
X147870300Y-128310376D01*
X147907622Y-128306700D01*
X147907633Y-128306700D01*
X148019286Y-128295703D01*
X148162547Y-128252246D01*
X148294576Y-128181674D01*
X148410301Y-128086701D01*
X148434103Y-128057698D01*
X148949311Y-127542491D01*
X149156589Y-127680990D01*
X149426842Y-127792932D01*
X149713740Y-127850000D01*
X150006260Y-127850000D01*
X150293158Y-127792932D01*
X150563411Y-127680990D01*
X150806632Y-127518475D01*
X151013475Y-127311632D01*
X151130000Y-127137240D01*
X151246525Y-127311632D01*
X151453368Y-127518475D01*
X151696589Y-127680990D01*
X151966842Y-127792932D01*
X152253740Y-127850000D01*
X152546260Y-127850000D01*
X152833158Y-127792932D01*
X153103411Y-127680990D01*
X153346632Y-127518475D01*
X153553475Y-127311632D01*
X153675195Y-127129466D01*
X153744822Y-127246355D01*
X153939731Y-127462588D01*
X154173080Y-127636641D01*
X154435901Y-127761825D01*
X154583110Y-127806476D01*
X154813000Y-127685155D01*
X154813000Y-126492000D01*
X154793000Y-126492000D01*
X154793000Y-126238000D01*
X154813000Y-126238000D01*
X154813000Y-125044845D01*
X154583110Y-124923524D01*
X154435901Y-124968175D01*
X154173080Y-125093359D01*
X153939731Y-125267412D01*
X153744822Y-125483645D01*
X153675195Y-125600534D01*
X153553475Y-125418368D01*
X153399804Y-125264697D01*
X154086304Y-124578198D01*
X154115301Y-124554401D01*
X154210274Y-124438676D01*
X154280846Y-124306647D01*
X154324303Y-124163386D01*
X154335300Y-124051733D01*
X154335300Y-124051724D01*
X154338976Y-124014401D01*
X154335300Y-123977078D01*
X154335300Y-115070701D01*
X154724479Y-114681523D01*
X154721928Y-115150000D01*
X154734188Y-115274482D01*
X154770498Y-115394180D01*
X154829463Y-115504494D01*
X154883222Y-115570000D01*
X154829463Y-115635506D01*
X154770498Y-115745820D01*
X154734188Y-115865518D01*
X154721928Y-115990000D01*
X154721928Y-117690000D01*
X154734188Y-117814482D01*
X154770498Y-117934180D01*
X154829463Y-118044494D01*
X154883222Y-118110000D01*
X154829463Y-118175506D01*
X154770498Y-118285820D01*
X154734188Y-118405518D01*
X154721928Y-118530000D01*
X154721928Y-120230000D01*
X154734188Y-120354482D01*
X154770498Y-120474180D01*
X154829463Y-120584494D01*
X154908815Y-120681185D01*
X155005506Y-120760537D01*
X155115820Y-120819502D01*
X155235518Y-120855812D01*
X155360000Y-120868072D01*
X158860000Y-120868072D01*
X158905900Y-120863551D01*
X158905900Y-122688997D01*
X156968998Y-124625901D01*
X156940000Y-124649699D01*
X156916202Y-124678697D01*
X156916201Y-124678698D01*
X156845026Y-124765424D01*
X156785425Y-124876928D01*
X156630000Y-124876928D01*
X156505518Y-124889188D01*
X156385820Y-124925498D01*
X156275506Y-124984463D01*
X156178815Y-125063815D01*
X156099463Y-125160506D01*
X156040498Y-125270820D01*
X156016034Y-125351466D01*
X155940269Y-125267412D01*
X155706920Y-125093359D01*
X155444099Y-124968175D01*
X155296890Y-124923524D01*
X155067000Y-125044845D01*
X155067000Y-126238000D01*
X155087000Y-126238000D01*
X155087000Y-126492000D01*
X155067000Y-126492000D01*
X155067000Y-127685155D01*
X155296890Y-127806476D01*
X155444099Y-127761825D01*
X155706920Y-127636641D01*
X155940269Y-127462588D01*
X156016034Y-127378534D01*
X156040498Y-127459180D01*
X156099463Y-127569494D01*
X156178815Y-127666185D01*
X156275506Y-127745537D01*
X156385820Y-127804502D01*
X156505518Y-127840812D01*
X156630000Y-127853072D01*
X158330000Y-127853072D01*
X158454482Y-127840812D01*
X158574180Y-127804502D01*
X158684494Y-127745537D01*
X158781185Y-127666185D01*
X158860537Y-127569494D01*
X158919502Y-127459180D01*
X158955812Y-127339482D01*
X158968072Y-127215000D01*
X158968072Y-125515000D01*
X158955812Y-125390518D01*
X158919502Y-125270820D01*
X158860537Y-125160506D01*
X158781185Y-125063815D01*
X158725987Y-125018515D01*
X160176909Y-123567594D01*
X160205901Y-123543801D01*
X160229695Y-123514808D01*
X160229699Y-123514804D01*
X160300873Y-123428077D01*
X160300874Y-123428076D01*
X160371446Y-123296047D01*
X160414903Y-123152786D01*
X160425900Y-123041133D01*
X160425900Y-123041124D01*
X160429576Y-123003801D01*
X160425900Y-122966478D01*
X160425900Y-81797922D01*
X160429576Y-81760599D01*
X160425900Y-81723276D01*
X160425900Y-81723267D01*
X160414903Y-81611614D01*
X160371446Y-81468353D01*
X160350403Y-81428985D01*
X160300874Y-81336323D01*
X160238337Y-81260123D01*
X160205901Y-81220599D01*
X160176897Y-81196796D01*
X159749104Y-80769003D01*
X159725301Y-80739999D01*
X159609576Y-80645026D01*
X159498072Y-80585425D01*
X159498072Y-80430000D01*
X159485812Y-80305518D01*
X159449502Y-80185820D01*
X159390537Y-80075506D01*
X159336778Y-80010000D01*
X159390537Y-79944494D01*
X159449502Y-79834180D01*
X159485812Y-79714482D01*
X159498072Y-79590000D01*
X159498072Y-77890000D01*
X159485812Y-77765518D01*
X159449502Y-77645820D01*
X159390537Y-77535506D01*
X159336778Y-77470000D01*
X159390537Y-77404494D01*
X159449502Y-77294180D01*
X159485812Y-77174482D01*
X159498072Y-77050000D01*
X159495000Y-76485750D01*
X159336250Y-76327000D01*
X154883750Y-76327000D01*
X154725000Y-76485750D01*
X154721928Y-77050000D01*
X154734188Y-77174482D01*
X154770498Y-77294180D01*
X154829463Y-77404494D01*
X154883222Y-77470000D01*
X154829463Y-77535506D01*
X154770498Y-77645820D01*
X154734188Y-77765518D01*
X154721928Y-77890000D01*
X154721928Y-79590000D01*
X154734188Y-79714482D01*
X154770498Y-79834180D01*
X154829463Y-79944494D01*
X154883222Y-80010000D01*
X154829463Y-80075506D01*
X154770498Y-80185820D01*
X154734188Y-80305518D01*
X154721928Y-80430000D01*
X154721928Y-82130000D01*
X154734188Y-82254482D01*
X154770498Y-82374180D01*
X154829463Y-82484494D01*
X154883222Y-82550000D01*
X154829463Y-82615506D01*
X154770498Y-82725820D01*
X154734188Y-82845518D01*
X154721928Y-82970000D01*
X154721928Y-84670000D01*
X154734188Y-84794482D01*
X154770498Y-84914180D01*
X154829463Y-85024494D01*
X154883222Y-85090000D01*
X154829463Y-85155506D01*
X154770498Y-85265820D01*
X154734188Y-85385518D01*
X154721928Y-85510000D01*
X154721928Y-87210000D01*
X154734188Y-87334482D01*
X154770498Y-87454180D01*
X154829463Y-87564494D01*
X154883222Y-87630000D01*
X154829463Y-87695506D01*
X154770498Y-87805820D01*
X154734188Y-87925518D01*
X154721928Y-88050000D01*
X154725000Y-88614250D01*
X154883750Y-88773000D01*
X157257000Y-88773000D01*
X157257000Y-89027000D01*
X154883750Y-89027000D01*
X154725000Y-89185750D01*
X154721928Y-89750000D01*
X154734188Y-89874482D01*
X154770498Y-89994180D01*
X154829463Y-90104494D01*
X154883222Y-90170000D01*
X154829463Y-90235506D01*
X154770498Y-90345820D01*
X154734188Y-90465518D01*
X154721928Y-90590000D01*
X154721928Y-92290000D01*
X154734188Y-92414482D01*
X154770498Y-92534180D01*
X154829463Y-92644494D01*
X154883222Y-92710000D01*
X154829463Y-92775506D01*
X154770498Y-92885820D01*
X154734188Y-93005518D01*
X154721928Y-93130000D01*
X154721928Y-94830000D01*
X154734188Y-94954482D01*
X154770498Y-95074180D01*
X154829463Y-95184494D01*
X154883222Y-95250000D01*
X154829463Y-95315506D01*
X154770498Y-95425820D01*
X154734188Y-95545518D01*
X154721928Y-95670000D01*
X154721928Y-97370000D01*
X154734188Y-97494482D01*
X154770498Y-97614180D01*
X154829463Y-97724494D01*
X154883222Y-97790000D01*
X154829463Y-97855506D01*
X154770498Y-97965820D01*
X154734188Y-98085518D01*
X154721928Y-98210000D01*
X154721928Y-99910000D01*
X154734188Y-100034482D01*
X154770498Y-100154180D01*
X154829463Y-100264494D01*
X154883222Y-100330000D01*
X154829463Y-100395506D01*
X154770498Y-100505820D01*
X154734188Y-100625518D01*
X154721928Y-100750000D01*
X154725000Y-101314250D01*
X154883750Y-101473000D01*
X157257000Y-101473000D01*
X157257000Y-101727000D01*
X154883750Y-101727000D01*
X154725000Y-101885750D01*
X154721928Y-102450000D01*
X154734188Y-102574482D01*
X154770498Y-102694180D01*
X154829463Y-102804494D01*
X154883222Y-102870000D01*
X154829463Y-102935506D01*
X154770498Y-103045820D01*
X154734188Y-103165518D01*
X154721928Y-103290000D01*
X154721928Y-103445425D01*
X154610424Y-103505026D01*
X154494699Y-103599999D01*
X154470901Y-103628997D01*
X139850196Y-118249702D01*
X139810537Y-118175506D01*
X139756778Y-118110000D01*
X139810537Y-118044494D01*
X139869502Y-117934180D01*
X139905812Y-117814482D01*
X139918072Y-117690000D01*
X139918072Y-115990000D01*
X139905812Y-115865518D01*
X139869502Y-115745820D01*
X139810537Y-115635506D01*
X139756778Y-115570000D01*
X139810537Y-115504494D01*
X139869502Y-115394180D01*
X139905812Y-115274482D01*
X139918072Y-115150000D01*
X139915000Y-114585750D01*
X139756250Y-114427000D01*
X135303750Y-114427000D01*
X135145000Y-114585750D01*
X135141928Y-115150000D01*
X135154188Y-115274482D01*
X135190498Y-115394180D01*
X135249463Y-115504494D01*
X135303222Y-115570000D01*
X135249463Y-115635506D01*
X135190498Y-115745820D01*
X135154188Y-115865518D01*
X135141928Y-115990000D01*
X135141928Y-116080000D01*
X133664802Y-116080000D01*
X130938688Y-113353887D01*
X130975000Y-113171335D01*
X130975000Y-112888665D01*
X130919853Y-112611426D01*
X130811680Y-112350273D01*
X130654637Y-112115241D01*
X130454759Y-111915363D01*
X130222241Y-111760000D01*
X130454759Y-111604637D01*
X130654637Y-111404759D01*
X130811680Y-111169727D01*
X130919853Y-110908574D01*
X130975000Y-110631335D01*
X130975000Y-110348665D01*
X130919853Y-110071426D01*
X130811680Y-109810273D01*
X130654637Y-109575241D01*
X130454759Y-109375363D01*
X130220872Y-109219085D01*
X130281514Y-109186671D01*
X130353097Y-108942702D01*
X129540000Y-108129605D01*
X129525858Y-108143748D01*
X129346253Y-107964143D01*
X129360395Y-107950000D01*
X129719605Y-107950000D01*
X130532702Y-108763097D01*
X130776671Y-108691514D01*
X130897571Y-108436004D01*
X130966300Y-108161816D01*
X130980217Y-107879488D01*
X130938787Y-107599870D01*
X130843603Y-107333708D01*
X130776671Y-107208486D01*
X130532702Y-107136903D01*
X129719605Y-107950000D01*
X129360395Y-107950000D01*
X129346253Y-107935858D01*
X129525858Y-107756253D01*
X129540000Y-107770395D01*
X130353097Y-106957298D01*
X130281514Y-106713329D01*
X130026004Y-106592429D01*
X129751816Y-106523700D01*
X129469488Y-106509783D01*
X129189870Y-106551213D01*
X128953902Y-106635599D01*
X133139501Y-102450000D01*
X135141928Y-102450000D01*
X135154188Y-102574482D01*
X135190498Y-102694180D01*
X135249463Y-102804494D01*
X135303222Y-102870000D01*
X135249463Y-102935506D01*
X135190498Y-103045820D01*
X135154188Y-103165518D01*
X135141928Y-103290000D01*
X135141928Y-104990000D01*
X135154188Y-105114482D01*
X135190498Y-105234180D01*
X135249463Y-105344494D01*
X135303222Y-105410000D01*
X135249463Y-105475506D01*
X135190498Y-105585820D01*
X135154188Y-105705518D01*
X135141928Y-105830000D01*
X135141928Y-107530000D01*
X135154188Y-107654482D01*
X135190498Y-107774180D01*
X135249463Y-107884494D01*
X135303222Y-107950000D01*
X135249463Y-108015506D01*
X135190498Y-108125820D01*
X135154188Y-108245518D01*
X135141928Y-108370000D01*
X135141928Y-110070000D01*
X135154188Y-110194482D01*
X135190498Y-110314180D01*
X135249463Y-110424494D01*
X135303222Y-110490000D01*
X135249463Y-110555506D01*
X135190498Y-110665820D01*
X135154188Y-110785518D01*
X135141928Y-110910000D01*
X135141928Y-112610000D01*
X135154188Y-112734482D01*
X135190498Y-112854180D01*
X135249463Y-112964494D01*
X135303222Y-113030000D01*
X135249463Y-113095506D01*
X135190498Y-113205820D01*
X135154188Y-113325518D01*
X135141928Y-113450000D01*
X135145000Y-114014250D01*
X135303750Y-114173000D01*
X139756250Y-114173000D01*
X139915000Y-114014250D01*
X139918072Y-113450000D01*
X139905812Y-113325518D01*
X139869502Y-113205820D01*
X139810537Y-113095506D01*
X139756778Y-113030000D01*
X139810537Y-112964494D01*
X139869502Y-112854180D01*
X139905812Y-112734482D01*
X139918072Y-112610000D01*
X139918072Y-110910000D01*
X139905812Y-110785518D01*
X139869502Y-110665820D01*
X139810537Y-110555506D01*
X139756778Y-110490000D01*
X139810537Y-110424494D01*
X139869502Y-110314180D01*
X139905812Y-110194482D01*
X139918072Y-110070000D01*
X139918072Y-108370000D01*
X139905812Y-108245518D01*
X139869502Y-108125820D01*
X139810537Y-108015506D01*
X139756778Y-107950000D01*
X139810537Y-107884494D01*
X139869502Y-107774180D01*
X139905812Y-107654482D01*
X139918072Y-107530000D01*
X139918072Y-105830000D01*
X139905812Y-105705518D01*
X139869502Y-105585820D01*
X139810537Y-105475506D01*
X139756778Y-105410000D01*
X139810537Y-105344494D01*
X139869502Y-105234180D01*
X139905812Y-105114482D01*
X139918072Y-104990000D01*
X139918072Y-103290000D01*
X139905812Y-103165518D01*
X139869502Y-103045820D01*
X139810537Y-102935506D01*
X139756778Y-102870000D01*
X139810537Y-102804494D01*
X139869502Y-102694180D01*
X139905812Y-102574482D01*
X139918072Y-102450000D01*
X139915000Y-101885750D01*
X139756250Y-101727000D01*
X135303750Y-101727000D01*
X135145000Y-101885750D01*
X135141928Y-102450000D01*
X133139501Y-102450000D01*
X135283515Y-100305987D01*
X135303222Y-100330000D01*
X135249463Y-100395506D01*
X135190498Y-100505820D01*
X135154188Y-100625518D01*
X135141928Y-100750000D01*
X135145000Y-101314250D01*
X135303750Y-101473000D01*
X139756250Y-101473000D01*
X139915000Y-101314250D01*
X139918072Y-100750000D01*
X139905812Y-100625518D01*
X139869502Y-100505820D01*
X139810537Y-100395506D01*
X139756778Y-100330000D01*
X139810537Y-100264494D01*
X139869502Y-100154180D01*
X139905812Y-100034482D01*
X139918072Y-99910000D01*
X139918072Y-98210000D01*
X139905812Y-98085518D01*
X139869502Y-97965820D01*
X139810537Y-97855506D01*
X139756778Y-97790000D01*
X139810537Y-97724494D01*
X139869502Y-97614180D01*
X139905812Y-97494482D01*
X139918072Y-97370000D01*
X139918072Y-95670000D01*
X139905812Y-95545518D01*
X139869502Y-95425820D01*
X139810537Y-95315506D01*
X139756778Y-95250000D01*
X139810537Y-95184494D01*
X139869502Y-95074180D01*
X139905812Y-94954482D01*
X139918072Y-94830000D01*
X139918072Y-93130000D01*
X139905812Y-93005518D01*
X139869502Y-92885820D01*
X139810537Y-92775506D01*
X139756778Y-92710000D01*
X139810537Y-92644494D01*
X139869502Y-92534180D01*
X139905812Y-92414482D01*
X139918072Y-92290000D01*
X139918072Y-90590000D01*
X139905812Y-90465518D01*
X139869502Y-90345820D01*
X139810537Y-90235506D01*
X139756778Y-90170000D01*
X139810537Y-90104494D01*
X139869502Y-89994180D01*
X139905812Y-89874482D01*
X139918072Y-89750000D01*
X139915000Y-89185750D01*
X139756250Y-89027000D01*
X137383000Y-89027000D01*
X137383000Y-88773000D01*
X139756250Y-88773000D01*
X139915000Y-88614250D01*
X139918072Y-88050000D01*
X139905812Y-87925518D01*
X139869502Y-87805820D01*
X139810537Y-87695506D01*
X139756778Y-87630000D01*
X139810537Y-87564494D01*
X139869502Y-87454180D01*
X139905812Y-87334482D01*
X139918072Y-87210000D01*
X139918072Y-85510000D01*
X139905812Y-85385518D01*
X139869502Y-85265820D01*
X139810537Y-85155506D01*
X139756778Y-85090000D01*
X139810537Y-85024494D01*
X139869502Y-84914180D01*
X139905812Y-84794482D01*
X139918072Y-84670000D01*
X139918072Y-82970000D01*
X139905812Y-82845518D01*
X139869502Y-82725820D01*
X139810537Y-82615506D01*
X139756778Y-82550000D01*
X139810537Y-82484494D01*
X139869502Y-82374180D01*
X139905812Y-82254482D01*
X139918072Y-82130000D01*
X139918072Y-80430000D01*
X139905812Y-80305518D01*
X139869502Y-80185820D01*
X139810537Y-80075506D01*
X139756778Y-80010000D01*
X139810537Y-79944494D01*
X139869502Y-79834180D01*
X139905812Y-79714482D01*
X139918072Y-79590000D01*
X139918072Y-77890000D01*
X139905812Y-77765518D01*
X139869502Y-77645820D01*
X139810537Y-77535506D01*
X139756778Y-77470000D01*
X139810537Y-77404494D01*
X139869502Y-77294180D01*
X139905812Y-77174482D01*
X139918072Y-77050000D01*
X139915000Y-76485750D01*
X139756250Y-76327000D01*
X135303750Y-76327000D01*
X135145000Y-76485750D01*
X135141928Y-77050000D01*
X135154188Y-77174482D01*
X135176353Y-77247550D01*
X130631074Y-72702273D01*
X130648977Y-72684370D01*
X130532704Y-72568097D01*
X130776671Y-72496514D01*
X130897571Y-72241004D01*
X130966300Y-71966816D01*
X130980217Y-71684488D01*
X130938787Y-71404870D01*
X130843603Y-71138708D01*
X130776671Y-71013486D01*
X130532702Y-70941903D01*
X129719605Y-71755000D01*
X129733748Y-71769143D01*
X129554143Y-71948748D01*
X129540000Y-71934605D01*
X129525858Y-71948748D01*
X129346253Y-71769143D01*
X129360395Y-71755000D01*
X128547298Y-70941903D01*
X128303329Y-71013486D01*
X128182429Y-71268996D01*
X128113700Y-71543184D01*
X128099783Y-71825512D01*
X128141213Y-72105130D01*
X128236397Y-72371292D01*
X128303329Y-72496514D01*
X128547296Y-72568097D01*
X128528800Y-72586593D01*
X128522404Y-72591842D01*
X128483099Y-72624099D01*
X128459301Y-72653097D01*
X127389998Y-73722401D01*
X127361000Y-73746199D01*
X127337202Y-73775197D01*
X127337201Y-73775198D01*
X127266026Y-73861924D01*
X127195454Y-73993954D01*
X127169353Y-74080000D01*
X127151998Y-74137214D01*
X127141001Y-74248867D01*
X127137324Y-74286200D01*
X127141001Y-74323533D01*
X127141000Y-90398678D01*
X127137324Y-90436000D01*
X127141000Y-90473322D01*
X127141000Y-90473332D01*
X127151997Y-90584985D01*
X127179704Y-90676323D01*
X127195454Y-90728246D01*
X127266026Y-90860276D01*
X127298626Y-90899999D01*
X127360999Y-90976001D01*
X127390003Y-90999804D01*
X128141312Y-91751114D01*
X128105000Y-91933665D01*
X128105000Y-92216335D01*
X128160147Y-92493574D01*
X128268320Y-92754727D01*
X128425363Y-92989759D01*
X128623961Y-93188357D01*
X128615518Y-93189188D01*
X128495820Y-93225498D01*
X128385506Y-93284463D01*
X128288815Y-93363815D01*
X128209463Y-93460506D01*
X128150498Y-93570820D01*
X128114188Y-93690518D01*
X128101928Y-93815000D01*
X128105000Y-94329250D01*
X128263750Y-94488000D01*
X129413000Y-94488000D01*
X129413000Y-94468000D01*
X129667000Y-94468000D01*
X129667000Y-94488000D01*
X130816250Y-94488000D01*
X130975000Y-94329250D01*
X130978072Y-93815000D01*
X130965812Y-93690518D01*
X130929502Y-93570820D01*
X130870537Y-93460506D01*
X130791185Y-93363815D01*
X130694494Y-93284463D01*
X130584180Y-93225498D01*
X130464482Y-93189188D01*
X130456039Y-93188357D01*
X130654637Y-92989759D01*
X130811680Y-92754727D01*
X130919853Y-92493574D01*
X130975000Y-92216335D01*
X130975000Y-91933665D01*
X130919853Y-91656426D01*
X130811680Y-91395273D01*
X130654637Y-91160241D01*
X130454759Y-90960363D01*
X130222241Y-90805000D01*
X130454759Y-90649637D01*
X130654637Y-90449759D01*
X130811680Y-90214727D01*
X130919853Y-89953574D01*
X130975000Y-89676335D01*
X130975000Y-89393665D01*
X130919853Y-89116426D01*
X130811680Y-88855273D01*
X130654637Y-88620241D01*
X130454759Y-88420363D01*
X130222241Y-88265000D01*
X130454759Y-88109637D01*
X130654637Y-87909759D01*
X130811680Y-87674727D01*
X130919853Y-87413574D01*
X130925993Y-87382708D01*
X133388201Y-84920501D01*
X133388200Y-92636178D01*
X133384524Y-92673500D01*
X133388200Y-92710822D01*
X133388200Y-92710832D01*
X133399197Y-92822485D01*
X133430294Y-92925000D01*
X133442654Y-92965746D01*
X133513226Y-93097776D01*
X133539672Y-93130000D01*
X133608199Y-93213501D01*
X133637203Y-93237304D01*
X134890901Y-94491003D01*
X134914699Y-94520001D01*
X134943697Y-94543799D01*
X135030423Y-94614974D01*
X135141928Y-94674575D01*
X135141928Y-94830000D01*
X135154188Y-94954482D01*
X135190498Y-95074180D01*
X135249463Y-95184494D01*
X135303222Y-95250000D01*
X135249463Y-95315506D01*
X135190498Y-95425820D01*
X135154188Y-95545518D01*
X135141928Y-95670000D01*
X135141928Y-95825425D01*
X135030424Y-95885026D01*
X134914699Y-95979999D01*
X134890901Y-96008997D01*
X130792768Y-100107131D01*
X130811904Y-100044039D01*
X130689915Y-99822000D01*
X129547000Y-99822000D01*
X129547000Y-100965624D01*
X129769040Y-101086909D01*
X129837508Y-101062391D01*
X126997303Y-103902596D01*
X126968299Y-103926399D01*
X126915271Y-103991014D01*
X126873326Y-104042124D01*
X126821010Y-104140000D01*
X126802754Y-104174154D01*
X126759297Y-104317415D01*
X126748300Y-104429068D01*
X126748300Y-104429078D01*
X126744624Y-104466400D01*
X126748300Y-104503722D01*
X126748301Y-126099500D01*
X126490000Y-125841199D01*
X126490000Y-100044039D01*
X128028096Y-100044039D01*
X128068754Y-100178087D01*
X128188963Y-100432420D01*
X128356481Y-100658414D01*
X128564869Y-100847385D01*
X128806119Y-100992070D01*
X129070960Y-101086909D01*
X129293000Y-100965624D01*
X129293000Y-99822000D01*
X128150085Y-99822000D01*
X128028096Y-100044039D01*
X126490000Y-100044039D01*
X126490000Y-99345961D01*
X128028096Y-99345961D01*
X128150085Y-99568000D01*
X129293000Y-99568000D01*
X129293000Y-98424376D01*
X129547000Y-98424376D01*
X129547000Y-99568000D01*
X130689915Y-99568000D01*
X130811904Y-99345961D01*
X130771246Y-99211913D01*
X130651037Y-98957580D01*
X130483519Y-98731586D01*
X130275131Y-98542615D01*
X130033881Y-98397930D01*
X129769040Y-98303091D01*
X129547000Y-98424376D01*
X129293000Y-98424376D01*
X129070960Y-98303091D01*
X128806119Y-98397930D01*
X128564869Y-98542615D01*
X128356481Y-98731586D01*
X128188963Y-98957580D01*
X128068754Y-99211913D01*
X128028096Y-99345961D01*
X126490000Y-99345961D01*
X126490000Y-96799533D01*
X126493677Y-96762200D01*
X126479003Y-96613214D01*
X126435546Y-96469953D01*
X126364974Y-96337924D01*
X126293799Y-96251197D01*
X126270001Y-96222199D01*
X126241004Y-96198402D01*
X125457602Y-95415000D01*
X128101928Y-95415000D01*
X128114188Y-95539482D01*
X128150498Y-95659180D01*
X128209463Y-95769494D01*
X128288815Y-95866185D01*
X128385506Y-95945537D01*
X128495820Y-96004502D01*
X128615518Y-96040812D01*
X128740000Y-96053072D01*
X129254250Y-96050000D01*
X129413000Y-95891250D01*
X129413000Y-94742000D01*
X129667000Y-94742000D01*
X129667000Y-95891250D01*
X129825750Y-96050000D01*
X130340000Y-96053072D01*
X130464482Y-96040812D01*
X130584180Y-96004502D01*
X130694494Y-95945537D01*
X130791185Y-95866185D01*
X130870537Y-95769494D01*
X130929502Y-95659180D01*
X130965812Y-95539482D01*
X130978072Y-95415000D01*
X130975000Y-94900750D01*
X130816250Y-94742000D01*
X129667000Y-94742000D01*
X129413000Y-94742000D01*
X128263750Y-94742000D01*
X128105000Y-94900750D01*
X128101928Y-95415000D01*
X125457602Y-95415000D01*
X122926616Y-92884015D01*
X123156671Y-92816514D01*
X123277571Y-92561004D01*
X123346300Y-92286816D01*
X123360217Y-92004488D01*
X123318787Y-91724870D01*
X123223603Y-91458708D01*
X123156671Y-91333486D01*
X122912702Y-91261903D01*
X122099605Y-92075000D01*
X122113748Y-92089143D01*
X121934143Y-92268748D01*
X121920000Y-92254605D01*
X121905858Y-92268748D01*
X121726253Y-92089143D01*
X121740395Y-92075000D01*
X121726253Y-92060858D01*
X121905858Y-91881253D01*
X121920000Y-91895395D01*
X122733097Y-91082298D01*
X122661514Y-90838329D01*
X122597008Y-90807806D01*
X122599727Y-90806680D01*
X122834759Y-90649637D01*
X123034637Y-90449759D01*
X123191680Y-90214727D01*
X123299853Y-89953574D01*
X123355000Y-89676335D01*
X123355000Y-89393665D01*
X123299853Y-89116426D01*
X123191680Y-88855273D01*
X123034637Y-88620241D01*
X123015599Y-88601203D01*
X124074403Y-87542399D01*
X124103401Y-87518601D01*
X124198374Y-87402876D01*
X124268946Y-87270847D01*
X124312403Y-87127586D01*
X124323400Y-87015933D01*
X124323400Y-87015924D01*
X124327076Y-86978601D01*
X124323400Y-86941278D01*
X124323400Y-74351723D01*
X124327076Y-74314400D01*
X124323400Y-74277077D01*
X124323400Y-74277067D01*
X124312403Y-74165414D01*
X124268946Y-74022153D01*
X124198375Y-73890125D01*
X124198374Y-73890123D01*
X124127199Y-73803397D01*
X124103401Y-73774399D01*
X124074404Y-73750602D01*
X123014099Y-72690297D01*
X123034637Y-72669759D01*
X123191680Y-72434727D01*
X123299853Y-72173574D01*
X123355000Y-71896335D01*
X123355000Y-71613665D01*
X123299853Y-71336426D01*
X123191680Y-71075273D01*
X123034637Y-70840241D01*
X122956694Y-70762298D01*
X128726903Y-70762298D01*
X129540000Y-71575395D01*
X130353097Y-70762298D01*
X130281514Y-70518329D01*
X130026004Y-70397429D01*
X129751816Y-70328700D01*
X129469488Y-70314783D01*
X129189870Y-70356213D01*
X128923708Y-70451397D01*
X128798486Y-70518329D01*
X128726903Y-70762298D01*
X122956694Y-70762298D01*
X122834759Y-70640363D01*
X122599727Y-70483320D01*
X122338574Y-70375147D01*
X122061335Y-70320000D01*
X121778665Y-70320000D01*
X121501426Y-70375147D01*
X121240273Y-70483320D01*
X121005241Y-70640363D01*
X120805363Y-70840241D01*
X120648320Y-71075273D01*
X120540147Y-71336426D01*
X120485000Y-71613665D01*
X120485000Y-71896335D01*
X120540147Y-72173574D01*
X120578017Y-72265000D01*
X120235103Y-72265000D01*
X118240102Y-70270000D01*
X135141928Y-70270000D01*
X135141928Y-71970000D01*
X135154188Y-72094482D01*
X135190498Y-72214180D01*
X135249463Y-72324494D01*
X135303222Y-72390000D01*
X135249463Y-72455506D01*
X135190498Y-72565820D01*
X135154188Y-72685518D01*
X135141928Y-72810000D01*
X135141928Y-74510000D01*
X135154188Y-74634482D01*
X135190498Y-74754180D01*
X135249463Y-74864494D01*
X135303222Y-74930000D01*
X135249463Y-74995506D01*
X135190498Y-75105820D01*
X135154188Y-75225518D01*
X135141928Y-75350000D01*
X135145000Y-75914250D01*
X135303750Y-76073000D01*
X139756250Y-76073000D01*
X139915000Y-75914250D01*
X139918072Y-75350000D01*
X139905812Y-75225518D01*
X139869502Y-75105820D01*
X139810537Y-74995506D01*
X139756778Y-74930000D01*
X139810537Y-74864494D01*
X139869502Y-74754180D01*
X139905812Y-74634482D01*
X139918072Y-74510000D01*
X139918072Y-72810000D01*
X139905812Y-72685518D01*
X139869502Y-72565820D01*
X139810537Y-72455506D01*
X139756778Y-72390000D01*
X139810537Y-72324494D01*
X139869502Y-72214180D01*
X139905812Y-72094482D01*
X139918072Y-71970000D01*
X139918072Y-71098816D01*
X143060000Y-71098816D01*
X143060000Y-71401184D01*
X143118989Y-71697743D01*
X143234701Y-71977095D01*
X143383000Y-72199040D01*
X143383000Y-84455000D01*
X143385440Y-84479776D01*
X143392667Y-84503601D01*
X143404403Y-84525557D01*
X143420197Y-84544803D01*
X143439443Y-84560597D01*
X143461399Y-84572333D01*
X143485224Y-84579560D01*
X143510000Y-84582000D01*
X146685000Y-84582000D01*
X146709776Y-84579560D01*
X146733601Y-84572333D01*
X146755557Y-84560597D01*
X146774803Y-84544803D01*
X146790597Y-84525557D01*
X146802333Y-84503601D01*
X146809560Y-84479776D01*
X146812000Y-84455000D01*
X146812000Y-76864980D01*
X147398490Y-75692000D01*
X151765000Y-75692000D01*
X151789776Y-75689560D01*
X151813601Y-75682333D01*
X151835557Y-75670597D01*
X151854803Y-75654803D01*
X151870597Y-75635557D01*
X151882333Y-75613601D01*
X151889560Y-75589776D01*
X151892000Y-75565000D01*
X151892000Y-70270000D01*
X154721928Y-70270000D01*
X154721928Y-71970000D01*
X154734188Y-72094482D01*
X154770498Y-72214180D01*
X154829463Y-72324494D01*
X154883222Y-72390000D01*
X154829463Y-72455506D01*
X154770498Y-72565820D01*
X154734188Y-72685518D01*
X154721928Y-72810000D01*
X154721928Y-74510000D01*
X154734188Y-74634482D01*
X154770498Y-74754180D01*
X154829463Y-74864494D01*
X154883222Y-74930000D01*
X154829463Y-74995506D01*
X154770498Y-75105820D01*
X154734188Y-75225518D01*
X154721928Y-75350000D01*
X154725000Y-75914250D01*
X154883750Y-76073000D01*
X159336250Y-76073000D01*
X159495000Y-75914250D01*
X159498072Y-75350000D01*
X159485812Y-75225518D01*
X159449502Y-75105820D01*
X159390537Y-74995506D01*
X159336778Y-74930000D01*
X159390537Y-74864494D01*
X159449502Y-74754180D01*
X159485812Y-74634482D01*
X159498072Y-74510000D01*
X159498072Y-72810000D01*
X159485812Y-72685518D01*
X159449502Y-72565820D01*
X159390537Y-72455506D01*
X159336778Y-72390000D01*
X159390537Y-72324494D01*
X159449502Y-72214180D01*
X159485812Y-72094482D01*
X159498072Y-71970000D01*
X159498072Y-70270000D01*
X159485812Y-70145518D01*
X159449502Y-70025820D01*
X159390537Y-69915506D01*
X159311185Y-69818815D01*
X159214494Y-69739463D01*
X159104180Y-69680498D01*
X158984482Y-69644188D01*
X158860000Y-69631928D01*
X155360000Y-69631928D01*
X155235518Y-69644188D01*
X155115820Y-69680498D01*
X155005506Y-69739463D01*
X154908815Y-69818815D01*
X154829463Y-69915506D01*
X154770498Y-70025820D01*
X154734188Y-70145518D01*
X154721928Y-70270000D01*
X151892000Y-70270000D01*
X151892000Y-69850000D01*
X151889560Y-69825224D01*
X151882333Y-69801399D01*
X151870597Y-69779443D01*
X151854803Y-69760197D01*
X151835557Y-69744403D01*
X151813601Y-69732667D01*
X151789776Y-69725440D01*
X151765000Y-69723000D01*
X150236403Y-69723000D01*
X150196184Y-69715000D01*
X149893816Y-69715000D01*
X149853597Y-69723000D01*
X144786403Y-69723000D01*
X144746184Y-69715000D01*
X144443816Y-69715000D01*
X144403597Y-69723000D01*
X143510000Y-69723000D01*
X143485224Y-69725440D01*
X143461399Y-69732667D01*
X143439443Y-69744403D01*
X143420197Y-69760197D01*
X143404403Y-69779443D01*
X143392667Y-69801399D01*
X143385440Y-69825224D01*
X143383000Y-69850000D01*
X143383000Y-70300960D01*
X143234701Y-70522905D01*
X143118989Y-70802257D01*
X143060000Y-71098816D01*
X139918072Y-71098816D01*
X139918072Y-70270000D01*
X139905812Y-70145518D01*
X139869502Y-70025820D01*
X139810537Y-69915506D01*
X139731185Y-69818815D01*
X139634494Y-69739463D01*
X139524180Y-69680498D01*
X139404482Y-69644188D01*
X139280000Y-69631928D01*
X135780000Y-69631928D01*
X135655518Y-69644188D01*
X135535820Y-69680498D01*
X135425506Y-69739463D01*
X135328815Y-69818815D01*
X135249463Y-69915506D01*
X135190498Y-70025820D01*
X135154188Y-70145518D01*
X135141928Y-70270000D01*
X118240102Y-70270000D01*
X117944104Y-69974003D01*
X117920301Y-69944999D01*
X117804576Y-69850026D01*
X117672547Y-69779454D01*
X117529286Y-69735997D01*
X117487796Y-69731911D01*
X117358475Y-69538368D01*
X117151632Y-69331525D01*
X116908411Y-69169010D01*
X116638158Y-69057068D01*
X116351260Y-69000000D01*
X116058740Y-69000000D01*
X115771842Y-69057068D01*
X115501589Y-69169010D01*
X115258368Y-69331525D01*
X115051525Y-69538368D01*
X114935000Y-69712760D01*
X114818475Y-69538368D01*
X114611632Y-69331525D01*
X114368411Y-69169010D01*
X114098158Y-69057068D01*
X113811260Y-69000000D01*
X113518740Y-69000000D01*
X113231842Y-69057068D01*
X112961589Y-69169010D01*
X112718368Y-69331525D01*
X112511525Y-69538368D01*
X112349010Y-69781589D01*
X112237068Y-70051842D01*
X112180000Y-70338740D01*
X112180000Y-70631260D01*
X112237068Y-70918158D01*
X112349010Y-71188411D01*
X112488310Y-71396888D01*
X111487798Y-72397401D01*
X111458800Y-72421199D01*
X111435002Y-72450197D01*
X111435001Y-72450198D01*
X111363826Y-72536924D01*
X111293254Y-72668954D01*
X111271757Y-72739824D01*
X111249798Y-72812214D01*
X111244142Y-72869637D01*
X111235124Y-72961200D01*
X110515000Y-72961200D01*
X110515000Y-69879392D01*
X110587437Y-69067751D01*
X110794672Y-68310226D01*
X111132777Y-67601375D01*
X111591067Y-66963596D01*
X112155055Y-66417054D01*
X112806913Y-65979023D01*
X113526038Y-65663349D01*
X114294768Y-65478794D01*
X114959207Y-65430000D01*
X159355608Y-65430000D01*
X160167249Y-65502437D01*
G36*
X115082000Y-102362000D02*
G01*
X115062000Y-102362000D01*
X115062000Y-102382000D01*
X114808000Y-102382000D01*
X114808000Y-102362000D01*
X114788000Y-102362000D01*
X114788000Y-102125000D01*
X115082000Y-102125000D01*
X115082000Y-102362000D01*
G37*
X115082000Y-102362000D02*
X115062000Y-102362000D01*
X115062000Y-102382000D01*
X114808000Y-102382000D01*
X114808000Y-102362000D01*
X114788000Y-102362000D01*
X114788000Y-102125000D01*
X115082000Y-102125000D01*
X115082000Y-102362000D01*
G36*
X113792000Y-80518000D02*
G01*
X113812000Y-80518000D01*
X113812000Y-80772000D01*
X113792000Y-80772000D01*
X113792000Y-80792000D01*
X113538000Y-80792000D01*
X113538000Y-80772000D01*
X113518000Y-80772000D01*
X113518000Y-80518000D01*
X113538000Y-80518000D01*
X113538000Y-80498000D01*
X113792000Y-80498000D01*
X113792000Y-80518000D01*
G37*
X113792000Y-80518000D02*
X113812000Y-80518000D01*
X113812000Y-80772000D01*
X113792000Y-80772000D01*
X113792000Y-80792000D01*
X113538000Y-80792000D01*
X113538000Y-80772000D01*
X113518000Y-80772000D01*
X113518000Y-80518000D01*
X113538000Y-80518000D01*
X113538000Y-80498000D01*
X113792000Y-80498000D01*
X113792000Y-80518000D01*
M02*
