M48
; DRILL file {KiCad 5.1.5+dfsg1-2build2} date Thu 04 Mar 2021 20:12:08 GMT
; FORMAT={-:-/ absolute / inch / decimal}
; #@! TF.CreationDate,2021-03-04T20:12:08+00:00
; #@! TF.GenerationSoftware,Kicad,Pcbnew,5.1.5+dfsg1-2build2
; #@! TF.FileFunction,Plated,1,2,PTH
FMAT,2
INCH
T1C0.0157
T2C0.0295
T3C0.0315
T4C0.0394
T5C0.0402
%
G90
G05
T1
X4.5066Y-3.525
X4.6213Y-4.106
X4.655Y-3.2324
X4.7038Y-3.4972
X4.7193Y-3.2506
X4.7668Y-2.9801
X5.1881Y-3.2293
X5.2529Y-3.2996
T2
X4.525Y-3.925
X4.525Y-3.975
X4.525Y-4.025
T3
X4.8Y-5.35
X5.0953Y-5.35
X4.8Y-3.925
X5.0953Y-3.925
T4
X5.4Y-4.975
X5.5Y-4.975
X5.6Y-4.975
X5.7Y-4.975
X5.8Y-4.975
X5.9Y-4.975
X6.0Y-4.975
X6.1Y-4.975
X6.2Y-4.975
X4.8Y-4.25
X4.8Y-4.35
X4.8Y-4.45
X4.8Y-4.55
X4.8Y-4.65
X4.8Y-4.75
X4.8Y-4.85
X4.8Y-4.95
X4.8Y-5.05
X4.8Y-5.15
X5.1Y-4.25
X5.1Y-4.35
X5.1Y-4.45
X5.1Y-4.55
X5.1Y-4.65
X5.1Y-4.75
X5.1Y-4.85
X5.1Y-4.95
X5.1Y-5.05
X5.1Y-5.15
X4.8Y-2.825
X4.8Y-2.925
X4.8Y-3.025
X4.8Y-3.125
X4.8Y-3.225
X4.8Y-3.325
X4.8Y-3.425
X4.8Y-3.525
X4.8Y-3.625
X4.8Y-3.725
X5.1Y-2.825
X5.1Y-2.925
X5.1Y-3.025
X5.1Y-3.125
X5.1Y-3.225
X5.1Y-3.325
X5.1Y-3.425
X5.1Y-3.525
X5.1Y-3.625
X5.1Y-3.725
X4.475Y-2.775
X4.475Y-2.875
X4.475Y-2.975
X4.475Y-3.075
X4.475Y-3.175
X4.475Y-3.275
X4.475Y-3.375
X4.475Y-3.475
X4.475Y-3.575
X4.475Y-3.675
X4.575Y-2.775
X4.575Y-2.875
X4.575Y-2.975
X4.575Y-3.075
X4.575Y-3.175
X4.575Y-3.275
X4.575Y-3.375
X4.575Y-3.475
X4.575Y-3.575
X4.575Y-3.675
T5
X5.45Y-2.8
X5.45Y-2.9
X5.45Y-3.0
X5.45Y-3.1
X5.45Y-3.2
X5.45Y-3.3
X5.45Y-3.4
X5.45Y-3.5
X5.45Y-3.6
X5.45Y-3.7
X5.45Y-3.8
X5.45Y-3.9
X5.45Y-4.0
X5.45Y-4.1
X5.45Y-4.2
X5.45Y-4.3
X5.45Y-4.4
X5.45Y-4.5
X5.45Y-4.6
X5.45Y-4.7
X5.7Y-4.6909
X5.8Y-4.6909
X5.9Y-4.6909
X6.15Y-2.8
X6.15Y-2.9
X6.15Y-3.0
X6.15Y-3.1
X6.15Y-3.2
X6.15Y-3.3
X6.15Y-3.4
X6.15Y-3.5
X6.15Y-3.6
X6.15Y-3.7
X6.15Y-3.8
X6.15Y-3.9
X6.15Y-4.0
X6.15Y-4.1
X6.15Y-4.2
X6.15Y-4.3
X6.15Y-4.4
X6.15Y-4.5
X6.15Y-4.6
X6.15Y-4.7
T0
M30
