G04 #@! TF.GenerationSoftware,KiCad,Pcbnew,5.1.5+dfsg1-2build2*
G04 #@! TF.CreationDate,2021-03-04T20:11:05+00:00*
G04 #@! TF.ProjectId,PicoMMC,5069636f-4d4d-4432-9e6b-696361645f70,rev?*
G04 #@! TF.SameCoordinates,Original*
G04 #@! TF.FileFunction,Soldermask,Bot*
G04 #@! TF.FilePolarity,Negative*
%FSLAX46Y46*%
G04 Gerber Fmt 4.6, Leading zero omitted, Abs format (unit mm)*
G04 Created by KiCad (PCBNEW 5.1.5+dfsg1-2build2) date 2021-03-04 20:11:05*
%MOMM*%
%LPD*%
G04 APERTURE LIST*
%ADD10C,0.100000*%
G04 APERTURE END LIST*
D10*
G36*
X129668228Y-135071703D02*
G01*
X129823100Y-135135853D01*
X129962481Y-135228985D01*
X130081015Y-135347519D01*
X130174147Y-135486900D01*
X130238297Y-135641772D01*
X130271000Y-135806184D01*
X130271000Y-135973816D01*
X130238297Y-136138228D01*
X130174147Y-136293100D01*
X130081015Y-136432481D01*
X129962481Y-136551015D01*
X129823100Y-136644147D01*
X129668228Y-136708297D01*
X129503816Y-136741000D01*
X129336184Y-136741000D01*
X129171772Y-136708297D01*
X129016900Y-136644147D01*
X128877519Y-136551015D01*
X128758985Y-136432481D01*
X128665853Y-136293100D01*
X128601703Y-136138228D01*
X128569000Y-135973816D01*
X128569000Y-135806184D01*
X128601703Y-135641772D01*
X128665853Y-135486900D01*
X128758985Y-135347519D01*
X128877519Y-135228985D01*
X129016900Y-135135853D01*
X129171772Y-135071703D01*
X129336184Y-135039000D01*
X129503816Y-135039000D01*
X129668228Y-135071703D01*
G37*
G36*
X122168228Y-135071703D02*
G01*
X122323100Y-135135853D01*
X122462481Y-135228985D01*
X122581015Y-135347519D01*
X122674147Y-135486900D01*
X122738297Y-135641772D01*
X122771000Y-135806184D01*
X122771000Y-135973816D01*
X122738297Y-136138228D01*
X122674147Y-136293100D01*
X122581015Y-136432481D01*
X122462481Y-136551015D01*
X122323100Y-136644147D01*
X122168228Y-136708297D01*
X122003816Y-136741000D01*
X121836184Y-136741000D01*
X121671772Y-136708297D01*
X121516900Y-136644147D01*
X121377519Y-136551015D01*
X121258985Y-136432481D01*
X121165853Y-136293100D01*
X121101703Y-136138228D01*
X121069000Y-135973816D01*
X121069000Y-135806184D01*
X121101703Y-135641772D01*
X121165853Y-135486900D01*
X121258985Y-135347519D01*
X121377519Y-135228985D01*
X121516900Y-135135853D01*
X121671772Y-135071703D01*
X121836184Y-135039000D01*
X122003816Y-135039000D01*
X122168228Y-135071703D01*
G37*
G36*
X130391000Y-131661000D02*
G01*
X128689000Y-131661000D01*
X128689000Y-129959000D01*
X130391000Y-129959000D01*
X130391000Y-131661000D01*
G37*
G36*
X122168228Y-129991703D02*
G01*
X122323100Y-130055853D01*
X122462481Y-130148985D01*
X122581015Y-130267519D01*
X122674147Y-130406900D01*
X122738297Y-130561772D01*
X122771000Y-130726184D01*
X122771000Y-130893816D01*
X122738297Y-131058228D01*
X122674147Y-131213100D01*
X122581015Y-131352481D01*
X122462481Y-131471015D01*
X122323100Y-131564147D01*
X122168228Y-131628297D01*
X122003816Y-131661000D01*
X121836184Y-131661000D01*
X121671772Y-131628297D01*
X121516900Y-131564147D01*
X121377519Y-131471015D01*
X121258985Y-131352481D01*
X121165853Y-131213100D01*
X121101703Y-131058228D01*
X121069000Y-130893816D01*
X121069000Y-130726184D01*
X121101703Y-130561772D01*
X121165853Y-130406900D01*
X121258985Y-130267519D01*
X121377519Y-130148985D01*
X121516900Y-130055853D01*
X121671772Y-129991703D01*
X121836184Y-129959000D01*
X122003816Y-129959000D01*
X122168228Y-129991703D01*
G37*
G36*
X129788228Y-127451703D02*
G01*
X129943100Y-127515853D01*
X130082481Y-127608985D01*
X130201015Y-127727519D01*
X130294147Y-127866900D01*
X130358297Y-128021772D01*
X130391000Y-128186184D01*
X130391000Y-128353816D01*
X130358297Y-128518228D01*
X130294147Y-128673100D01*
X130201015Y-128812481D01*
X130082481Y-128931015D01*
X129943100Y-129024147D01*
X129788228Y-129088297D01*
X129623816Y-129121000D01*
X129456184Y-129121000D01*
X129291772Y-129088297D01*
X129136900Y-129024147D01*
X128997519Y-128931015D01*
X128878985Y-128812481D01*
X128785853Y-128673100D01*
X128721703Y-128518228D01*
X128689000Y-128353816D01*
X128689000Y-128186184D01*
X128721703Y-128021772D01*
X128785853Y-127866900D01*
X128878985Y-127727519D01*
X128997519Y-127608985D01*
X129136900Y-127515853D01*
X129291772Y-127451703D01*
X129456184Y-127419000D01*
X129623816Y-127419000D01*
X129788228Y-127451703D01*
G37*
G36*
X122168228Y-127451703D02*
G01*
X122323100Y-127515853D01*
X122462481Y-127608985D01*
X122581015Y-127727519D01*
X122674147Y-127866900D01*
X122738297Y-128021772D01*
X122771000Y-128186184D01*
X122771000Y-128353816D01*
X122738297Y-128518228D01*
X122674147Y-128673100D01*
X122581015Y-128812481D01*
X122462481Y-128931015D01*
X122323100Y-129024147D01*
X122168228Y-129088297D01*
X122003816Y-129121000D01*
X121836184Y-129121000D01*
X121671772Y-129088297D01*
X121516900Y-129024147D01*
X121377519Y-128931015D01*
X121258985Y-128812481D01*
X121165853Y-128673100D01*
X121101703Y-128518228D01*
X121069000Y-128353816D01*
X121069000Y-128186184D01*
X121101703Y-128021772D01*
X121165853Y-127866900D01*
X121258985Y-127727519D01*
X121377519Y-127608985D01*
X121516900Y-127515853D01*
X121671772Y-127451703D01*
X121836184Y-127419000D01*
X122003816Y-127419000D01*
X122168228Y-127451703D01*
G37*
G36*
X158381000Y-127266000D02*
G01*
X156579000Y-127266000D01*
X156579000Y-125464000D01*
X158381000Y-125464000D01*
X158381000Y-127266000D01*
G37*
G36*
X155053512Y-125468927D02*
G01*
X155202812Y-125498624D01*
X155366784Y-125566544D01*
X155514354Y-125665147D01*
X155639853Y-125790646D01*
X155738456Y-125938216D01*
X155806376Y-126102188D01*
X155841000Y-126276259D01*
X155841000Y-126453741D01*
X155806376Y-126627812D01*
X155738456Y-126791784D01*
X155639853Y-126939354D01*
X155514354Y-127064853D01*
X155366784Y-127163456D01*
X155202812Y-127231376D01*
X155053512Y-127261073D01*
X155028742Y-127266000D01*
X154851258Y-127266000D01*
X154826488Y-127261073D01*
X154677188Y-127231376D01*
X154513216Y-127163456D01*
X154365646Y-127064853D01*
X154240147Y-126939354D01*
X154141544Y-126791784D01*
X154073624Y-126627812D01*
X154039000Y-126453741D01*
X154039000Y-126276259D01*
X154073624Y-126102188D01*
X154141544Y-125938216D01*
X154240147Y-125790646D01*
X154365646Y-125665147D01*
X154513216Y-125566544D01*
X154677188Y-125498624D01*
X154826488Y-125468927D01*
X154851258Y-125464000D01*
X155028742Y-125464000D01*
X155053512Y-125468927D01*
G37*
G36*
X152513512Y-125468927D02*
G01*
X152662812Y-125498624D01*
X152826784Y-125566544D01*
X152974354Y-125665147D01*
X153099853Y-125790646D01*
X153198456Y-125938216D01*
X153266376Y-126102188D01*
X153301000Y-126276259D01*
X153301000Y-126453741D01*
X153266376Y-126627812D01*
X153198456Y-126791784D01*
X153099853Y-126939354D01*
X152974354Y-127064853D01*
X152826784Y-127163456D01*
X152662812Y-127231376D01*
X152513512Y-127261073D01*
X152488742Y-127266000D01*
X152311258Y-127266000D01*
X152286488Y-127261073D01*
X152137188Y-127231376D01*
X151973216Y-127163456D01*
X151825646Y-127064853D01*
X151700147Y-126939354D01*
X151601544Y-126791784D01*
X151533624Y-126627812D01*
X151499000Y-126453741D01*
X151499000Y-126276259D01*
X151533624Y-126102188D01*
X151601544Y-125938216D01*
X151700147Y-125790646D01*
X151825646Y-125665147D01*
X151973216Y-125566544D01*
X152137188Y-125498624D01*
X152286488Y-125468927D01*
X152311258Y-125464000D01*
X152488742Y-125464000D01*
X152513512Y-125468927D01*
G37*
G36*
X149973512Y-125468927D02*
G01*
X150122812Y-125498624D01*
X150286784Y-125566544D01*
X150434354Y-125665147D01*
X150559853Y-125790646D01*
X150658456Y-125938216D01*
X150726376Y-126102188D01*
X150761000Y-126276259D01*
X150761000Y-126453741D01*
X150726376Y-126627812D01*
X150658456Y-126791784D01*
X150559853Y-126939354D01*
X150434354Y-127064853D01*
X150286784Y-127163456D01*
X150122812Y-127231376D01*
X149973512Y-127261073D01*
X149948742Y-127266000D01*
X149771258Y-127266000D01*
X149746488Y-127261073D01*
X149597188Y-127231376D01*
X149433216Y-127163456D01*
X149285646Y-127064853D01*
X149160147Y-126939354D01*
X149061544Y-126791784D01*
X148993624Y-126627812D01*
X148959000Y-126453741D01*
X148959000Y-126276259D01*
X148993624Y-126102188D01*
X149061544Y-125938216D01*
X149160147Y-125790646D01*
X149285646Y-125665147D01*
X149433216Y-125566544D01*
X149597188Y-125498624D01*
X149746488Y-125468927D01*
X149771258Y-125464000D01*
X149948742Y-125464000D01*
X149973512Y-125468927D01*
G37*
G36*
X147433512Y-125468927D02*
G01*
X147582812Y-125498624D01*
X147746784Y-125566544D01*
X147894354Y-125665147D01*
X148019853Y-125790646D01*
X148118456Y-125938216D01*
X148186376Y-126102188D01*
X148221000Y-126276259D01*
X148221000Y-126453741D01*
X148186376Y-126627812D01*
X148118456Y-126791784D01*
X148019853Y-126939354D01*
X147894354Y-127064853D01*
X147746784Y-127163456D01*
X147582812Y-127231376D01*
X147433512Y-127261073D01*
X147408742Y-127266000D01*
X147231258Y-127266000D01*
X147206488Y-127261073D01*
X147057188Y-127231376D01*
X146893216Y-127163456D01*
X146745646Y-127064853D01*
X146620147Y-126939354D01*
X146521544Y-126791784D01*
X146453624Y-126627812D01*
X146419000Y-126453741D01*
X146419000Y-126276259D01*
X146453624Y-126102188D01*
X146521544Y-125938216D01*
X146620147Y-125790646D01*
X146745646Y-125665147D01*
X146893216Y-125566544D01*
X147057188Y-125498624D01*
X147206488Y-125468927D01*
X147231258Y-125464000D01*
X147408742Y-125464000D01*
X147433512Y-125468927D01*
G37*
G36*
X144893512Y-125468927D02*
G01*
X145042812Y-125498624D01*
X145206784Y-125566544D01*
X145354354Y-125665147D01*
X145479853Y-125790646D01*
X145578456Y-125938216D01*
X145646376Y-126102188D01*
X145681000Y-126276259D01*
X145681000Y-126453741D01*
X145646376Y-126627812D01*
X145578456Y-126791784D01*
X145479853Y-126939354D01*
X145354354Y-127064853D01*
X145206784Y-127163456D01*
X145042812Y-127231376D01*
X144893512Y-127261073D01*
X144868742Y-127266000D01*
X144691258Y-127266000D01*
X144666488Y-127261073D01*
X144517188Y-127231376D01*
X144353216Y-127163456D01*
X144205646Y-127064853D01*
X144080147Y-126939354D01*
X143981544Y-126791784D01*
X143913624Y-126627812D01*
X143879000Y-126453741D01*
X143879000Y-126276259D01*
X143913624Y-126102188D01*
X143981544Y-125938216D01*
X144080147Y-125790646D01*
X144205646Y-125665147D01*
X144353216Y-125566544D01*
X144517188Y-125498624D01*
X144666488Y-125468927D01*
X144691258Y-125464000D01*
X144868742Y-125464000D01*
X144893512Y-125468927D01*
G37*
G36*
X142353512Y-125468927D02*
G01*
X142502812Y-125498624D01*
X142666784Y-125566544D01*
X142814354Y-125665147D01*
X142939853Y-125790646D01*
X143038456Y-125938216D01*
X143106376Y-126102188D01*
X143141000Y-126276259D01*
X143141000Y-126453741D01*
X143106376Y-126627812D01*
X143038456Y-126791784D01*
X142939853Y-126939354D01*
X142814354Y-127064853D01*
X142666784Y-127163456D01*
X142502812Y-127231376D01*
X142353512Y-127261073D01*
X142328742Y-127266000D01*
X142151258Y-127266000D01*
X142126488Y-127261073D01*
X141977188Y-127231376D01*
X141813216Y-127163456D01*
X141665646Y-127064853D01*
X141540147Y-126939354D01*
X141441544Y-126791784D01*
X141373624Y-126627812D01*
X141339000Y-126453741D01*
X141339000Y-126276259D01*
X141373624Y-126102188D01*
X141441544Y-125938216D01*
X141540147Y-125790646D01*
X141665646Y-125665147D01*
X141813216Y-125566544D01*
X141977188Y-125498624D01*
X142126488Y-125468927D01*
X142151258Y-125464000D01*
X142328742Y-125464000D01*
X142353512Y-125468927D01*
G37*
G36*
X139813512Y-125468927D02*
G01*
X139962812Y-125498624D01*
X140126784Y-125566544D01*
X140274354Y-125665147D01*
X140399853Y-125790646D01*
X140498456Y-125938216D01*
X140566376Y-126102188D01*
X140601000Y-126276259D01*
X140601000Y-126453741D01*
X140566376Y-126627812D01*
X140498456Y-126791784D01*
X140399853Y-126939354D01*
X140274354Y-127064853D01*
X140126784Y-127163456D01*
X139962812Y-127231376D01*
X139813512Y-127261073D01*
X139788742Y-127266000D01*
X139611258Y-127266000D01*
X139586488Y-127261073D01*
X139437188Y-127231376D01*
X139273216Y-127163456D01*
X139125646Y-127064853D01*
X139000147Y-126939354D01*
X138901544Y-126791784D01*
X138833624Y-126627812D01*
X138799000Y-126453741D01*
X138799000Y-126276259D01*
X138833624Y-126102188D01*
X138901544Y-125938216D01*
X139000147Y-125790646D01*
X139125646Y-125665147D01*
X139273216Y-125566544D01*
X139437188Y-125498624D01*
X139586488Y-125468927D01*
X139611258Y-125464000D01*
X139788742Y-125464000D01*
X139813512Y-125468927D01*
G37*
G36*
X137273512Y-125468927D02*
G01*
X137422812Y-125498624D01*
X137586784Y-125566544D01*
X137734354Y-125665147D01*
X137859853Y-125790646D01*
X137958456Y-125938216D01*
X138026376Y-126102188D01*
X138061000Y-126276259D01*
X138061000Y-126453741D01*
X138026376Y-126627812D01*
X137958456Y-126791784D01*
X137859853Y-126939354D01*
X137734354Y-127064853D01*
X137586784Y-127163456D01*
X137422812Y-127231376D01*
X137273512Y-127261073D01*
X137248742Y-127266000D01*
X137071258Y-127266000D01*
X137046488Y-127261073D01*
X136897188Y-127231376D01*
X136733216Y-127163456D01*
X136585646Y-127064853D01*
X136460147Y-126939354D01*
X136361544Y-126791784D01*
X136293624Y-126627812D01*
X136259000Y-126453741D01*
X136259000Y-126276259D01*
X136293624Y-126102188D01*
X136361544Y-125938216D01*
X136460147Y-125790646D01*
X136585646Y-125665147D01*
X136733216Y-125566544D01*
X136897188Y-125498624D01*
X137046488Y-125468927D01*
X137071258Y-125464000D01*
X137248742Y-125464000D01*
X137273512Y-125468927D01*
G37*
G36*
X129788228Y-124911703D02*
G01*
X129943100Y-124975853D01*
X130082481Y-125068985D01*
X130201015Y-125187519D01*
X130294147Y-125326900D01*
X130358297Y-125481772D01*
X130391000Y-125646184D01*
X130391000Y-125813816D01*
X130358297Y-125978228D01*
X130294147Y-126133100D01*
X130201015Y-126272481D01*
X130082481Y-126391015D01*
X129943100Y-126484147D01*
X129788228Y-126548297D01*
X129623816Y-126581000D01*
X129456184Y-126581000D01*
X129291772Y-126548297D01*
X129136900Y-126484147D01*
X128997519Y-126391015D01*
X128878985Y-126272481D01*
X128785853Y-126133100D01*
X128721703Y-125978228D01*
X128689000Y-125813816D01*
X128689000Y-125646184D01*
X128721703Y-125481772D01*
X128785853Y-125326900D01*
X128878985Y-125187519D01*
X128997519Y-125068985D01*
X129136900Y-124975853D01*
X129291772Y-124911703D01*
X129456184Y-124879000D01*
X129623816Y-124879000D01*
X129788228Y-124911703D01*
G37*
G36*
X122168228Y-124911703D02*
G01*
X122323100Y-124975853D01*
X122462481Y-125068985D01*
X122581015Y-125187519D01*
X122674147Y-125326900D01*
X122738297Y-125481772D01*
X122771000Y-125646184D01*
X122771000Y-125813816D01*
X122738297Y-125978228D01*
X122674147Y-126133100D01*
X122581015Y-126272481D01*
X122462481Y-126391015D01*
X122323100Y-126484147D01*
X122168228Y-126548297D01*
X122003816Y-126581000D01*
X121836184Y-126581000D01*
X121671772Y-126548297D01*
X121516900Y-126484147D01*
X121377519Y-126391015D01*
X121258985Y-126272481D01*
X121165853Y-126133100D01*
X121101703Y-125978228D01*
X121069000Y-125813816D01*
X121069000Y-125646184D01*
X121101703Y-125481772D01*
X121165853Y-125326900D01*
X121258985Y-125187519D01*
X121377519Y-125068985D01*
X121516900Y-124975853D01*
X121671772Y-124911703D01*
X121836184Y-124879000D01*
X122003816Y-124879000D01*
X122168228Y-124911703D01*
G37*
G36*
X129788228Y-122371703D02*
G01*
X129943100Y-122435853D01*
X130082481Y-122528985D01*
X130201015Y-122647519D01*
X130294147Y-122786900D01*
X130358297Y-122941772D01*
X130391000Y-123106184D01*
X130391000Y-123273816D01*
X130358297Y-123438228D01*
X130294147Y-123593100D01*
X130201015Y-123732481D01*
X130082481Y-123851015D01*
X129943100Y-123944147D01*
X129788228Y-124008297D01*
X129623816Y-124041000D01*
X129456184Y-124041000D01*
X129291772Y-124008297D01*
X129136900Y-123944147D01*
X128997519Y-123851015D01*
X128878985Y-123732481D01*
X128785853Y-123593100D01*
X128721703Y-123438228D01*
X128689000Y-123273816D01*
X128689000Y-123106184D01*
X128721703Y-122941772D01*
X128785853Y-122786900D01*
X128878985Y-122647519D01*
X128997519Y-122528985D01*
X129136900Y-122435853D01*
X129291772Y-122371703D01*
X129456184Y-122339000D01*
X129623816Y-122339000D01*
X129788228Y-122371703D01*
G37*
G36*
X122168228Y-122371703D02*
G01*
X122323100Y-122435853D01*
X122462481Y-122528985D01*
X122581015Y-122647519D01*
X122674147Y-122786900D01*
X122738297Y-122941772D01*
X122771000Y-123106184D01*
X122771000Y-123273816D01*
X122738297Y-123438228D01*
X122674147Y-123593100D01*
X122581015Y-123732481D01*
X122462481Y-123851015D01*
X122323100Y-123944147D01*
X122168228Y-124008297D01*
X122003816Y-124041000D01*
X121836184Y-124041000D01*
X121671772Y-124008297D01*
X121516900Y-123944147D01*
X121377519Y-123851015D01*
X121258985Y-123732481D01*
X121165853Y-123593100D01*
X121101703Y-123438228D01*
X121069000Y-123273816D01*
X121069000Y-123106184D01*
X121101703Y-122941772D01*
X121165853Y-122786900D01*
X121258985Y-122647519D01*
X121377519Y-122528985D01*
X121516900Y-122435853D01*
X121671772Y-122371703D01*
X121836184Y-122339000D01*
X122003816Y-122339000D01*
X122168228Y-122371703D01*
G37*
G36*
X122168228Y-119831703D02*
G01*
X122323100Y-119895853D01*
X122462481Y-119988985D01*
X122581015Y-120107519D01*
X122674147Y-120246900D01*
X122738297Y-120401772D01*
X122771000Y-120566184D01*
X122771000Y-120733816D01*
X122738297Y-120898228D01*
X122674147Y-121053100D01*
X122581015Y-121192481D01*
X122462481Y-121311015D01*
X122323100Y-121404147D01*
X122168228Y-121468297D01*
X122003816Y-121501000D01*
X121836184Y-121501000D01*
X121671772Y-121468297D01*
X121516900Y-121404147D01*
X121377519Y-121311015D01*
X121258985Y-121192481D01*
X121165853Y-121053100D01*
X121101703Y-120898228D01*
X121069000Y-120733816D01*
X121069000Y-120566184D01*
X121101703Y-120401772D01*
X121165853Y-120246900D01*
X121258985Y-120107519D01*
X121377519Y-119988985D01*
X121516900Y-119895853D01*
X121671772Y-119831703D01*
X121836184Y-119799000D01*
X122003816Y-119799000D01*
X122168228Y-119831703D01*
G37*
G36*
X129788228Y-119831703D02*
G01*
X129943100Y-119895853D01*
X130082481Y-119988985D01*
X130201015Y-120107519D01*
X130294147Y-120246900D01*
X130358297Y-120401772D01*
X130391000Y-120566184D01*
X130391000Y-120733816D01*
X130358297Y-120898228D01*
X130294147Y-121053100D01*
X130201015Y-121192481D01*
X130082481Y-121311015D01*
X129943100Y-121404147D01*
X129788228Y-121468297D01*
X129623816Y-121501000D01*
X129456184Y-121501000D01*
X129291772Y-121468297D01*
X129136900Y-121404147D01*
X128997519Y-121311015D01*
X128878985Y-121192481D01*
X128785853Y-121053100D01*
X128721703Y-120898228D01*
X128689000Y-120733816D01*
X128689000Y-120566184D01*
X128721703Y-120401772D01*
X128785853Y-120246900D01*
X128878985Y-120107519D01*
X128997519Y-119988985D01*
X129136900Y-119895853D01*
X129291772Y-119831703D01*
X129456184Y-119799000D01*
X129623816Y-119799000D01*
X129788228Y-119831703D01*
G37*
G36*
X156323512Y-118483927D02*
G01*
X156472812Y-118513624D01*
X156636784Y-118581544D01*
X156784354Y-118680147D01*
X156909853Y-118805646D01*
X157008456Y-118953216D01*
X157076376Y-119117188D01*
X157111000Y-119291259D01*
X157111000Y-119468741D01*
X157076376Y-119642812D01*
X157008456Y-119806784D01*
X156909853Y-119954354D01*
X156784354Y-120079853D01*
X156636784Y-120178456D01*
X156472812Y-120246376D01*
X156323512Y-120276073D01*
X156298742Y-120281000D01*
X156121258Y-120281000D01*
X156096488Y-120276073D01*
X155947188Y-120246376D01*
X155783216Y-120178456D01*
X155635646Y-120079853D01*
X155510147Y-119954354D01*
X155411544Y-119806784D01*
X155343624Y-119642812D01*
X155309000Y-119468741D01*
X155309000Y-119291259D01*
X155343624Y-119117188D01*
X155411544Y-118953216D01*
X155510147Y-118805646D01*
X155635646Y-118680147D01*
X155783216Y-118581544D01*
X155947188Y-118513624D01*
X156096488Y-118483927D01*
X156121258Y-118479000D01*
X156298742Y-118479000D01*
X156323512Y-118483927D01*
G37*
G36*
X138543512Y-118483927D02*
G01*
X138692812Y-118513624D01*
X138856784Y-118581544D01*
X139004354Y-118680147D01*
X139129853Y-118805646D01*
X139228456Y-118953216D01*
X139296376Y-119117188D01*
X139331000Y-119291259D01*
X139331000Y-119468741D01*
X139296376Y-119642812D01*
X139228456Y-119806784D01*
X139129853Y-119954354D01*
X139004354Y-120079853D01*
X138856784Y-120178456D01*
X138692812Y-120246376D01*
X138543512Y-120276073D01*
X138518742Y-120281000D01*
X138341258Y-120281000D01*
X138316488Y-120276073D01*
X138167188Y-120246376D01*
X138003216Y-120178456D01*
X137855646Y-120079853D01*
X137730147Y-119954354D01*
X137631544Y-119806784D01*
X137563624Y-119642812D01*
X137529000Y-119468741D01*
X137529000Y-119291259D01*
X137563624Y-119117188D01*
X137631544Y-118953216D01*
X137730147Y-118805646D01*
X137855646Y-118680147D01*
X138003216Y-118581544D01*
X138167188Y-118513624D01*
X138316488Y-118483927D01*
X138341258Y-118479000D01*
X138518742Y-118479000D01*
X138543512Y-118483927D01*
G37*
G36*
X144893512Y-118253927D02*
G01*
X145042812Y-118283624D01*
X145206784Y-118351544D01*
X145354354Y-118450147D01*
X145479853Y-118575646D01*
X145578456Y-118723216D01*
X145646376Y-118887188D01*
X145681000Y-119061259D01*
X145681000Y-119238741D01*
X145646376Y-119412812D01*
X145578456Y-119576784D01*
X145479853Y-119724354D01*
X145354354Y-119849853D01*
X145206784Y-119948456D01*
X145042812Y-120016376D01*
X144893512Y-120046073D01*
X144868742Y-120051000D01*
X144691258Y-120051000D01*
X144666488Y-120046073D01*
X144517188Y-120016376D01*
X144353216Y-119948456D01*
X144205646Y-119849853D01*
X144080147Y-119724354D01*
X143981544Y-119576784D01*
X143913624Y-119412812D01*
X143879000Y-119238741D01*
X143879000Y-119061259D01*
X143913624Y-118887188D01*
X143981544Y-118723216D01*
X144080147Y-118575646D01*
X144205646Y-118450147D01*
X144353216Y-118351544D01*
X144517188Y-118283624D01*
X144666488Y-118253927D01*
X144691258Y-118249000D01*
X144868742Y-118249000D01*
X144893512Y-118253927D01*
G37*
G36*
X148221000Y-120051000D02*
G01*
X146419000Y-120051000D01*
X146419000Y-118249000D01*
X148221000Y-118249000D01*
X148221000Y-120051000D01*
G37*
G36*
X149973512Y-118253927D02*
G01*
X150122812Y-118283624D01*
X150286784Y-118351544D01*
X150434354Y-118450147D01*
X150559853Y-118575646D01*
X150658456Y-118723216D01*
X150726376Y-118887188D01*
X150761000Y-119061259D01*
X150761000Y-119238741D01*
X150726376Y-119412812D01*
X150658456Y-119576784D01*
X150559853Y-119724354D01*
X150434354Y-119849853D01*
X150286784Y-119948456D01*
X150122812Y-120016376D01*
X149973512Y-120046073D01*
X149948742Y-120051000D01*
X149771258Y-120051000D01*
X149746488Y-120046073D01*
X149597188Y-120016376D01*
X149433216Y-119948456D01*
X149285646Y-119849853D01*
X149160147Y-119724354D01*
X149061544Y-119576784D01*
X148993624Y-119412812D01*
X148959000Y-119238741D01*
X148959000Y-119061259D01*
X148993624Y-118887188D01*
X149061544Y-118723216D01*
X149160147Y-118575646D01*
X149285646Y-118450147D01*
X149433216Y-118351544D01*
X149597188Y-118283624D01*
X149746488Y-118253927D01*
X149771258Y-118249000D01*
X149948742Y-118249000D01*
X149973512Y-118253927D01*
G37*
G36*
X122168228Y-117291703D02*
G01*
X122323100Y-117355853D01*
X122462481Y-117448985D01*
X122581015Y-117567519D01*
X122674147Y-117706900D01*
X122738297Y-117861772D01*
X122771000Y-118026184D01*
X122771000Y-118193816D01*
X122738297Y-118358228D01*
X122674147Y-118513100D01*
X122581015Y-118652481D01*
X122462481Y-118771015D01*
X122323100Y-118864147D01*
X122168228Y-118928297D01*
X122003816Y-118961000D01*
X121836184Y-118961000D01*
X121671772Y-118928297D01*
X121516900Y-118864147D01*
X121377519Y-118771015D01*
X121258985Y-118652481D01*
X121165853Y-118513100D01*
X121101703Y-118358228D01*
X121069000Y-118193816D01*
X121069000Y-118026184D01*
X121101703Y-117861772D01*
X121165853Y-117706900D01*
X121258985Y-117567519D01*
X121377519Y-117448985D01*
X121516900Y-117355853D01*
X121671772Y-117291703D01*
X121836184Y-117259000D01*
X122003816Y-117259000D01*
X122168228Y-117291703D01*
G37*
G36*
X129788228Y-117291703D02*
G01*
X129943100Y-117355853D01*
X130082481Y-117448985D01*
X130201015Y-117567519D01*
X130294147Y-117706900D01*
X130358297Y-117861772D01*
X130391000Y-118026184D01*
X130391000Y-118193816D01*
X130358297Y-118358228D01*
X130294147Y-118513100D01*
X130201015Y-118652481D01*
X130082481Y-118771015D01*
X129943100Y-118864147D01*
X129788228Y-118928297D01*
X129623816Y-118961000D01*
X129456184Y-118961000D01*
X129291772Y-118928297D01*
X129136900Y-118864147D01*
X128997519Y-118771015D01*
X128878985Y-118652481D01*
X128785853Y-118513100D01*
X128721703Y-118358228D01*
X128689000Y-118193816D01*
X128689000Y-118026184D01*
X128721703Y-117861772D01*
X128785853Y-117706900D01*
X128878985Y-117567519D01*
X128997519Y-117448985D01*
X129136900Y-117355853D01*
X129291772Y-117291703D01*
X129456184Y-117259000D01*
X129623816Y-117259000D01*
X129788228Y-117291703D01*
G37*
G36*
X156323512Y-115943927D02*
G01*
X156472812Y-115973624D01*
X156636784Y-116041544D01*
X156784354Y-116140147D01*
X156909853Y-116265646D01*
X157008456Y-116413216D01*
X157076376Y-116577188D01*
X157111000Y-116751259D01*
X157111000Y-116928741D01*
X157076376Y-117102812D01*
X157008456Y-117266784D01*
X156909853Y-117414354D01*
X156784354Y-117539853D01*
X156636784Y-117638456D01*
X156472812Y-117706376D01*
X156323512Y-117736073D01*
X156298742Y-117741000D01*
X156121258Y-117741000D01*
X156096488Y-117736073D01*
X155947188Y-117706376D01*
X155783216Y-117638456D01*
X155635646Y-117539853D01*
X155510147Y-117414354D01*
X155411544Y-117266784D01*
X155343624Y-117102812D01*
X155309000Y-116928741D01*
X155309000Y-116751259D01*
X155343624Y-116577188D01*
X155411544Y-116413216D01*
X155510147Y-116265646D01*
X155635646Y-116140147D01*
X155783216Y-116041544D01*
X155947188Y-115973624D01*
X156096488Y-115943927D01*
X156121258Y-115939000D01*
X156298742Y-115939000D01*
X156323512Y-115943927D01*
G37*
G36*
X138543512Y-115943927D02*
G01*
X138692812Y-115973624D01*
X138856784Y-116041544D01*
X139004354Y-116140147D01*
X139129853Y-116265646D01*
X139228456Y-116413216D01*
X139296376Y-116577188D01*
X139331000Y-116751259D01*
X139331000Y-116928741D01*
X139296376Y-117102812D01*
X139228456Y-117266784D01*
X139129853Y-117414354D01*
X139004354Y-117539853D01*
X138856784Y-117638456D01*
X138692812Y-117706376D01*
X138543512Y-117736073D01*
X138518742Y-117741000D01*
X138341258Y-117741000D01*
X138316488Y-117736073D01*
X138167188Y-117706376D01*
X138003216Y-117638456D01*
X137855646Y-117539853D01*
X137730147Y-117414354D01*
X137631544Y-117266784D01*
X137563624Y-117102812D01*
X137529000Y-116928741D01*
X137529000Y-116751259D01*
X137563624Y-116577188D01*
X137631544Y-116413216D01*
X137730147Y-116265646D01*
X137855646Y-116140147D01*
X138003216Y-116041544D01*
X138167188Y-115973624D01*
X138316488Y-115943927D01*
X138341258Y-115939000D01*
X138518742Y-115939000D01*
X138543512Y-115943927D01*
G37*
G36*
X129788228Y-114751703D02*
G01*
X129943100Y-114815853D01*
X130082481Y-114908985D01*
X130201015Y-115027519D01*
X130294147Y-115166900D01*
X130358297Y-115321772D01*
X130391000Y-115486184D01*
X130391000Y-115653816D01*
X130358297Y-115818228D01*
X130294147Y-115973100D01*
X130201015Y-116112481D01*
X130082481Y-116231015D01*
X129943100Y-116324147D01*
X129788228Y-116388297D01*
X129623816Y-116421000D01*
X129456184Y-116421000D01*
X129291772Y-116388297D01*
X129136900Y-116324147D01*
X128997519Y-116231015D01*
X128878985Y-116112481D01*
X128785853Y-115973100D01*
X128721703Y-115818228D01*
X128689000Y-115653816D01*
X128689000Y-115486184D01*
X128721703Y-115321772D01*
X128785853Y-115166900D01*
X128878985Y-115027519D01*
X128997519Y-114908985D01*
X129136900Y-114815853D01*
X129291772Y-114751703D01*
X129456184Y-114719000D01*
X129623816Y-114719000D01*
X129788228Y-114751703D01*
G37*
G36*
X122168228Y-114751703D02*
G01*
X122323100Y-114815853D01*
X122462481Y-114908985D01*
X122581015Y-115027519D01*
X122674147Y-115166900D01*
X122738297Y-115321772D01*
X122771000Y-115486184D01*
X122771000Y-115653816D01*
X122738297Y-115818228D01*
X122674147Y-115973100D01*
X122581015Y-116112481D01*
X122462481Y-116231015D01*
X122323100Y-116324147D01*
X122168228Y-116388297D01*
X122003816Y-116421000D01*
X121836184Y-116421000D01*
X121671772Y-116388297D01*
X121516900Y-116324147D01*
X121377519Y-116231015D01*
X121258985Y-116112481D01*
X121165853Y-115973100D01*
X121101703Y-115818228D01*
X121069000Y-115653816D01*
X121069000Y-115486184D01*
X121101703Y-115321772D01*
X121165853Y-115166900D01*
X121258985Y-115027519D01*
X121377519Y-114908985D01*
X121516900Y-114815853D01*
X121671772Y-114751703D01*
X121836184Y-114719000D01*
X122003816Y-114719000D01*
X122168228Y-114751703D01*
G37*
G36*
X157111000Y-115201000D02*
G01*
X155309000Y-115201000D01*
X155309000Y-113399000D01*
X157111000Y-113399000D01*
X157111000Y-115201000D01*
G37*
G36*
X139331000Y-115201000D02*
G01*
X137529000Y-115201000D01*
X137529000Y-113399000D01*
X139331000Y-113399000D01*
X139331000Y-115201000D01*
G37*
G36*
X129788228Y-112211703D02*
G01*
X129943100Y-112275853D01*
X130082481Y-112368985D01*
X130201015Y-112487519D01*
X130294147Y-112626900D01*
X130358297Y-112781772D01*
X130391000Y-112946184D01*
X130391000Y-113113816D01*
X130358297Y-113278228D01*
X130294147Y-113433100D01*
X130201015Y-113572481D01*
X130082481Y-113691015D01*
X129943100Y-113784147D01*
X129788228Y-113848297D01*
X129623816Y-113881000D01*
X129456184Y-113881000D01*
X129291772Y-113848297D01*
X129136900Y-113784147D01*
X128997519Y-113691015D01*
X128878985Y-113572481D01*
X128785853Y-113433100D01*
X128721703Y-113278228D01*
X128689000Y-113113816D01*
X128689000Y-112946184D01*
X128721703Y-112781772D01*
X128785853Y-112626900D01*
X128878985Y-112487519D01*
X128997519Y-112368985D01*
X129136900Y-112275853D01*
X129291772Y-112211703D01*
X129456184Y-112179000D01*
X129623816Y-112179000D01*
X129788228Y-112211703D01*
G37*
G36*
X122168228Y-112211703D02*
G01*
X122323100Y-112275853D01*
X122462481Y-112368985D01*
X122581015Y-112487519D01*
X122674147Y-112626900D01*
X122738297Y-112781772D01*
X122771000Y-112946184D01*
X122771000Y-113113816D01*
X122738297Y-113278228D01*
X122674147Y-113433100D01*
X122581015Y-113572481D01*
X122462481Y-113691015D01*
X122323100Y-113784147D01*
X122168228Y-113848297D01*
X122003816Y-113881000D01*
X121836184Y-113881000D01*
X121671772Y-113848297D01*
X121516900Y-113784147D01*
X121377519Y-113691015D01*
X121258985Y-113572481D01*
X121165853Y-113433100D01*
X121101703Y-113278228D01*
X121069000Y-113113816D01*
X121069000Y-112946184D01*
X121101703Y-112781772D01*
X121165853Y-112626900D01*
X121258985Y-112487519D01*
X121377519Y-112368985D01*
X121516900Y-112275853D01*
X121671772Y-112211703D01*
X121836184Y-112179000D01*
X122003816Y-112179000D01*
X122168228Y-112211703D01*
G37*
G36*
X156323512Y-110863927D02*
G01*
X156472812Y-110893624D01*
X156636784Y-110961544D01*
X156784354Y-111060147D01*
X156909853Y-111185646D01*
X157008456Y-111333216D01*
X157076376Y-111497188D01*
X157111000Y-111671259D01*
X157111000Y-111848741D01*
X157076376Y-112022812D01*
X157008456Y-112186784D01*
X156909853Y-112334354D01*
X156784354Y-112459853D01*
X156636784Y-112558456D01*
X156472812Y-112626376D01*
X156323512Y-112656073D01*
X156298742Y-112661000D01*
X156121258Y-112661000D01*
X156096488Y-112656073D01*
X155947188Y-112626376D01*
X155783216Y-112558456D01*
X155635646Y-112459853D01*
X155510147Y-112334354D01*
X155411544Y-112186784D01*
X155343624Y-112022812D01*
X155309000Y-111848741D01*
X155309000Y-111671259D01*
X155343624Y-111497188D01*
X155411544Y-111333216D01*
X155510147Y-111185646D01*
X155635646Y-111060147D01*
X155783216Y-110961544D01*
X155947188Y-110893624D01*
X156096488Y-110863927D01*
X156121258Y-110859000D01*
X156298742Y-110859000D01*
X156323512Y-110863927D01*
G37*
G36*
X138543512Y-110863927D02*
G01*
X138692812Y-110893624D01*
X138856784Y-110961544D01*
X139004354Y-111060147D01*
X139129853Y-111185646D01*
X139228456Y-111333216D01*
X139296376Y-111497188D01*
X139331000Y-111671259D01*
X139331000Y-111848741D01*
X139296376Y-112022812D01*
X139228456Y-112186784D01*
X139129853Y-112334354D01*
X139004354Y-112459853D01*
X138856784Y-112558456D01*
X138692812Y-112626376D01*
X138543512Y-112656073D01*
X138518742Y-112661000D01*
X138341258Y-112661000D01*
X138316488Y-112656073D01*
X138167188Y-112626376D01*
X138003216Y-112558456D01*
X137855646Y-112459853D01*
X137730147Y-112334354D01*
X137631544Y-112186784D01*
X137563624Y-112022812D01*
X137529000Y-111848741D01*
X137529000Y-111671259D01*
X137563624Y-111497188D01*
X137631544Y-111333216D01*
X137730147Y-111185646D01*
X137855646Y-111060147D01*
X138003216Y-110961544D01*
X138167188Y-110893624D01*
X138316488Y-110863927D01*
X138341258Y-110859000D01*
X138518742Y-110859000D01*
X138543512Y-110863927D01*
G37*
G36*
X129788228Y-109671703D02*
G01*
X129943100Y-109735853D01*
X130082481Y-109828985D01*
X130201015Y-109947519D01*
X130294147Y-110086900D01*
X130358297Y-110241772D01*
X130391000Y-110406184D01*
X130391000Y-110573816D01*
X130358297Y-110738228D01*
X130294147Y-110893100D01*
X130201015Y-111032481D01*
X130082481Y-111151015D01*
X129943100Y-111244147D01*
X129788228Y-111308297D01*
X129623816Y-111341000D01*
X129456184Y-111341000D01*
X129291772Y-111308297D01*
X129136900Y-111244147D01*
X128997519Y-111151015D01*
X128878985Y-111032481D01*
X128785853Y-110893100D01*
X128721703Y-110738228D01*
X128689000Y-110573816D01*
X128689000Y-110406184D01*
X128721703Y-110241772D01*
X128785853Y-110086900D01*
X128878985Y-109947519D01*
X128997519Y-109828985D01*
X129136900Y-109735853D01*
X129291772Y-109671703D01*
X129456184Y-109639000D01*
X129623816Y-109639000D01*
X129788228Y-109671703D01*
G37*
G36*
X122168228Y-109671703D02*
G01*
X122323100Y-109735853D01*
X122462481Y-109828985D01*
X122581015Y-109947519D01*
X122674147Y-110086900D01*
X122738297Y-110241772D01*
X122771000Y-110406184D01*
X122771000Y-110573816D01*
X122738297Y-110738228D01*
X122674147Y-110893100D01*
X122581015Y-111032481D01*
X122462481Y-111151015D01*
X122323100Y-111244147D01*
X122168228Y-111308297D01*
X122003816Y-111341000D01*
X121836184Y-111341000D01*
X121671772Y-111308297D01*
X121516900Y-111244147D01*
X121377519Y-111151015D01*
X121258985Y-111032481D01*
X121165853Y-110893100D01*
X121101703Y-110738228D01*
X121069000Y-110573816D01*
X121069000Y-110406184D01*
X121101703Y-110241772D01*
X121165853Y-110086900D01*
X121258985Y-109947519D01*
X121377519Y-109828985D01*
X121516900Y-109735853D01*
X121671772Y-109671703D01*
X121836184Y-109639000D01*
X122003816Y-109639000D01*
X122168228Y-109671703D01*
G37*
G36*
X156323512Y-108323927D02*
G01*
X156472812Y-108353624D01*
X156636784Y-108421544D01*
X156784354Y-108520147D01*
X156909853Y-108645646D01*
X157008456Y-108793216D01*
X157076376Y-108957188D01*
X157111000Y-109131259D01*
X157111000Y-109308741D01*
X157076376Y-109482812D01*
X157008456Y-109646784D01*
X156909853Y-109794354D01*
X156784354Y-109919853D01*
X156636784Y-110018456D01*
X156472812Y-110086376D01*
X156323512Y-110116073D01*
X156298742Y-110121000D01*
X156121258Y-110121000D01*
X156096488Y-110116073D01*
X155947188Y-110086376D01*
X155783216Y-110018456D01*
X155635646Y-109919853D01*
X155510147Y-109794354D01*
X155411544Y-109646784D01*
X155343624Y-109482812D01*
X155309000Y-109308741D01*
X155309000Y-109131259D01*
X155343624Y-108957188D01*
X155411544Y-108793216D01*
X155510147Y-108645646D01*
X155635646Y-108520147D01*
X155783216Y-108421544D01*
X155947188Y-108353624D01*
X156096488Y-108323927D01*
X156121258Y-108319000D01*
X156298742Y-108319000D01*
X156323512Y-108323927D01*
G37*
G36*
X138543512Y-108323927D02*
G01*
X138692812Y-108353624D01*
X138856784Y-108421544D01*
X139004354Y-108520147D01*
X139129853Y-108645646D01*
X139228456Y-108793216D01*
X139296376Y-108957188D01*
X139331000Y-109131259D01*
X139331000Y-109308741D01*
X139296376Y-109482812D01*
X139228456Y-109646784D01*
X139129853Y-109794354D01*
X139004354Y-109919853D01*
X138856784Y-110018456D01*
X138692812Y-110086376D01*
X138543512Y-110116073D01*
X138518742Y-110121000D01*
X138341258Y-110121000D01*
X138316488Y-110116073D01*
X138167188Y-110086376D01*
X138003216Y-110018456D01*
X137855646Y-109919853D01*
X137730147Y-109794354D01*
X137631544Y-109646784D01*
X137563624Y-109482812D01*
X137529000Y-109308741D01*
X137529000Y-109131259D01*
X137563624Y-108957188D01*
X137631544Y-108793216D01*
X137730147Y-108645646D01*
X137855646Y-108520147D01*
X138003216Y-108421544D01*
X138167188Y-108353624D01*
X138316488Y-108323927D01*
X138341258Y-108319000D01*
X138518742Y-108319000D01*
X138543512Y-108323927D01*
G37*
G36*
X129788228Y-107131703D02*
G01*
X129943100Y-107195853D01*
X130082481Y-107288985D01*
X130201015Y-107407519D01*
X130294147Y-107546900D01*
X130358297Y-107701772D01*
X130391000Y-107866184D01*
X130391000Y-108033816D01*
X130358297Y-108198228D01*
X130294147Y-108353100D01*
X130201015Y-108492481D01*
X130082481Y-108611015D01*
X129943100Y-108704147D01*
X129788228Y-108768297D01*
X129623816Y-108801000D01*
X129456184Y-108801000D01*
X129291772Y-108768297D01*
X129136900Y-108704147D01*
X128997519Y-108611015D01*
X128878985Y-108492481D01*
X128785853Y-108353100D01*
X128721703Y-108198228D01*
X128689000Y-108033816D01*
X128689000Y-107866184D01*
X128721703Y-107701772D01*
X128785853Y-107546900D01*
X128878985Y-107407519D01*
X128997519Y-107288985D01*
X129136900Y-107195853D01*
X129291772Y-107131703D01*
X129456184Y-107099000D01*
X129623816Y-107099000D01*
X129788228Y-107131703D01*
G37*
G36*
X122168228Y-107131703D02*
G01*
X122323100Y-107195853D01*
X122462481Y-107288985D01*
X122581015Y-107407519D01*
X122674147Y-107546900D01*
X122738297Y-107701772D01*
X122771000Y-107866184D01*
X122771000Y-108033816D01*
X122738297Y-108198228D01*
X122674147Y-108353100D01*
X122581015Y-108492481D01*
X122462481Y-108611015D01*
X122323100Y-108704147D01*
X122168228Y-108768297D01*
X122003816Y-108801000D01*
X121836184Y-108801000D01*
X121671772Y-108768297D01*
X121516900Y-108704147D01*
X121377519Y-108611015D01*
X121258985Y-108492481D01*
X121165853Y-108353100D01*
X121101703Y-108198228D01*
X121069000Y-108033816D01*
X121069000Y-107866184D01*
X121101703Y-107701772D01*
X121165853Y-107546900D01*
X121258985Y-107407519D01*
X121377519Y-107288985D01*
X121516900Y-107195853D01*
X121671772Y-107131703D01*
X121836184Y-107099000D01*
X122003816Y-107099000D01*
X122168228Y-107131703D01*
G37*
G36*
X138543512Y-105783927D02*
G01*
X138692812Y-105813624D01*
X138856784Y-105881544D01*
X139004354Y-105980147D01*
X139129853Y-106105646D01*
X139228456Y-106253216D01*
X139296376Y-106417188D01*
X139331000Y-106591259D01*
X139331000Y-106768741D01*
X139296376Y-106942812D01*
X139228456Y-107106784D01*
X139129853Y-107254354D01*
X139004354Y-107379853D01*
X138856784Y-107478456D01*
X138692812Y-107546376D01*
X138543512Y-107576073D01*
X138518742Y-107581000D01*
X138341258Y-107581000D01*
X138316488Y-107576073D01*
X138167188Y-107546376D01*
X138003216Y-107478456D01*
X137855646Y-107379853D01*
X137730147Y-107254354D01*
X137631544Y-107106784D01*
X137563624Y-106942812D01*
X137529000Y-106768741D01*
X137529000Y-106591259D01*
X137563624Y-106417188D01*
X137631544Y-106253216D01*
X137730147Y-106105646D01*
X137855646Y-105980147D01*
X138003216Y-105881544D01*
X138167188Y-105813624D01*
X138316488Y-105783927D01*
X138341258Y-105779000D01*
X138518742Y-105779000D01*
X138543512Y-105783927D01*
G37*
G36*
X156323512Y-105783927D02*
G01*
X156472812Y-105813624D01*
X156636784Y-105881544D01*
X156784354Y-105980147D01*
X156909853Y-106105646D01*
X157008456Y-106253216D01*
X157076376Y-106417188D01*
X157111000Y-106591259D01*
X157111000Y-106768741D01*
X157076376Y-106942812D01*
X157008456Y-107106784D01*
X156909853Y-107254354D01*
X156784354Y-107379853D01*
X156636784Y-107478456D01*
X156472812Y-107546376D01*
X156323512Y-107576073D01*
X156298742Y-107581000D01*
X156121258Y-107581000D01*
X156096488Y-107576073D01*
X155947188Y-107546376D01*
X155783216Y-107478456D01*
X155635646Y-107379853D01*
X155510147Y-107254354D01*
X155411544Y-107106784D01*
X155343624Y-106942812D01*
X155309000Y-106768741D01*
X155309000Y-106591259D01*
X155343624Y-106417188D01*
X155411544Y-106253216D01*
X155510147Y-106105646D01*
X155635646Y-105980147D01*
X155783216Y-105881544D01*
X155947188Y-105813624D01*
X156096488Y-105783927D01*
X156121258Y-105779000D01*
X156298742Y-105779000D01*
X156323512Y-105783927D01*
G37*
G36*
X156323512Y-103243927D02*
G01*
X156472812Y-103273624D01*
X156636784Y-103341544D01*
X156784354Y-103440147D01*
X156909853Y-103565646D01*
X157008456Y-103713216D01*
X157076376Y-103877188D01*
X157111000Y-104051259D01*
X157111000Y-104228741D01*
X157076376Y-104402812D01*
X157008456Y-104566784D01*
X156909853Y-104714354D01*
X156784354Y-104839853D01*
X156636784Y-104938456D01*
X156472812Y-105006376D01*
X156323512Y-105036073D01*
X156298742Y-105041000D01*
X156121258Y-105041000D01*
X156096488Y-105036073D01*
X155947188Y-105006376D01*
X155783216Y-104938456D01*
X155635646Y-104839853D01*
X155510147Y-104714354D01*
X155411544Y-104566784D01*
X155343624Y-104402812D01*
X155309000Y-104228741D01*
X155309000Y-104051259D01*
X155343624Y-103877188D01*
X155411544Y-103713216D01*
X155510147Y-103565646D01*
X155635646Y-103440147D01*
X155783216Y-103341544D01*
X155947188Y-103273624D01*
X156096488Y-103243927D01*
X156121258Y-103239000D01*
X156298742Y-103239000D01*
X156323512Y-103243927D01*
G37*
G36*
X138543512Y-103243927D02*
G01*
X138692812Y-103273624D01*
X138856784Y-103341544D01*
X139004354Y-103440147D01*
X139129853Y-103565646D01*
X139228456Y-103713216D01*
X139296376Y-103877188D01*
X139331000Y-104051259D01*
X139331000Y-104228741D01*
X139296376Y-104402812D01*
X139228456Y-104566784D01*
X139129853Y-104714354D01*
X139004354Y-104839853D01*
X138856784Y-104938456D01*
X138692812Y-105006376D01*
X138543512Y-105036073D01*
X138518742Y-105041000D01*
X138341258Y-105041000D01*
X138316488Y-105036073D01*
X138167188Y-105006376D01*
X138003216Y-104938456D01*
X137855646Y-104839853D01*
X137730147Y-104714354D01*
X137631544Y-104566784D01*
X137563624Y-104402812D01*
X137529000Y-104228741D01*
X137529000Y-104051259D01*
X137563624Y-103877188D01*
X137631544Y-103713216D01*
X137730147Y-103565646D01*
X137855646Y-103440147D01*
X138003216Y-103341544D01*
X138167188Y-103273624D01*
X138316488Y-103243927D01*
X138341258Y-103239000D01*
X138518742Y-103239000D01*
X138543512Y-103243927D01*
G37*
G36*
X115272916Y-99127334D02*
G01*
X115381492Y-99160271D01*
X115381495Y-99160272D01*
X115417601Y-99179571D01*
X115481557Y-99213756D01*
X115569264Y-99285736D01*
X115641244Y-99373443D01*
X115675429Y-99437399D01*
X115694728Y-99473505D01*
X115694729Y-99473508D01*
X115727666Y-99582084D01*
X115738787Y-99695000D01*
X115727666Y-99807916D01*
X115712334Y-99858456D01*
X115694728Y-99916495D01*
X115689447Y-99926375D01*
X115641244Y-100016557D01*
X115569264Y-100104264D01*
X115481557Y-100176244D01*
X115400141Y-100219761D01*
X115379766Y-100233375D01*
X115362439Y-100250702D01*
X115348826Y-100271076D01*
X115339448Y-100293715D01*
X115334668Y-100317748D01*
X115334668Y-100342252D01*
X115339448Y-100366285D01*
X115348826Y-100388924D01*
X115362440Y-100409299D01*
X115379767Y-100426626D01*
X115400141Y-100440239D01*
X115481557Y-100483756D01*
X115569264Y-100555736D01*
X115641244Y-100643443D01*
X115670939Y-100699000D01*
X115694728Y-100743505D01*
X115694729Y-100743508D01*
X115727666Y-100852084D01*
X115738787Y-100965000D01*
X115727666Y-101077916D01*
X115694729Y-101186492D01*
X115694728Y-101186495D01*
X115675429Y-101222601D01*
X115641244Y-101286557D01*
X115569264Y-101374264D01*
X115492354Y-101437383D01*
X115475035Y-101454702D01*
X115461421Y-101475077D01*
X115452043Y-101497716D01*
X115447263Y-101521749D01*
X115447263Y-101546253D01*
X115452043Y-101570286D01*
X115461421Y-101592925D01*
X115475034Y-101613299D01*
X115492361Y-101630626D01*
X115512736Y-101644240D01*
X115535375Y-101653618D01*
X115559408Y-101658398D01*
X115571660Y-101659000D01*
X115736000Y-101659000D01*
X115736000Y-102811000D01*
X114134000Y-102811000D01*
X114134000Y-101659000D01*
X114298340Y-101659000D01*
X114322726Y-101656598D01*
X114346175Y-101649485D01*
X114367786Y-101637934D01*
X114386728Y-101622389D01*
X114402273Y-101603447D01*
X114413824Y-101581836D01*
X114420937Y-101558387D01*
X114423339Y-101534001D01*
X114420937Y-101509615D01*
X114413824Y-101486166D01*
X114402273Y-101464555D01*
X114386728Y-101445613D01*
X114377655Y-101437391D01*
X114300736Y-101374264D01*
X114228756Y-101286557D01*
X114194571Y-101222601D01*
X114175272Y-101186495D01*
X114175271Y-101186492D01*
X114142334Y-101077916D01*
X114131213Y-100965000D01*
X114142334Y-100852084D01*
X114175271Y-100743508D01*
X114175272Y-100743505D01*
X114199061Y-100699000D01*
X114228756Y-100643443D01*
X114300736Y-100555736D01*
X114388443Y-100483756D01*
X114469859Y-100440239D01*
X114490234Y-100426625D01*
X114507561Y-100409298D01*
X114521174Y-100388924D01*
X114530552Y-100366285D01*
X114535332Y-100342252D01*
X114535332Y-100317748D01*
X114530552Y-100293715D01*
X114521174Y-100271076D01*
X114507560Y-100250701D01*
X114490233Y-100233374D01*
X114469859Y-100219761D01*
X114388443Y-100176244D01*
X114300736Y-100104264D01*
X114228756Y-100016557D01*
X114180553Y-99926375D01*
X114175272Y-99916495D01*
X114157666Y-99858456D01*
X114142334Y-99807916D01*
X114131213Y-99695000D01*
X114142334Y-99582084D01*
X114175271Y-99473508D01*
X114175272Y-99473505D01*
X114194571Y-99437399D01*
X114228756Y-99373443D01*
X114300736Y-99285736D01*
X114388443Y-99213756D01*
X114452399Y-99179571D01*
X114488505Y-99160272D01*
X114488508Y-99160271D01*
X114597084Y-99127334D01*
X114681702Y-99119000D01*
X115188298Y-99119000D01*
X115272916Y-99127334D01*
G37*
G36*
X157111000Y-102501000D02*
G01*
X155309000Y-102501000D01*
X155309000Y-100699000D01*
X157111000Y-100699000D01*
X157111000Y-102501000D01*
G37*
G36*
X139331000Y-102501000D02*
G01*
X137529000Y-102501000D01*
X137529000Y-100699000D01*
X139331000Y-100699000D01*
X139331000Y-102501000D01*
G37*
G36*
X129668228Y-98876703D02*
G01*
X129823100Y-98940853D01*
X129962481Y-99033985D01*
X130081015Y-99152519D01*
X130174147Y-99291900D01*
X130238297Y-99446772D01*
X130271000Y-99611184D01*
X130271000Y-99778816D01*
X130238297Y-99943228D01*
X130174147Y-100098100D01*
X130081015Y-100237481D01*
X129962481Y-100356015D01*
X129823100Y-100449147D01*
X129668228Y-100513297D01*
X129503816Y-100546000D01*
X129336184Y-100546000D01*
X129171772Y-100513297D01*
X129016900Y-100449147D01*
X128877519Y-100356015D01*
X128758985Y-100237481D01*
X128665853Y-100098100D01*
X128601703Y-99943228D01*
X128569000Y-99778816D01*
X128569000Y-99611184D01*
X128601703Y-99446772D01*
X128665853Y-99291900D01*
X128758985Y-99152519D01*
X128877519Y-99033985D01*
X129016900Y-98940853D01*
X129171772Y-98876703D01*
X129336184Y-98844000D01*
X129503816Y-98844000D01*
X129668228Y-98876703D01*
G37*
G36*
X122168228Y-98876703D02*
G01*
X122323100Y-98940853D01*
X122462481Y-99033985D01*
X122581015Y-99152519D01*
X122674147Y-99291900D01*
X122738297Y-99446772D01*
X122771000Y-99611184D01*
X122771000Y-99778816D01*
X122738297Y-99943228D01*
X122674147Y-100098100D01*
X122581015Y-100237481D01*
X122462481Y-100356015D01*
X122323100Y-100449147D01*
X122168228Y-100513297D01*
X122003816Y-100546000D01*
X121836184Y-100546000D01*
X121671772Y-100513297D01*
X121516900Y-100449147D01*
X121377519Y-100356015D01*
X121258985Y-100237481D01*
X121165853Y-100098100D01*
X121101703Y-99943228D01*
X121069000Y-99778816D01*
X121069000Y-99611184D01*
X121101703Y-99446772D01*
X121165853Y-99291900D01*
X121258985Y-99152519D01*
X121377519Y-99033985D01*
X121516900Y-98940853D01*
X121671772Y-98876703D01*
X121836184Y-98844000D01*
X122003816Y-98844000D01*
X122168228Y-98876703D01*
G37*
G36*
X138543512Y-98163927D02*
G01*
X138692812Y-98193624D01*
X138856784Y-98261544D01*
X139004354Y-98360147D01*
X139129853Y-98485646D01*
X139228456Y-98633216D01*
X139296376Y-98797188D01*
X139324952Y-98940852D01*
X139331000Y-98971258D01*
X139331000Y-99148742D01*
X139326073Y-99173512D01*
X139296376Y-99322812D01*
X139228456Y-99486784D01*
X139129853Y-99634354D01*
X139004354Y-99759853D01*
X138856784Y-99858456D01*
X138692812Y-99926376D01*
X138543512Y-99956073D01*
X138518742Y-99961000D01*
X138341258Y-99961000D01*
X138316488Y-99956073D01*
X138167188Y-99926376D01*
X138003216Y-99858456D01*
X137855646Y-99759853D01*
X137730147Y-99634354D01*
X137631544Y-99486784D01*
X137563624Y-99322812D01*
X137533927Y-99173512D01*
X137529000Y-99148742D01*
X137529000Y-98971258D01*
X137535048Y-98940852D01*
X137563624Y-98797188D01*
X137631544Y-98633216D01*
X137730147Y-98485646D01*
X137855646Y-98360147D01*
X138003216Y-98261544D01*
X138167188Y-98193624D01*
X138316488Y-98163927D01*
X138341258Y-98159000D01*
X138518742Y-98159000D01*
X138543512Y-98163927D01*
G37*
G36*
X156323512Y-98163927D02*
G01*
X156472812Y-98193624D01*
X156636784Y-98261544D01*
X156784354Y-98360147D01*
X156909853Y-98485646D01*
X157008456Y-98633216D01*
X157076376Y-98797188D01*
X157104952Y-98940852D01*
X157111000Y-98971258D01*
X157111000Y-99148742D01*
X157106073Y-99173512D01*
X157076376Y-99322812D01*
X157008456Y-99486784D01*
X156909853Y-99634354D01*
X156784354Y-99759853D01*
X156636784Y-99858456D01*
X156472812Y-99926376D01*
X156323512Y-99956073D01*
X156298742Y-99961000D01*
X156121258Y-99961000D01*
X156096488Y-99956073D01*
X155947188Y-99926376D01*
X155783216Y-99858456D01*
X155635646Y-99759853D01*
X155510147Y-99634354D01*
X155411544Y-99486784D01*
X155343624Y-99322812D01*
X155313927Y-99173512D01*
X155309000Y-99148742D01*
X155309000Y-98971258D01*
X155315048Y-98940852D01*
X155343624Y-98797188D01*
X155411544Y-98633216D01*
X155510147Y-98485646D01*
X155635646Y-98360147D01*
X155783216Y-98261544D01*
X155947188Y-98193624D01*
X156096488Y-98163927D01*
X156121258Y-98159000D01*
X156298742Y-98159000D01*
X156323512Y-98163927D01*
G37*
G36*
X138543512Y-95623927D02*
G01*
X138692812Y-95653624D01*
X138856784Y-95721544D01*
X139004354Y-95820147D01*
X139129853Y-95945646D01*
X139228456Y-96093216D01*
X139296376Y-96257188D01*
X139331000Y-96431259D01*
X139331000Y-96608741D01*
X139296376Y-96782812D01*
X139228456Y-96946784D01*
X139129853Y-97094354D01*
X139004354Y-97219853D01*
X138856784Y-97318456D01*
X138692812Y-97386376D01*
X138543512Y-97416073D01*
X138518742Y-97421000D01*
X138341258Y-97421000D01*
X138316488Y-97416073D01*
X138167188Y-97386376D01*
X138003216Y-97318456D01*
X137855646Y-97219853D01*
X137730147Y-97094354D01*
X137631544Y-96946784D01*
X137563624Y-96782812D01*
X137529000Y-96608741D01*
X137529000Y-96431259D01*
X137563624Y-96257188D01*
X137631544Y-96093216D01*
X137730147Y-95945646D01*
X137855646Y-95820147D01*
X138003216Y-95721544D01*
X138167188Y-95653624D01*
X138316488Y-95623927D01*
X138341258Y-95619000D01*
X138518742Y-95619000D01*
X138543512Y-95623927D01*
G37*
G36*
X156323512Y-95623927D02*
G01*
X156472812Y-95653624D01*
X156636784Y-95721544D01*
X156784354Y-95820147D01*
X156909853Y-95945646D01*
X157008456Y-96093216D01*
X157076376Y-96257188D01*
X157111000Y-96431259D01*
X157111000Y-96608741D01*
X157076376Y-96782812D01*
X157008456Y-96946784D01*
X156909853Y-97094354D01*
X156784354Y-97219853D01*
X156636784Y-97318456D01*
X156472812Y-97386376D01*
X156323512Y-97416073D01*
X156298742Y-97421000D01*
X156121258Y-97421000D01*
X156096488Y-97416073D01*
X155947188Y-97386376D01*
X155783216Y-97318456D01*
X155635646Y-97219853D01*
X155510147Y-97094354D01*
X155411544Y-96946784D01*
X155343624Y-96782812D01*
X155309000Y-96608741D01*
X155309000Y-96431259D01*
X155343624Y-96257188D01*
X155411544Y-96093216D01*
X155510147Y-95945646D01*
X155635646Y-95820147D01*
X155783216Y-95721544D01*
X155947188Y-95653624D01*
X156096488Y-95623927D01*
X156121258Y-95619000D01*
X156298742Y-95619000D01*
X156323512Y-95623927D01*
G37*
G36*
X122168228Y-93796703D02*
G01*
X122323100Y-93860853D01*
X122462481Y-93953985D01*
X122581015Y-94072519D01*
X122674147Y-94211900D01*
X122738297Y-94366772D01*
X122771000Y-94531184D01*
X122771000Y-94698816D01*
X122738297Y-94863228D01*
X122674147Y-95018100D01*
X122581015Y-95157481D01*
X122462481Y-95276015D01*
X122323100Y-95369147D01*
X122168228Y-95433297D01*
X122003816Y-95466000D01*
X121836184Y-95466000D01*
X121671772Y-95433297D01*
X121516900Y-95369147D01*
X121377519Y-95276015D01*
X121258985Y-95157481D01*
X121165853Y-95018100D01*
X121101703Y-94863228D01*
X121069000Y-94698816D01*
X121069000Y-94531184D01*
X121101703Y-94366772D01*
X121165853Y-94211900D01*
X121258985Y-94072519D01*
X121377519Y-93953985D01*
X121516900Y-93860853D01*
X121671772Y-93796703D01*
X121836184Y-93764000D01*
X122003816Y-93764000D01*
X122168228Y-93796703D01*
G37*
G36*
X130391000Y-95466000D02*
G01*
X128689000Y-95466000D01*
X128689000Y-93764000D01*
X130391000Y-93764000D01*
X130391000Y-95466000D01*
G37*
G36*
X156314769Y-93082188D02*
G01*
X156472812Y-93113624D01*
X156636784Y-93181544D01*
X156784354Y-93280147D01*
X156909853Y-93405646D01*
X157008456Y-93553216D01*
X157076376Y-93717188D01*
X157111000Y-93891259D01*
X157111000Y-94068741D01*
X157076376Y-94242812D01*
X157008456Y-94406784D01*
X156909853Y-94554354D01*
X156784354Y-94679853D01*
X156636784Y-94778456D01*
X156472812Y-94846376D01*
X156323512Y-94876073D01*
X156298742Y-94881000D01*
X156121258Y-94881000D01*
X156096488Y-94876073D01*
X155947188Y-94846376D01*
X155783216Y-94778456D01*
X155635646Y-94679853D01*
X155510147Y-94554354D01*
X155411544Y-94406784D01*
X155343624Y-94242812D01*
X155309000Y-94068741D01*
X155309000Y-93891259D01*
X155343624Y-93717188D01*
X155411544Y-93553216D01*
X155510147Y-93405646D01*
X155635646Y-93280147D01*
X155783216Y-93181544D01*
X155947188Y-93113624D01*
X156105231Y-93082188D01*
X156121258Y-93079000D01*
X156298742Y-93079000D01*
X156314769Y-93082188D01*
G37*
G36*
X138534769Y-93082188D02*
G01*
X138692812Y-93113624D01*
X138856784Y-93181544D01*
X139004354Y-93280147D01*
X139129853Y-93405646D01*
X139228456Y-93553216D01*
X139296376Y-93717188D01*
X139331000Y-93891259D01*
X139331000Y-94068741D01*
X139296376Y-94242812D01*
X139228456Y-94406784D01*
X139129853Y-94554354D01*
X139004354Y-94679853D01*
X138856784Y-94778456D01*
X138692812Y-94846376D01*
X138543512Y-94876073D01*
X138518742Y-94881000D01*
X138341258Y-94881000D01*
X138316488Y-94876073D01*
X138167188Y-94846376D01*
X138003216Y-94778456D01*
X137855646Y-94679853D01*
X137730147Y-94554354D01*
X137631544Y-94406784D01*
X137563624Y-94242812D01*
X137529000Y-94068741D01*
X137529000Y-93891259D01*
X137563624Y-93717188D01*
X137631544Y-93553216D01*
X137730147Y-93405646D01*
X137855646Y-93280147D01*
X138003216Y-93181544D01*
X138167188Y-93113624D01*
X138325231Y-93082188D01*
X138341258Y-93079000D01*
X138518742Y-93079000D01*
X138534769Y-93082188D01*
G37*
G36*
X116318512Y-92448927D02*
G01*
X116467812Y-92478624D01*
X116631784Y-92546544D01*
X116779354Y-92645147D01*
X116904853Y-92770646D01*
X117003456Y-92918216D01*
X117071376Y-93082188D01*
X117106000Y-93256259D01*
X117106000Y-93433741D01*
X117071376Y-93607812D01*
X117003456Y-93771784D01*
X116904853Y-93919354D01*
X116779354Y-94044853D01*
X116631784Y-94143456D01*
X116467812Y-94211376D01*
X116318512Y-94241073D01*
X116293742Y-94246000D01*
X116116258Y-94246000D01*
X116091488Y-94241073D01*
X115942188Y-94211376D01*
X115778216Y-94143456D01*
X115630646Y-94044853D01*
X115505147Y-93919354D01*
X115406544Y-93771784D01*
X115338624Y-93607812D01*
X115304000Y-93433741D01*
X115304000Y-93256259D01*
X115338624Y-93082188D01*
X115406544Y-92918216D01*
X115505147Y-92770646D01*
X115630646Y-92645147D01*
X115778216Y-92546544D01*
X115942188Y-92478624D01*
X116091488Y-92448927D01*
X116116258Y-92444000D01*
X116293742Y-92444000D01*
X116318512Y-92448927D01*
G37*
G36*
X114566000Y-94246000D02*
G01*
X112764000Y-94246000D01*
X112764000Y-92444000D01*
X114566000Y-92444000D01*
X114566000Y-94246000D01*
G37*
G36*
X122168228Y-91256703D02*
G01*
X122323100Y-91320853D01*
X122462481Y-91413985D01*
X122581015Y-91532519D01*
X122674147Y-91671900D01*
X122738297Y-91826772D01*
X122771000Y-91991184D01*
X122771000Y-92158816D01*
X122738297Y-92323228D01*
X122674147Y-92478100D01*
X122581015Y-92617481D01*
X122462481Y-92736015D01*
X122323100Y-92829147D01*
X122168228Y-92893297D01*
X122003816Y-92926000D01*
X121836184Y-92926000D01*
X121671772Y-92893297D01*
X121516900Y-92829147D01*
X121377519Y-92736015D01*
X121258985Y-92617481D01*
X121165853Y-92478100D01*
X121101703Y-92323228D01*
X121069000Y-92158816D01*
X121069000Y-91991184D01*
X121101703Y-91826772D01*
X121165853Y-91671900D01*
X121258985Y-91532519D01*
X121377519Y-91413985D01*
X121516900Y-91320853D01*
X121671772Y-91256703D01*
X121836184Y-91224000D01*
X122003816Y-91224000D01*
X122168228Y-91256703D01*
G37*
G36*
X129788228Y-91256703D02*
G01*
X129943100Y-91320853D01*
X130082481Y-91413985D01*
X130201015Y-91532519D01*
X130294147Y-91671900D01*
X130358297Y-91826772D01*
X130391000Y-91991184D01*
X130391000Y-92158816D01*
X130358297Y-92323228D01*
X130294147Y-92478100D01*
X130201015Y-92617481D01*
X130082481Y-92736015D01*
X129943100Y-92829147D01*
X129788228Y-92893297D01*
X129623816Y-92926000D01*
X129456184Y-92926000D01*
X129291772Y-92893297D01*
X129136900Y-92829147D01*
X128997519Y-92736015D01*
X128878985Y-92617481D01*
X128785853Y-92478100D01*
X128721703Y-92323228D01*
X128689000Y-92158816D01*
X128689000Y-91991184D01*
X128721703Y-91826772D01*
X128785853Y-91671900D01*
X128878985Y-91532519D01*
X128997519Y-91413985D01*
X129136900Y-91320853D01*
X129291772Y-91256703D01*
X129456184Y-91224000D01*
X129623816Y-91224000D01*
X129788228Y-91256703D01*
G37*
G36*
X138534769Y-90542188D02*
G01*
X138692812Y-90573624D01*
X138856784Y-90641544D01*
X139004354Y-90740147D01*
X139129853Y-90865646D01*
X139228456Y-91013216D01*
X139296376Y-91177188D01*
X139331000Y-91351259D01*
X139331000Y-91528741D01*
X139296376Y-91702812D01*
X139228456Y-91866784D01*
X139129853Y-92014354D01*
X139004354Y-92139853D01*
X138856784Y-92238456D01*
X138692812Y-92306376D01*
X138543512Y-92336073D01*
X138518742Y-92341000D01*
X138341258Y-92341000D01*
X138316488Y-92336073D01*
X138167188Y-92306376D01*
X138003216Y-92238456D01*
X137855646Y-92139853D01*
X137730147Y-92014354D01*
X137631544Y-91866784D01*
X137563624Y-91702812D01*
X137529000Y-91528741D01*
X137529000Y-91351259D01*
X137563624Y-91177188D01*
X137631544Y-91013216D01*
X137730147Y-90865646D01*
X137855646Y-90740147D01*
X138003216Y-90641544D01*
X138167188Y-90573624D01*
X138325231Y-90542188D01*
X138341258Y-90539000D01*
X138518742Y-90539000D01*
X138534769Y-90542188D01*
G37*
G36*
X156314769Y-90542188D02*
G01*
X156472812Y-90573624D01*
X156636784Y-90641544D01*
X156784354Y-90740147D01*
X156909853Y-90865646D01*
X157008456Y-91013216D01*
X157076376Y-91177188D01*
X157111000Y-91351259D01*
X157111000Y-91528741D01*
X157076376Y-91702812D01*
X157008456Y-91866784D01*
X156909853Y-92014354D01*
X156784354Y-92139853D01*
X156636784Y-92238456D01*
X156472812Y-92306376D01*
X156323512Y-92336073D01*
X156298742Y-92341000D01*
X156121258Y-92341000D01*
X156096488Y-92336073D01*
X155947188Y-92306376D01*
X155783216Y-92238456D01*
X155635646Y-92139853D01*
X155510147Y-92014354D01*
X155411544Y-91866784D01*
X155343624Y-91702812D01*
X155309000Y-91528741D01*
X155309000Y-91351259D01*
X155343624Y-91177188D01*
X155411544Y-91013216D01*
X155510147Y-90865646D01*
X155635646Y-90740147D01*
X155783216Y-90641544D01*
X155947188Y-90573624D01*
X156105231Y-90542188D01*
X156121258Y-90539000D01*
X156298742Y-90539000D01*
X156314769Y-90542188D01*
G37*
G36*
X113778512Y-89908927D02*
G01*
X113927812Y-89938624D01*
X114091784Y-90006544D01*
X114239354Y-90105147D01*
X114364853Y-90230646D01*
X114463456Y-90378216D01*
X114531376Y-90542188D01*
X114566000Y-90716259D01*
X114566000Y-90893741D01*
X114531376Y-91067812D01*
X114463456Y-91231784D01*
X114364853Y-91379354D01*
X114239354Y-91504853D01*
X114091784Y-91603456D01*
X113927812Y-91671376D01*
X113778512Y-91701073D01*
X113753742Y-91706000D01*
X113576258Y-91706000D01*
X113551488Y-91701073D01*
X113402188Y-91671376D01*
X113238216Y-91603456D01*
X113090646Y-91504853D01*
X112965147Y-91379354D01*
X112866544Y-91231784D01*
X112798624Y-91067812D01*
X112764000Y-90893741D01*
X112764000Y-90716259D01*
X112798624Y-90542188D01*
X112866544Y-90378216D01*
X112965147Y-90230646D01*
X113090646Y-90105147D01*
X113238216Y-90006544D01*
X113402188Y-89938624D01*
X113551488Y-89908927D01*
X113576258Y-89904000D01*
X113753742Y-89904000D01*
X113778512Y-89908927D01*
G37*
G36*
X116318512Y-89908927D02*
G01*
X116467812Y-89938624D01*
X116631784Y-90006544D01*
X116779354Y-90105147D01*
X116904853Y-90230646D01*
X117003456Y-90378216D01*
X117071376Y-90542188D01*
X117106000Y-90716259D01*
X117106000Y-90893741D01*
X117071376Y-91067812D01*
X117003456Y-91231784D01*
X116904853Y-91379354D01*
X116779354Y-91504853D01*
X116631784Y-91603456D01*
X116467812Y-91671376D01*
X116318512Y-91701073D01*
X116293742Y-91706000D01*
X116116258Y-91706000D01*
X116091488Y-91701073D01*
X115942188Y-91671376D01*
X115778216Y-91603456D01*
X115630646Y-91504853D01*
X115505147Y-91379354D01*
X115406544Y-91231784D01*
X115338624Y-91067812D01*
X115304000Y-90893741D01*
X115304000Y-90716259D01*
X115338624Y-90542188D01*
X115406544Y-90378216D01*
X115505147Y-90230646D01*
X115630646Y-90105147D01*
X115778216Y-90006544D01*
X115942188Y-89938624D01*
X116091488Y-89908927D01*
X116116258Y-89904000D01*
X116293742Y-89904000D01*
X116318512Y-89908927D01*
G37*
G36*
X129788228Y-88716703D02*
G01*
X129943100Y-88780853D01*
X130082481Y-88873985D01*
X130201015Y-88992519D01*
X130294147Y-89131900D01*
X130358297Y-89286772D01*
X130391000Y-89451184D01*
X130391000Y-89618816D01*
X130358297Y-89783228D01*
X130294147Y-89938100D01*
X130201015Y-90077481D01*
X130082481Y-90196015D01*
X129943100Y-90289147D01*
X129788228Y-90353297D01*
X129623816Y-90386000D01*
X129456184Y-90386000D01*
X129291772Y-90353297D01*
X129136900Y-90289147D01*
X128997519Y-90196015D01*
X128878985Y-90077481D01*
X128785853Y-89938100D01*
X128721703Y-89783228D01*
X128689000Y-89618816D01*
X128689000Y-89451184D01*
X128721703Y-89286772D01*
X128785853Y-89131900D01*
X128878985Y-88992519D01*
X128997519Y-88873985D01*
X129136900Y-88780853D01*
X129291772Y-88716703D01*
X129456184Y-88684000D01*
X129623816Y-88684000D01*
X129788228Y-88716703D01*
G37*
G36*
X122168228Y-88716703D02*
G01*
X122323100Y-88780853D01*
X122462481Y-88873985D01*
X122581015Y-88992519D01*
X122674147Y-89131900D01*
X122738297Y-89286772D01*
X122771000Y-89451184D01*
X122771000Y-89618816D01*
X122738297Y-89783228D01*
X122674147Y-89938100D01*
X122581015Y-90077481D01*
X122462481Y-90196015D01*
X122323100Y-90289147D01*
X122168228Y-90353297D01*
X122003816Y-90386000D01*
X121836184Y-90386000D01*
X121671772Y-90353297D01*
X121516900Y-90289147D01*
X121377519Y-90196015D01*
X121258985Y-90077481D01*
X121165853Y-89938100D01*
X121101703Y-89783228D01*
X121069000Y-89618816D01*
X121069000Y-89451184D01*
X121101703Y-89286772D01*
X121165853Y-89131900D01*
X121258985Y-88992519D01*
X121377519Y-88873985D01*
X121516900Y-88780853D01*
X121671772Y-88716703D01*
X121836184Y-88684000D01*
X122003816Y-88684000D01*
X122168228Y-88716703D01*
G37*
G36*
X157111000Y-89801000D02*
G01*
X155309000Y-89801000D01*
X155309000Y-87999000D01*
X157111000Y-87999000D01*
X157111000Y-89801000D01*
G37*
G36*
X139331000Y-89801000D02*
G01*
X137529000Y-89801000D01*
X137529000Y-87999000D01*
X139331000Y-87999000D01*
X139331000Y-89801000D01*
G37*
G36*
X116318512Y-87368927D02*
G01*
X116467812Y-87398624D01*
X116631784Y-87466544D01*
X116779354Y-87565147D01*
X116904853Y-87690646D01*
X117003456Y-87838216D01*
X117071376Y-88002188D01*
X117106000Y-88176259D01*
X117106000Y-88353741D01*
X117071376Y-88527812D01*
X117003456Y-88691784D01*
X116904853Y-88839354D01*
X116779354Y-88964853D01*
X116631784Y-89063456D01*
X116467812Y-89131376D01*
X116318512Y-89161073D01*
X116293742Y-89166000D01*
X116116258Y-89166000D01*
X116091488Y-89161073D01*
X115942188Y-89131376D01*
X115778216Y-89063456D01*
X115630646Y-88964853D01*
X115505147Y-88839354D01*
X115406544Y-88691784D01*
X115338624Y-88527812D01*
X115304000Y-88353741D01*
X115304000Y-88176259D01*
X115338624Y-88002188D01*
X115406544Y-87838216D01*
X115505147Y-87690646D01*
X115630646Y-87565147D01*
X115778216Y-87466544D01*
X115942188Y-87398624D01*
X116091488Y-87368927D01*
X116116258Y-87364000D01*
X116293742Y-87364000D01*
X116318512Y-87368927D01*
G37*
G36*
X113778512Y-87368927D02*
G01*
X113927812Y-87398624D01*
X114091784Y-87466544D01*
X114239354Y-87565147D01*
X114364853Y-87690646D01*
X114463456Y-87838216D01*
X114531376Y-88002188D01*
X114566000Y-88176259D01*
X114566000Y-88353741D01*
X114531376Y-88527812D01*
X114463456Y-88691784D01*
X114364853Y-88839354D01*
X114239354Y-88964853D01*
X114091784Y-89063456D01*
X113927812Y-89131376D01*
X113778512Y-89161073D01*
X113753742Y-89166000D01*
X113576258Y-89166000D01*
X113551488Y-89161073D01*
X113402188Y-89131376D01*
X113238216Y-89063456D01*
X113090646Y-88964853D01*
X112965147Y-88839354D01*
X112866544Y-88691784D01*
X112798624Y-88527812D01*
X112764000Y-88353741D01*
X112764000Y-88176259D01*
X112798624Y-88002188D01*
X112866544Y-87838216D01*
X112965147Y-87690646D01*
X113090646Y-87565147D01*
X113238216Y-87466544D01*
X113402188Y-87398624D01*
X113551488Y-87368927D01*
X113576258Y-87364000D01*
X113753742Y-87364000D01*
X113778512Y-87368927D01*
G37*
G36*
X129788228Y-86176703D02*
G01*
X129943100Y-86240853D01*
X130082481Y-86333985D01*
X130201015Y-86452519D01*
X130294147Y-86591900D01*
X130358297Y-86746772D01*
X130391000Y-86911184D01*
X130391000Y-87078816D01*
X130358297Y-87243228D01*
X130294147Y-87398100D01*
X130201015Y-87537481D01*
X130082481Y-87656015D01*
X129943100Y-87749147D01*
X129788228Y-87813297D01*
X129623816Y-87846000D01*
X129456184Y-87846000D01*
X129291772Y-87813297D01*
X129136900Y-87749147D01*
X128997519Y-87656015D01*
X128878985Y-87537481D01*
X128785853Y-87398100D01*
X128721703Y-87243228D01*
X128689000Y-87078816D01*
X128689000Y-86911184D01*
X128721703Y-86746772D01*
X128785853Y-86591900D01*
X128878985Y-86452519D01*
X128997519Y-86333985D01*
X129136900Y-86240853D01*
X129291772Y-86176703D01*
X129456184Y-86144000D01*
X129623816Y-86144000D01*
X129788228Y-86176703D01*
G37*
G36*
X122168228Y-86176703D02*
G01*
X122323100Y-86240853D01*
X122462481Y-86333985D01*
X122581015Y-86452519D01*
X122674147Y-86591900D01*
X122738297Y-86746772D01*
X122771000Y-86911184D01*
X122771000Y-87078816D01*
X122738297Y-87243228D01*
X122674147Y-87398100D01*
X122581015Y-87537481D01*
X122462481Y-87656015D01*
X122323100Y-87749147D01*
X122168228Y-87813297D01*
X122003816Y-87846000D01*
X121836184Y-87846000D01*
X121671772Y-87813297D01*
X121516900Y-87749147D01*
X121377519Y-87656015D01*
X121258985Y-87537481D01*
X121165853Y-87398100D01*
X121101703Y-87243228D01*
X121069000Y-87078816D01*
X121069000Y-86911184D01*
X121101703Y-86746772D01*
X121165853Y-86591900D01*
X121258985Y-86452519D01*
X121377519Y-86333985D01*
X121516900Y-86240853D01*
X121671772Y-86176703D01*
X121836184Y-86144000D01*
X122003816Y-86144000D01*
X122168228Y-86176703D01*
G37*
G36*
X138534769Y-85462188D02*
G01*
X138692812Y-85493624D01*
X138856784Y-85561544D01*
X139004354Y-85660147D01*
X139129853Y-85785646D01*
X139228456Y-85933216D01*
X139296376Y-86097188D01*
X139331000Y-86271259D01*
X139331000Y-86448741D01*
X139296376Y-86622812D01*
X139228456Y-86786784D01*
X139129853Y-86934354D01*
X139004354Y-87059853D01*
X138856784Y-87158456D01*
X138692812Y-87226376D01*
X138543512Y-87256073D01*
X138518742Y-87261000D01*
X138341258Y-87261000D01*
X138316488Y-87256073D01*
X138167188Y-87226376D01*
X138003216Y-87158456D01*
X137855646Y-87059853D01*
X137730147Y-86934354D01*
X137631544Y-86786784D01*
X137563624Y-86622812D01*
X137529000Y-86448741D01*
X137529000Y-86271259D01*
X137563624Y-86097188D01*
X137631544Y-85933216D01*
X137730147Y-85785646D01*
X137855646Y-85660147D01*
X138003216Y-85561544D01*
X138167188Y-85493624D01*
X138325231Y-85462188D01*
X138341258Y-85459000D01*
X138518742Y-85459000D01*
X138534769Y-85462188D01*
G37*
G36*
X156314769Y-85462188D02*
G01*
X156472812Y-85493624D01*
X156636784Y-85561544D01*
X156784354Y-85660147D01*
X156909853Y-85785646D01*
X157008456Y-85933216D01*
X157076376Y-86097188D01*
X157111000Y-86271259D01*
X157111000Y-86448741D01*
X157076376Y-86622812D01*
X157008456Y-86786784D01*
X156909853Y-86934354D01*
X156784354Y-87059853D01*
X156636784Y-87158456D01*
X156472812Y-87226376D01*
X156323512Y-87256073D01*
X156298742Y-87261000D01*
X156121258Y-87261000D01*
X156096488Y-87256073D01*
X155947188Y-87226376D01*
X155783216Y-87158456D01*
X155635646Y-87059853D01*
X155510147Y-86934354D01*
X155411544Y-86786784D01*
X155343624Y-86622812D01*
X155309000Y-86448741D01*
X155309000Y-86271259D01*
X155343624Y-86097188D01*
X155411544Y-85933216D01*
X155510147Y-85785646D01*
X155635646Y-85660147D01*
X155783216Y-85561544D01*
X155947188Y-85493624D01*
X156105231Y-85462188D01*
X156121258Y-85459000D01*
X156298742Y-85459000D01*
X156314769Y-85462188D01*
G37*
G36*
X113778512Y-84828927D02*
G01*
X113927812Y-84858624D01*
X114091784Y-84926544D01*
X114239354Y-85025147D01*
X114364853Y-85150646D01*
X114463456Y-85298216D01*
X114531376Y-85462188D01*
X114566000Y-85636259D01*
X114566000Y-85813741D01*
X114531376Y-85987812D01*
X114463456Y-86151784D01*
X114364853Y-86299354D01*
X114239354Y-86424853D01*
X114091784Y-86523456D01*
X113927812Y-86591376D01*
X113778512Y-86621073D01*
X113753742Y-86626000D01*
X113576258Y-86626000D01*
X113551488Y-86621073D01*
X113402188Y-86591376D01*
X113238216Y-86523456D01*
X113090646Y-86424853D01*
X112965147Y-86299354D01*
X112866544Y-86151784D01*
X112798624Y-85987812D01*
X112764000Y-85813741D01*
X112764000Y-85636259D01*
X112798624Y-85462188D01*
X112866544Y-85298216D01*
X112965147Y-85150646D01*
X113090646Y-85025147D01*
X113238216Y-84926544D01*
X113402188Y-84858624D01*
X113551488Y-84828927D01*
X113576258Y-84824000D01*
X113753742Y-84824000D01*
X113778512Y-84828927D01*
G37*
G36*
X116318512Y-84828927D02*
G01*
X116467812Y-84858624D01*
X116631784Y-84926544D01*
X116779354Y-85025147D01*
X116904853Y-85150646D01*
X117003456Y-85298216D01*
X117071376Y-85462188D01*
X117106000Y-85636259D01*
X117106000Y-85813741D01*
X117071376Y-85987812D01*
X117003456Y-86151784D01*
X116904853Y-86299354D01*
X116779354Y-86424853D01*
X116631784Y-86523456D01*
X116467812Y-86591376D01*
X116318512Y-86621073D01*
X116293742Y-86626000D01*
X116116258Y-86626000D01*
X116091488Y-86621073D01*
X115942188Y-86591376D01*
X115778216Y-86523456D01*
X115630646Y-86424853D01*
X115505147Y-86299354D01*
X115406544Y-86151784D01*
X115338624Y-85987812D01*
X115304000Y-85813741D01*
X115304000Y-85636259D01*
X115338624Y-85462188D01*
X115406544Y-85298216D01*
X115505147Y-85150646D01*
X115630646Y-85025147D01*
X115778216Y-84926544D01*
X115942188Y-84858624D01*
X116091488Y-84828927D01*
X116116258Y-84824000D01*
X116293742Y-84824000D01*
X116318512Y-84828927D01*
G37*
G36*
X129788228Y-83636703D02*
G01*
X129943100Y-83700853D01*
X130082481Y-83793985D01*
X130201015Y-83912519D01*
X130294147Y-84051900D01*
X130358297Y-84206772D01*
X130391000Y-84371184D01*
X130391000Y-84538816D01*
X130358297Y-84703228D01*
X130294147Y-84858100D01*
X130201015Y-84997481D01*
X130082481Y-85116015D01*
X129943100Y-85209147D01*
X129788228Y-85273297D01*
X129623816Y-85306000D01*
X129456184Y-85306000D01*
X129291772Y-85273297D01*
X129136900Y-85209147D01*
X128997519Y-85116015D01*
X128878985Y-84997481D01*
X128785853Y-84858100D01*
X128721703Y-84703228D01*
X128689000Y-84538816D01*
X128689000Y-84371184D01*
X128721703Y-84206772D01*
X128785853Y-84051900D01*
X128878985Y-83912519D01*
X128997519Y-83793985D01*
X129136900Y-83700853D01*
X129291772Y-83636703D01*
X129456184Y-83604000D01*
X129623816Y-83604000D01*
X129788228Y-83636703D01*
G37*
G36*
X122168228Y-83636703D02*
G01*
X122323100Y-83700853D01*
X122462481Y-83793985D01*
X122581015Y-83912519D01*
X122674147Y-84051900D01*
X122738297Y-84206772D01*
X122771000Y-84371184D01*
X122771000Y-84538816D01*
X122738297Y-84703228D01*
X122674147Y-84858100D01*
X122581015Y-84997481D01*
X122462481Y-85116015D01*
X122323100Y-85209147D01*
X122168228Y-85273297D01*
X122003816Y-85306000D01*
X121836184Y-85306000D01*
X121671772Y-85273297D01*
X121516900Y-85209147D01*
X121377519Y-85116015D01*
X121258985Y-84997481D01*
X121165853Y-84858100D01*
X121101703Y-84703228D01*
X121069000Y-84538816D01*
X121069000Y-84371184D01*
X121101703Y-84206772D01*
X121165853Y-84051900D01*
X121258985Y-83912519D01*
X121377519Y-83793985D01*
X121516900Y-83700853D01*
X121671772Y-83636703D01*
X121836184Y-83604000D01*
X122003816Y-83604000D01*
X122168228Y-83636703D01*
G37*
G36*
X138534769Y-82922188D02*
G01*
X138692812Y-82953624D01*
X138856784Y-83021544D01*
X139004354Y-83120147D01*
X139129853Y-83245646D01*
X139228456Y-83393216D01*
X139296376Y-83557188D01*
X139331000Y-83731259D01*
X139331000Y-83908741D01*
X139296376Y-84082812D01*
X139228456Y-84246784D01*
X139129853Y-84394354D01*
X139004354Y-84519853D01*
X138856784Y-84618456D01*
X138692812Y-84686376D01*
X138543512Y-84716073D01*
X138518742Y-84721000D01*
X138341258Y-84721000D01*
X138316488Y-84716073D01*
X138167188Y-84686376D01*
X138003216Y-84618456D01*
X137855646Y-84519853D01*
X137730147Y-84394354D01*
X137631544Y-84246784D01*
X137563624Y-84082812D01*
X137529000Y-83908741D01*
X137529000Y-83731259D01*
X137563624Y-83557188D01*
X137631544Y-83393216D01*
X137730147Y-83245646D01*
X137855646Y-83120147D01*
X138003216Y-83021544D01*
X138167188Y-82953624D01*
X138325231Y-82922188D01*
X138341258Y-82919000D01*
X138518742Y-82919000D01*
X138534769Y-82922188D01*
G37*
G36*
X156314769Y-82922188D02*
G01*
X156472812Y-82953624D01*
X156636784Y-83021544D01*
X156784354Y-83120147D01*
X156909853Y-83245646D01*
X157008456Y-83393216D01*
X157076376Y-83557188D01*
X157111000Y-83731259D01*
X157111000Y-83908741D01*
X157076376Y-84082812D01*
X157008456Y-84246784D01*
X156909853Y-84394354D01*
X156784354Y-84519853D01*
X156636784Y-84618456D01*
X156472812Y-84686376D01*
X156323512Y-84716073D01*
X156298742Y-84721000D01*
X156121258Y-84721000D01*
X156096488Y-84716073D01*
X155947188Y-84686376D01*
X155783216Y-84618456D01*
X155635646Y-84519853D01*
X155510147Y-84394354D01*
X155411544Y-84246784D01*
X155343624Y-84082812D01*
X155309000Y-83908741D01*
X155309000Y-83731259D01*
X155343624Y-83557188D01*
X155411544Y-83393216D01*
X155510147Y-83245646D01*
X155635646Y-83120147D01*
X155783216Y-83021544D01*
X155947188Y-82953624D01*
X156105231Y-82922188D01*
X156121258Y-82919000D01*
X156298742Y-82919000D01*
X156314769Y-82922188D01*
G37*
G36*
X113778512Y-82288927D02*
G01*
X113927812Y-82318624D01*
X114091784Y-82386544D01*
X114239354Y-82485147D01*
X114364853Y-82610646D01*
X114463456Y-82758216D01*
X114531376Y-82922188D01*
X114566000Y-83096259D01*
X114566000Y-83273741D01*
X114531376Y-83447812D01*
X114463456Y-83611784D01*
X114364853Y-83759354D01*
X114239354Y-83884853D01*
X114091784Y-83983456D01*
X113927812Y-84051376D01*
X113778512Y-84081073D01*
X113753742Y-84086000D01*
X113576258Y-84086000D01*
X113551488Y-84081073D01*
X113402188Y-84051376D01*
X113238216Y-83983456D01*
X113090646Y-83884853D01*
X112965147Y-83759354D01*
X112866544Y-83611784D01*
X112798624Y-83447812D01*
X112764000Y-83273741D01*
X112764000Y-83096259D01*
X112798624Y-82922188D01*
X112866544Y-82758216D01*
X112965147Y-82610646D01*
X113090646Y-82485147D01*
X113238216Y-82386544D01*
X113402188Y-82318624D01*
X113551488Y-82288927D01*
X113576258Y-82284000D01*
X113753742Y-82284000D01*
X113778512Y-82288927D01*
G37*
G36*
X116318512Y-82288927D02*
G01*
X116467812Y-82318624D01*
X116631784Y-82386544D01*
X116779354Y-82485147D01*
X116904853Y-82610646D01*
X117003456Y-82758216D01*
X117071376Y-82922188D01*
X117106000Y-83096259D01*
X117106000Y-83273741D01*
X117071376Y-83447812D01*
X117003456Y-83611784D01*
X116904853Y-83759354D01*
X116779354Y-83884853D01*
X116631784Y-83983456D01*
X116467812Y-84051376D01*
X116318512Y-84081073D01*
X116293742Y-84086000D01*
X116116258Y-84086000D01*
X116091488Y-84081073D01*
X115942188Y-84051376D01*
X115778216Y-83983456D01*
X115630646Y-83884853D01*
X115505147Y-83759354D01*
X115406544Y-83611784D01*
X115338624Y-83447812D01*
X115304000Y-83273741D01*
X115304000Y-83096259D01*
X115338624Y-82922188D01*
X115406544Y-82758216D01*
X115505147Y-82610646D01*
X115630646Y-82485147D01*
X115778216Y-82386544D01*
X115942188Y-82318624D01*
X116091488Y-82288927D01*
X116116258Y-82284000D01*
X116293742Y-82284000D01*
X116318512Y-82288927D01*
G37*
G36*
X122168228Y-81096703D02*
G01*
X122323100Y-81160853D01*
X122462481Y-81253985D01*
X122581015Y-81372519D01*
X122674147Y-81511900D01*
X122738297Y-81666772D01*
X122771000Y-81831184D01*
X122771000Y-81998816D01*
X122738297Y-82163228D01*
X122674147Y-82318100D01*
X122581015Y-82457481D01*
X122462481Y-82576015D01*
X122323100Y-82669147D01*
X122168228Y-82733297D01*
X122003816Y-82766000D01*
X121836184Y-82766000D01*
X121671772Y-82733297D01*
X121516900Y-82669147D01*
X121377519Y-82576015D01*
X121258985Y-82457481D01*
X121165853Y-82318100D01*
X121101703Y-82163228D01*
X121069000Y-81998816D01*
X121069000Y-81831184D01*
X121101703Y-81666772D01*
X121165853Y-81511900D01*
X121258985Y-81372519D01*
X121377519Y-81253985D01*
X121516900Y-81160853D01*
X121671772Y-81096703D01*
X121836184Y-81064000D01*
X122003816Y-81064000D01*
X122168228Y-81096703D01*
G37*
G36*
X129788228Y-81096703D02*
G01*
X129943100Y-81160853D01*
X130082481Y-81253985D01*
X130201015Y-81372519D01*
X130294147Y-81511900D01*
X130358297Y-81666772D01*
X130391000Y-81831184D01*
X130391000Y-81998816D01*
X130358297Y-82163228D01*
X130294147Y-82318100D01*
X130201015Y-82457481D01*
X130082481Y-82576015D01*
X129943100Y-82669147D01*
X129788228Y-82733297D01*
X129623816Y-82766000D01*
X129456184Y-82766000D01*
X129291772Y-82733297D01*
X129136900Y-82669147D01*
X128997519Y-82576015D01*
X128878985Y-82457481D01*
X128785853Y-82318100D01*
X128721703Y-82163228D01*
X128689000Y-81998816D01*
X128689000Y-81831184D01*
X128721703Y-81666772D01*
X128785853Y-81511900D01*
X128878985Y-81372519D01*
X128997519Y-81253985D01*
X129136900Y-81160853D01*
X129291772Y-81096703D01*
X129456184Y-81064000D01*
X129623816Y-81064000D01*
X129788228Y-81096703D01*
G37*
G36*
X138534769Y-80382188D02*
G01*
X138692812Y-80413624D01*
X138856784Y-80481544D01*
X139004354Y-80580147D01*
X139129853Y-80705646D01*
X139228456Y-80853216D01*
X139296376Y-81017188D01*
X139331000Y-81191259D01*
X139331000Y-81368741D01*
X139296376Y-81542812D01*
X139228456Y-81706784D01*
X139129853Y-81854354D01*
X139004354Y-81979853D01*
X138856784Y-82078456D01*
X138692812Y-82146376D01*
X138543512Y-82176073D01*
X138518742Y-82181000D01*
X138341258Y-82181000D01*
X138316488Y-82176073D01*
X138167188Y-82146376D01*
X138003216Y-82078456D01*
X137855646Y-81979853D01*
X137730147Y-81854354D01*
X137631544Y-81706784D01*
X137563624Y-81542812D01*
X137529000Y-81368741D01*
X137529000Y-81191259D01*
X137563624Y-81017188D01*
X137631544Y-80853216D01*
X137730147Y-80705646D01*
X137855646Y-80580147D01*
X138003216Y-80481544D01*
X138167188Y-80413624D01*
X138325231Y-80382188D01*
X138341258Y-80379000D01*
X138518742Y-80379000D01*
X138534769Y-80382188D01*
G37*
G36*
X156314769Y-80382188D02*
G01*
X156472812Y-80413624D01*
X156636784Y-80481544D01*
X156784354Y-80580147D01*
X156909853Y-80705646D01*
X157008456Y-80853216D01*
X157076376Y-81017188D01*
X157111000Y-81191259D01*
X157111000Y-81368741D01*
X157076376Y-81542812D01*
X157008456Y-81706784D01*
X156909853Y-81854354D01*
X156784354Y-81979853D01*
X156636784Y-82078456D01*
X156472812Y-82146376D01*
X156323512Y-82176073D01*
X156298742Y-82181000D01*
X156121258Y-82181000D01*
X156096488Y-82176073D01*
X155947188Y-82146376D01*
X155783216Y-82078456D01*
X155635646Y-81979853D01*
X155510147Y-81854354D01*
X155411544Y-81706784D01*
X155343624Y-81542812D01*
X155309000Y-81368741D01*
X155309000Y-81191259D01*
X155343624Y-81017188D01*
X155411544Y-80853216D01*
X155510147Y-80705646D01*
X155635646Y-80580147D01*
X155783216Y-80481544D01*
X155947188Y-80413624D01*
X156105231Y-80382188D01*
X156121258Y-80379000D01*
X156298742Y-80379000D01*
X156314769Y-80382188D01*
G37*
G36*
X116318512Y-79748927D02*
G01*
X116467812Y-79778624D01*
X116631784Y-79846544D01*
X116779354Y-79945147D01*
X116904853Y-80070646D01*
X117003456Y-80218216D01*
X117071376Y-80382188D01*
X117106000Y-80556259D01*
X117106000Y-80733741D01*
X117071376Y-80907812D01*
X117003456Y-81071784D01*
X116904853Y-81219354D01*
X116779354Y-81344853D01*
X116631784Y-81443456D01*
X116467812Y-81511376D01*
X116318512Y-81541073D01*
X116293742Y-81546000D01*
X116116258Y-81546000D01*
X116091488Y-81541073D01*
X115942188Y-81511376D01*
X115778216Y-81443456D01*
X115630646Y-81344853D01*
X115505147Y-81219354D01*
X115406544Y-81071784D01*
X115338624Y-80907812D01*
X115304000Y-80733741D01*
X115304000Y-80556259D01*
X115338624Y-80382188D01*
X115406544Y-80218216D01*
X115505147Y-80070646D01*
X115630646Y-79945147D01*
X115778216Y-79846544D01*
X115942188Y-79778624D01*
X116091488Y-79748927D01*
X116116258Y-79744000D01*
X116293742Y-79744000D01*
X116318512Y-79748927D01*
G37*
G36*
X113778512Y-79748927D02*
G01*
X113927812Y-79778624D01*
X114091784Y-79846544D01*
X114239354Y-79945147D01*
X114364853Y-80070646D01*
X114463456Y-80218216D01*
X114531376Y-80382188D01*
X114566000Y-80556259D01*
X114566000Y-80733741D01*
X114531376Y-80907812D01*
X114463456Y-81071784D01*
X114364853Y-81219354D01*
X114239354Y-81344853D01*
X114091784Y-81443456D01*
X113927812Y-81511376D01*
X113778512Y-81541073D01*
X113753742Y-81546000D01*
X113576258Y-81546000D01*
X113551488Y-81541073D01*
X113402188Y-81511376D01*
X113238216Y-81443456D01*
X113090646Y-81344853D01*
X112965147Y-81219354D01*
X112866544Y-81071784D01*
X112798624Y-80907812D01*
X112764000Y-80733741D01*
X112764000Y-80556259D01*
X112798624Y-80382188D01*
X112866544Y-80218216D01*
X112965147Y-80070646D01*
X113090646Y-79945147D01*
X113238216Y-79846544D01*
X113402188Y-79778624D01*
X113551488Y-79748927D01*
X113576258Y-79744000D01*
X113753742Y-79744000D01*
X113778512Y-79748927D01*
G37*
G36*
X129788228Y-78556703D02*
G01*
X129943100Y-78620853D01*
X130082481Y-78713985D01*
X130201015Y-78832519D01*
X130294147Y-78971900D01*
X130358297Y-79126772D01*
X130391000Y-79291184D01*
X130391000Y-79458816D01*
X130358297Y-79623228D01*
X130294147Y-79778100D01*
X130201015Y-79917481D01*
X130082481Y-80036015D01*
X129943100Y-80129147D01*
X129788228Y-80193297D01*
X129623816Y-80226000D01*
X129456184Y-80226000D01*
X129291772Y-80193297D01*
X129136900Y-80129147D01*
X128997519Y-80036015D01*
X128878985Y-79917481D01*
X128785853Y-79778100D01*
X128721703Y-79623228D01*
X128689000Y-79458816D01*
X128689000Y-79291184D01*
X128721703Y-79126772D01*
X128785853Y-78971900D01*
X128878985Y-78832519D01*
X128997519Y-78713985D01*
X129136900Y-78620853D01*
X129291772Y-78556703D01*
X129456184Y-78524000D01*
X129623816Y-78524000D01*
X129788228Y-78556703D01*
G37*
G36*
X122168228Y-78556703D02*
G01*
X122323100Y-78620853D01*
X122462481Y-78713985D01*
X122581015Y-78832519D01*
X122674147Y-78971900D01*
X122738297Y-79126772D01*
X122771000Y-79291184D01*
X122771000Y-79458816D01*
X122738297Y-79623228D01*
X122674147Y-79778100D01*
X122581015Y-79917481D01*
X122462481Y-80036015D01*
X122323100Y-80129147D01*
X122168228Y-80193297D01*
X122003816Y-80226000D01*
X121836184Y-80226000D01*
X121671772Y-80193297D01*
X121516900Y-80129147D01*
X121377519Y-80036015D01*
X121258985Y-79917481D01*
X121165853Y-79778100D01*
X121101703Y-79623228D01*
X121069000Y-79458816D01*
X121069000Y-79291184D01*
X121101703Y-79126772D01*
X121165853Y-78971900D01*
X121258985Y-78832519D01*
X121377519Y-78713985D01*
X121516900Y-78620853D01*
X121671772Y-78556703D01*
X121836184Y-78524000D01*
X122003816Y-78524000D01*
X122168228Y-78556703D01*
G37*
G36*
X156314769Y-77842188D02*
G01*
X156472812Y-77873624D01*
X156636784Y-77941544D01*
X156784354Y-78040147D01*
X156909853Y-78165646D01*
X157008456Y-78313216D01*
X157076376Y-78477188D01*
X157111000Y-78651259D01*
X157111000Y-78828741D01*
X157076376Y-79002812D01*
X157008456Y-79166784D01*
X156909853Y-79314354D01*
X156784354Y-79439853D01*
X156636784Y-79538456D01*
X156472812Y-79606376D01*
X156323512Y-79636073D01*
X156298742Y-79641000D01*
X156121258Y-79641000D01*
X156096488Y-79636073D01*
X155947188Y-79606376D01*
X155783216Y-79538456D01*
X155635646Y-79439853D01*
X155510147Y-79314354D01*
X155411544Y-79166784D01*
X155343624Y-79002812D01*
X155309000Y-78828741D01*
X155309000Y-78651259D01*
X155343624Y-78477188D01*
X155411544Y-78313216D01*
X155510147Y-78165646D01*
X155635646Y-78040147D01*
X155783216Y-77941544D01*
X155947188Y-77873624D01*
X156105231Y-77842188D01*
X156121258Y-77839000D01*
X156298742Y-77839000D01*
X156314769Y-77842188D01*
G37*
G36*
X138534769Y-77842188D02*
G01*
X138692812Y-77873624D01*
X138856784Y-77941544D01*
X139004354Y-78040147D01*
X139129853Y-78165646D01*
X139228456Y-78313216D01*
X139296376Y-78477188D01*
X139331000Y-78651259D01*
X139331000Y-78828741D01*
X139296376Y-79002812D01*
X139228456Y-79166784D01*
X139129853Y-79314354D01*
X139004354Y-79439853D01*
X138856784Y-79538456D01*
X138692812Y-79606376D01*
X138543512Y-79636073D01*
X138518742Y-79641000D01*
X138341258Y-79641000D01*
X138316488Y-79636073D01*
X138167188Y-79606376D01*
X138003216Y-79538456D01*
X137855646Y-79439853D01*
X137730147Y-79314354D01*
X137631544Y-79166784D01*
X137563624Y-79002812D01*
X137529000Y-78828741D01*
X137529000Y-78651259D01*
X137563624Y-78477188D01*
X137631544Y-78313216D01*
X137730147Y-78165646D01*
X137855646Y-78040147D01*
X138003216Y-77941544D01*
X138167188Y-77873624D01*
X138325231Y-77842188D01*
X138341258Y-77839000D01*
X138518742Y-77839000D01*
X138534769Y-77842188D01*
G37*
G36*
X116318512Y-77208927D02*
G01*
X116467812Y-77238624D01*
X116631784Y-77306544D01*
X116779354Y-77405147D01*
X116904853Y-77530646D01*
X117003456Y-77678216D01*
X117071376Y-77842188D01*
X117106000Y-78016259D01*
X117106000Y-78193741D01*
X117071376Y-78367812D01*
X117003456Y-78531784D01*
X116904853Y-78679354D01*
X116779354Y-78804853D01*
X116631784Y-78903456D01*
X116467812Y-78971376D01*
X116318512Y-79001073D01*
X116293742Y-79006000D01*
X116116258Y-79006000D01*
X116091488Y-79001073D01*
X115942188Y-78971376D01*
X115778216Y-78903456D01*
X115630646Y-78804853D01*
X115505147Y-78679354D01*
X115406544Y-78531784D01*
X115338624Y-78367812D01*
X115304000Y-78193741D01*
X115304000Y-78016259D01*
X115338624Y-77842188D01*
X115406544Y-77678216D01*
X115505147Y-77530646D01*
X115630646Y-77405147D01*
X115778216Y-77306544D01*
X115942188Y-77238624D01*
X116091488Y-77208927D01*
X116116258Y-77204000D01*
X116293742Y-77204000D01*
X116318512Y-77208927D01*
G37*
G36*
X113778512Y-77208927D02*
G01*
X113927812Y-77238624D01*
X114091784Y-77306544D01*
X114239354Y-77405147D01*
X114364853Y-77530646D01*
X114463456Y-77678216D01*
X114531376Y-77842188D01*
X114566000Y-78016259D01*
X114566000Y-78193741D01*
X114531376Y-78367812D01*
X114463456Y-78531784D01*
X114364853Y-78679354D01*
X114239354Y-78804853D01*
X114091784Y-78903456D01*
X113927812Y-78971376D01*
X113778512Y-79001073D01*
X113753742Y-79006000D01*
X113576258Y-79006000D01*
X113551488Y-79001073D01*
X113402188Y-78971376D01*
X113238216Y-78903456D01*
X113090646Y-78804853D01*
X112965147Y-78679354D01*
X112866544Y-78531784D01*
X112798624Y-78367812D01*
X112764000Y-78193741D01*
X112764000Y-78016259D01*
X112798624Y-77842188D01*
X112866544Y-77678216D01*
X112965147Y-77530646D01*
X113090646Y-77405147D01*
X113238216Y-77306544D01*
X113402188Y-77238624D01*
X113551488Y-77208927D01*
X113576258Y-77204000D01*
X113753742Y-77204000D01*
X113778512Y-77208927D01*
G37*
G36*
X129788228Y-76016703D02*
G01*
X129943100Y-76080853D01*
X130082481Y-76173985D01*
X130201015Y-76292519D01*
X130294147Y-76431900D01*
X130358297Y-76586772D01*
X130391000Y-76751184D01*
X130391000Y-76918816D01*
X130358297Y-77083228D01*
X130294147Y-77238100D01*
X130201015Y-77377481D01*
X130082481Y-77496015D01*
X129943100Y-77589147D01*
X129788228Y-77653297D01*
X129623816Y-77686000D01*
X129456184Y-77686000D01*
X129291772Y-77653297D01*
X129136900Y-77589147D01*
X128997519Y-77496015D01*
X128878985Y-77377481D01*
X128785853Y-77238100D01*
X128721703Y-77083228D01*
X128689000Y-76918816D01*
X128689000Y-76751184D01*
X128721703Y-76586772D01*
X128785853Y-76431900D01*
X128878985Y-76292519D01*
X128997519Y-76173985D01*
X129136900Y-76080853D01*
X129291772Y-76016703D01*
X129456184Y-75984000D01*
X129623816Y-75984000D01*
X129788228Y-76016703D01*
G37*
G36*
X122168228Y-76016703D02*
G01*
X122323100Y-76080853D01*
X122462481Y-76173985D01*
X122581015Y-76292519D01*
X122674147Y-76431900D01*
X122738297Y-76586772D01*
X122771000Y-76751184D01*
X122771000Y-76918816D01*
X122738297Y-77083228D01*
X122674147Y-77238100D01*
X122581015Y-77377481D01*
X122462481Y-77496015D01*
X122323100Y-77589147D01*
X122168228Y-77653297D01*
X122003816Y-77686000D01*
X121836184Y-77686000D01*
X121671772Y-77653297D01*
X121516900Y-77589147D01*
X121377519Y-77496015D01*
X121258985Y-77377481D01*
X121165853Y-77238100D01*
X121101703Y-77083228D01*
X121069000Y-76918816D01*
X121069000Y-76751184D01*
X121101703Y-76586772D01*
X121165853Y-76431900D01*
X121258985Y-76292519D01*
X121377519Y-76173985D01*
X121516900Y-76080853D01*
X121671772Y-76016703D01*
X121836184Y-75984000D01*
X122003816Y-75984000D01*
X122168228Y-76016703D01*
G37*
G36*
X157111000Y-77101000D02*
G01*
X155309000Y-77101000D01*
X155309000Y-75299000D01*
X157111000Y-75299000D01*
X157111000Y-77101000D01*
G37*
G36*
X139331000Y-77101000D02*
G01*
X137529000Y-77101000D01*
X137529000Y-75299000D01*
X139331000Y-75299000D01*
X139331000Y-77101000D01*
G37*
G36*
X116318512Y-74668927D02*
G01*
X116467812Y-74698624D01*
X116631784Y-74766544D01*
X116779354Y-74865147D01*
X116904853Y-74990646D01*
X117003456Y-75138216D01*
X117071376Y-75302188D01*
X117106000Y-75476259D01*
X117106000Y-75653741D01*
X117071376Y-75827812D01*
X117003456Y-75991784D01*
X116904853Y-76139354D01*
X116779354Y-76264853D01*
X116631784Y-76363456D01*
X116467812Y-76431376D01*
X116318512Y-76461073D01*
X116293742Y-76466000D01*
X116116258Y-76466000D01*
X116091488Y-76461073D01*
X115942188Y-76431376D01*
X115778216Y-76363456D01*
X115630646Y-76264853D01*
X115505147Y-76139354D01*
X115406544Y-75991784D01*
X115338624Y-75827812D01*
X115304000Y-75653741D01*
X115304000Y-75476259D01*
X115338624Y-75302188D01*
X115406544Y-75138216D01*
X115505147Y-74990646D01*
X115630646Y-74865147D01*
X115778216Y-74766544D01*
X115942188Y-74698624D01*
X116091488Y-74668927D01*
X116116258Y-74664000D01*
X116293742Y-74664000D01*
X116318512Y-74668927D01*
G37*
G36*
X113778512Y-74668927D02*
G01*
X113927812Y-74698624D01*
X114091784Y-74766544D01*
X114239354Y-74865147D01*
X114364853Y-74990646D01*
X114463456Y-75138216D01*
X114531376Y-75302188D01*
X114566000Y-75476259D01*
X114566000Y-75653741D01*
X114531376Y-75827812D01*
X114463456Y-75991784D01*
X114364853Y-76139354D01*
X114239354Y-76264853D01*
X114091784Y-76363456D01*
X113927812Y-76431376D01*
X113778512Y-76461073D01*
X113753742Y-76466000D01*
X113576258Y-76466000D01*
X113551488Y-76461073D01*
X113402188Y-76431376D01*
X113238216Y-76363456D01*
X113090646Y-76264853D01*
X112965147Y-76139354D01*
X112866544Y-75991784D01*
X112798624Y-75827812D01*
X112764000Y-75653741D01*
X112764000Y-75476259D01*
X112798624Y-75302188D01*
X112866544Y-75138216D01*
X112965147Y-74990646D01*
X113090646Y-74865147D01*
X113238216Y-74766544D01*
X113402188Y-74698624D01*
X113551488Y-74668927D01*
X113576258Y-74664000D01*
X113753742Y-74664000D01*
X113778512Y-74668927D01*
G37*
G36*
X129788228Y-73476703D02*
G01*
X129943100Y-73540853D01*
X130082481Y-73633985D01*
X130201015Y-73752519D01*
X130294147Y-73891900D01*
X130358297Y-74046772D01*
X130391000Y-74211184D01*
X130391000Y-74378816D01*
X130358297Y-74543228D01*
X130294147Y-74698100D01*
X130201015Y-74837481D01*
X130082481Y-74956015D01*
X129943100Y-75049147D01*
X129788228Y-75113297D01*
X129623816Y-75146000D01*
X129456184Y-75146000D01*
X129291772Y-75113297D01*
X129136900Y-75049147D01*
X128997519Y-74956015D01*
X128878985Y-74837481D01*
X128785853Y-74698100D01*
X128721703Y-74543228D01*
X128689000Y-74378816D01*
X128689000Y-74211184D01*
X128721703Y-74046772D01*
X128785853Y-73891900D01*
X128878985Y-73752519D01*
X128997519Y-73633985D01*
X129136900Y-73540853D01*
X129291772Y-73476703D01*
X129456184Y-73444000D01*
X129623816Y-73444000D01*
X129788228Y-73476703D01*
G37*
G36*
X122168228Y-73476703D02*
G01*
X122323100Y-73540853D01*
X122462481Y-73633985D01*
X122581015Y-73752519D01*
X122674147Y-73891900D01*
X122738297Y-74046772D01*
X122771000Y-74211184D01*
X122771000Y-74378816D01*
X122738297Y-74543228D01*
X122674147Y-74698100D01*
X122581015Y-74837481D01*
X122462481Y-74956015D01*
X122323100Y-75049147D01*
X122168228Y-75113297D01*
X122003816Y-75146000D01*
X121836184Y-75146000D01*
X121671772Y-75113297D01*
X121516900Y-75049147D01*
X121377519Y-74956015D01*
X121258985Y-74837481D01*
X121165853Y-74698100D01*
X121101703Y-74543228D01*
X121069000Y-74378816D01*
X121069000Y-74211184D01*
X121101703Y-74046772D01*
X121165853Y-73891900D01*
X121258985Y-73752519D01*
X121377519Y-73633985D01*
X121516900Y-73540853D01*
X121671772Y-73476703D01*
X121836184Y-73444000D01*
X122003816Y-73444000D01*
X122168228Y-73476703D01*
G37*
G36*
X149978642Y-73509781D02*
G01*
X150124414Y-73570162D01*
X150124416Y-73570163D01*
X150255608Y-73657822D01*
X150367178Y-73769392D01*
X150454837Y-73900584D01*
X150454838Y-73900586D01*
X150515219Y-74046358D01*
X150546000Y-74201107D01*
X150546000Y-74358893D01*
X150515219Y-74513642D01*
X150454838Y-74659414D01*
X150454837Y-74659416D01*
X150367178Y-74790608D01*
X150255608Y-74902178D01*
X150124416Y-74989837D01*
X150124415Y-74989838D01*
X150124414Y-74989838D01*
X149978642Y-75050219D01*
X149823893Y-75081000D01*
X149666107Y-75081000D01*
X149511358Y-75050219D01*
X149365586Y-74989838D01*
X149365585Y-74989838D01*
X149365584Y-74989837D01*
X149234392Y-74902178D01*
X149122822Y-74790608D01*
X149035163Y-74659416D01*
X149035162Y-74659414D01*
X148974781Y-74513642D01*
X148944000Y-74358893D01*
X148944000Y-74201107D01*
X148974781Y-74046358D01*
X149035162Y-73900586D01*
X149035163Y-73900584D01*
X149122822Y-73769392D01*
X149234392Y-73657822D01*
X149365584Y-73570163D01*
X149365586Y-73570162D01*
X149511358Y-73509781D01*
X149666107Y-73479000D01*
X149823893Y-73479000D01*
X149978642Y-73509781D01*
G37*
G36*
X145128642Y-73509781D02*
G01*
X145274414Y-73570162D01*
X145274416Y-73570163D01*
X145405608Y-73657822D01*
X145517178Y-73769392D01*
X145604837Y-73900584D01*
X145604838Y-73900586D01*
X145665219Y-74046358D01*
X145696000Y-74201107D01*
X145696000Y-74358893D01*
X145665219Y-74513642D01*
X145604838Y-74659414D01*
X145604837Y-74659416D01*
X145517178Y-74790608D01*
X145405608Y-74902178D01*
X145274416Y-74989837D01*
X145274415Y-74989838D01*
X145274414Y-74989838D01*
X145128642Y-75050219D01*
X144973893Y-75081000D01*
X144816107Y-75081000D01*
X144661358Y-75050219D01*
X144515586Y-74989838D01*
X144515585Y-74989838D01*
X144515584Y-74989837D01*
X144384392Y-74902178D01*
X144272822Y-74790608D01*
X144185163Y-74659416D01*
X144185162Y-74659414D01*
X144124781Y-74513642D01*
X144094000Y-74358893D01*
X144094000Y-74201107D01*
X144124781Y-74046358D01*
X144185162Y-73900586D01*
X144185163Y-73900584D01*
X144272822Y-73769392D01*
X144384392Y-73657822D01*
X144515584Y-73570163D01*
X144515586Y-73570162D01*
X144661358Y-73509781D01*
X144816107Y-73479000D01*
X144973893Y-73479000D01*
X145128642Y-73509781D01*
G37*
G36*
X138534769Y-72762188D02*
G01*
X138692812Y-72793624D01*
X138856784Y-72861544D01*
X139004354Y-72960147D01*
X139129853Y-73085646D01*
X139228456Y-73233216D01*
X139296376Y-73397188D01*
X139331000Y-73571259D01*
X139331000Y-73748741D01*
X139296376Y-73922812D01*
X139228456Y-74086784D01*
X139129853Y-74234354D01*
X139004354Y-74359853D01*
X138856784Y-74458456D01*
X138692812Y-74526376D01*
X138543512Y-74556073D01*
X138518742Y-74561000D01*
X138341258Y-74561000D01*
X138316488Y-74556073D01*
X138167188Y-74526376D01*
X138003216Y-74458456D01*
X137855646Y-74359853D01*
X137730147Y-74234354D01*
X137631544Y-74086784D01*
X137563624Y-73922812D01*
X137529000Y-73748741D01*
X137529000Y-73571259D01*
X137563624Y-73397188D01*
X137631544Y-73233216D01*
X137730147Y-73085646D01*
X137855646Y-72960147D01*
X138003216Y-72861544D01*
X138167188Y-72793624D01*
X138325231Y-72762188D01*
X138341258Y-72759000D01*
X138518742Y-72759000D01*
X138534769Y-72762188D01*
G37*
G36*
X156314769Y-72762188D02*
G01*
X156472812Y-72793624D01*
X156636784Y-72861544D01*
X156784354Y-72960147D01*
X156909853Y-73085646D01*
X157008456Y-73233216D01*
X157076376Y-73397188D01*
X157111000Y-73571259D01*
X157111000Y-73748741D01*
X157076376Y-73922812D01*
X157008456Y-74086784D01*
X156909853Y-74234354D01*
X156784354Y-74359853D01*
X156636784Y-74458456D01*
X156472812Y-74526376D01*
X156323512Y-74556073D01*
X156298742Y-74561000D01*
X156121258Y-74561000D01*
X156096488Y-74556073D01*
X155947188Y-74526376D01*
X155783216Y-74458456D01*
X155635646Y-74359853D01*
X155510147Y-74234354D01*
X155411544Y-74086784D01*
X155343624Y-73922812D01*
X155309000Y-73748741D01*
X155309000Y-73571259D01*
X155343624Y-73397188D01*
X155411544Y-73233216D01*
X155510147Y-73085646D01*
X155635646Y-72960147D01*
X155783216Y-72861544D01*
X155947188Y-72793624D01*
X156105231Y-72762188D01*
X156121258Y-72759000D01*
X156298742Y-72759000D01*
X156314769Y-72762188D01*
G37*
G36*
X116318512Y-72128927D02*
G01*
X116467812Y-72158624D01*
X116631784Y-72226544D01*
X116779354Y-72325147D01*
X116904853Y-72450646D01*
X117003456Y-72598216D01*
X117071376Y-72762188D01*
X117106000Y-72936259D01*
X117106000Y-73113741D01*
X117071376Y-73287812D01*
X117003456Y-73451784D01*
X116904853Y-73599354D01*
X116779354Y-73724853D01*
X116631784Y-73823456D01*
X116467812Y-73891376D01*
X116318512Y-73921073D01*
X116293742Y-73926000D01*
X116116258Y-73926000D01*
X116091488Y-73921073D01*
X115942188Y-73891376D01*
X115778216Y-73823456D01*
X115630646Y-73724853D01*
X115505147Y-73599354D01*
X115406544Y-73451784D01*
X115338624Y-73287812D01*
X115304000Y-73113741D01*
X115304000Y-72936259D01*
X115338624Y-72762188D01*
X115406544Y-72598216D01*
X115505147Y-72450646D01*
X115630646Y-72325147D01*
X115778216Y-72226544D01*
X115942188Y-72158624D01*
X116091488Y-72128927D01*
X116116258Y-72124000D01*
X116293742Y-72124000D01*
X116318512Y-72128927D01*
G37*
G36*
X113778512Y-72128927D02*
G01*
X113927812Y-72158624D01*
X114091784Y-72226544D01*
X114239354Y-72325147D01*
X114364853Y-72450646D01*
X114463456Y-72598216D01*
X114531376Y-72762188D01*
X114566000Y-72936259D01*
X114566000Y-73113741D01*
X114531376Y-73287812D01*
X114463456Y-73451784D01*
X114364853Y-73599354D01*
X114239354Y-73724853D01*
X114091784Y-73823456D01*
X113927812Y-73891376D01*
X113778512Y-73921073D01*
X113753742Y-73926000D01*
X113576258Y-73926000D01*
X113551488Y-73921073D01*
X113402188Y-73891376D01*
X113238216Y-73823456D01*
X113090646Y-73724853D01*
X112965147Y-73599354D01*
X112866544Y-73451784D01*
X112798624Y-73287812D01*
X112764000Y-73113741D01*
X112764000Y-72936259D01*
X112798624Y-72762188D01*
X112866544Y-72598216D01*
X112965147Y-72450646D01*
X113090646Y-72325147D01*
X113238216Y-72226544D01*
X113402188Y-72158624D01*
X113551488Y-72128927D01*
X113576258Y-72124000D01*
X113753742Y-72124000D01*
X113778512Y-72128927D01*
G37*
G36*
X122168228Y-70936703D02*
G01*
X122323100Y-71000853D01*
X122462481Y-71093985D01*
X122581015Y-71212519D01*
X122674147Y-71351900D01*
X122738297Y-71506772D01*
X122771000Y-71671184D01*
X122771000Y-71838816D01*
X122738297Y-72003228D01*
X122674147Y-72158100D01*
X122581015Y-72297481D01*
X122462481Y-72416015D01*
X122323100Y-72509147D01*
X122168228Y-72573297D01*
X122003816Y-72606000D01*
X121836184Y-72606000D01*
X121671772Y-72573297D01*
X121516900Y-72509147D01*
X121377519Y-72416015D01*
X121258985Y-72297481D01*
X121165853Y-72158100D01*
X121101703Y-72003228D01*
X121069000Y-71838816D01*
X121069000Y-71671184D01*
X121101703Y-71506772D01*
X121165853Y-71351900D01*
X121258985Y-71212519D01*
X121377519Y-71093985D01*
X121516900Y-71000853D01*
X121671772Y-70936703D01*
X121836184Y-70904000D01*
X122003816Y-70904000D01*
X122168228Y-70936703D01*
G37*
G36*
X129788228Y-70936703D02*
G01*
X129943100Y-71000853D01*
X130082481Y-71093985D01*
X130201015Y-71212519D01*
X130294147Y-71351900D01*
X130358297Y-71506772D01*
X130391000Y-71671184D01*
X130391000Y-71838816D01*
X130358297Y-72003228D01*
X130294147Y-72158100D01*
X130201015Y-72297481D01*
X130082481Y-72416015D01*
X129943100Y-72509147D01*
X129788228Y-72573297D01*
X129623816Y-72606000D01*
X129456184Y-72606000D01*
X129291772Y-72573297D01*
X129136900Y-72509147D01*
X128997519Y-72416015D01*
X128878985Y-72297481D01*
X128785853Y-72158100D01*
X128721703Y-72003228D01*
X128689000Y-71838816D01*
X128689000Y-71671184D01*
X128721703Y-71506772D01*
X128785853Y-71351900D01*
X128878985Y-71212519D01*
X128997519Y-71093985D01*
X129136900Y-71000853D01*
X129291772Y-70936703D01*
X129456184Y-70904000D01*
X129623816Y-70904000D01*
X129788228Y-70936703D01*
G37*
G36*
X150322395Y-70335546D02*
G01*
X150495466Y-70407234D01*
X150514793Y-70420148D01*
X150651227Y-70511310D01*
X150783690Y-70643773D01*
X150816728Y-70693218D01*
X150887766Y-70799534D01*
X150959454Y-70972605D01*
X150996000Y-71156333D01*
X150996000Y-71343667D01*
X150959454Y-71527395D01*
X150887766Y-71700466D01*
X150887765Y-71700467D01*
X150783690Y-71856227D01*
X150651227Y-71988690D01*
X150602871Y-72021000D01*
X150495466Y-72092766D01*
X150322395Y-72164454D01*
X150138667Y-72201000D01*
X149951333Y-72201000D01*
X149767605Y-72164454D01*
X149594534Y-72092766D01*
X149487129Y-72021000D01*
X149438773Y-71988690D01*
X149306310Y-71856227D01*
X149202235Y-71700467D01*
X149202234Y-71700466D01*
X149130546Y-71527395D01*
X149094000Y-71343667D01*
X149094000Y-71156333D01*
X149130546Y-70972605D01*
X149202234Y-70799534D01*
X149273272Y-70693218D01*
X149306310Y-70643773D01*
X149438773Y-70511310D01*
X149575207Y-70420148D01*
X149594534Y-70407234D01*
X149767605Y-70335546D01*
X149951333Y-70299000D01*
X150138667Y-70299000D01*
X150322395Y-70335546D01*
G37*
G36*
X144872395Y-70335546D02*
G01*
X145045466Y-70407234D01*
X145064793Y-70420148D01*
X145201227Y-70511310D01*
X145333690Y-70643773D01*
X145366728Y-70693218D01*
X145437766Y-70799534D01*
X145509454Y-70972605D01*
X145546000Y-71156333D01*
X145546000Y-71343667D01*
X145509454Y-71527395D01*
X145437766Y-71700466D01*
X145437765Y-71700467D01*
X145333690Y-71856227D01*
X145201227Y-71988690D01*
X145152871Y-72021000D01*
X145045466Y-72092766D01*
X144872395Y-72164454D01*
X144688667Y-72201000D01*
X144501333Y-72201000D01*
X144317605Y-72164454D01*
X144144534Y-72092766D01*
X144037129Y-72021000D01*
X143988773Y-71988690D01*
X143856310Y-71856227D01*
X143752235Y-71700467D01*
X143752234Y-71700466D01*
X143680546Y-71527395D01*
X143644000Y-71343667D01*
X143644000Y-71156333D01*
X143680546Y-70972605D01*
X143752234Y-70799534D01*
X143823272Y-70693218D01*
X143856310Y-70643773D01*
X143988773Y-70511310D01*
X144125207Y-70420148D01*
X144144534Y-70407234D01*
X144317605Y-70335546D01*
X144501333Y-70299000D01*
X144688667Y-70299000D01*
X144872395Y-70335546D01*
G37*
G36*
X156314769Y-70222188D02*
G01*
X156472812Y-70253624D01*
X156636784Y-70321544D01*
X156784354Y-70420147D01*
X156909853Y-70545646D01*
X157008456Y-70693216D01*
X157076376Y-70857188D01*
X157111000Y-71031259D01*
X157111000Y-71208741D01*
X157076376Y-71382812D01*
X157008456Y-71546784D01*
X156909853Y-71694354D01*
X156784354Y-71819853D01*
X156636784Y-71918456D01*
X156472812Y-71986376D01*
X156323512Y-72016073D01*
X156298742Y-72021000D01*
X156121258Y-72021000D01*
X156096488Y-72016073D01*
X155947188Y-71986376D01*
X155783216Y-71918456D01*
X155635646Y-71819853D01*
X155510147Y-71694354D01*
X155411544Y-71546784D01*
X155343624Y-71382812D01*
X155309000Y-71208741D01*
X155309000Y-71031259D01*
X155343624Y-70857188D01*
X155411544Y-70693216D01*
X155510147Y-70545646D01*
X155635646Y-70420147D01*
X155783216Y-70321544D01*
X155947188Y-70253624D01*
X156105231Y-70222188D01*
X156121258Y-70219000D01*
X156298742Y-70219000D01*
X156314769Y-70222188D01*
G37*
G36*
X138534769Y-70222188D02*
G01*
X138692812Y-70253624D01*
X138856784Y-70321544D01*
X139004354Y-70420147D01*
X139129853Y-70545646D01*
X139228456Y-70693216D01*
X139296376Y-70857188D01*
X139331000Y-71031259D01*
X139331000Y-71208741D01*
X139296376Y-71382812D01*
X139228456Y-71546784D01*
X139129853Y-71694354D01*
X139004354Y-71819853D01*
X138856784Y-71918456D01*
X138692812Y-71986376D01*
X138543512Y-72016073D01*
X138518742Y-72021000D01*
X138341258Y-72021000D01*
X138316488Y-72016073D01*
X138167188Y-71986376D01*
X138003216Y-71918456D01*
X137855646Y-71819853D01*
X137730147Y-71694354D01*
X137631544Y-71546784D01*
X137563624Y-71382812D01*
X137529000Y-71208741D01*
X137529000Y-71031259D01*
X137563624Y-70857188D01*
X137631544Y-70693216D01*
X137730147Y-70545646D01*
X137855646Y-70420147D01*
X138003216Y-70321544D01*
X138167188Y-70253624D01*
X138325231Y-70222188D01*
X138341258Y-70219000D01*
X138518742Y-70219000D01*
X138534769Y-70222188D01*
G37*
G36*
X116318512Y-69588927D02*
G01*
X116467812Y-69618624D01*
X116631784Y-69686544D01*
X116779354Y-69785147D01*
X116904853Y-69910646D01*
X117003456Y-70058216D01*
X117071376Y-70222188D01*
X117106000Y-70396259D01*
X117106000Y-70573741D01*
X117071376Y-70747812D01*
X117003456Y-70911784D01*
X116904853Y-71059354D01*
X116779354Y-71184853D01*
X116631784Y-71283456D01*
X116467812Y-71351376D01*
X116318512Y-71381073D01*
X116293742Y-71386000D01*
X116116258Y-71386000D01*
X116091488Y-71381073D01*
X115942188Y-71351376D01*
X115778216Y-71283456D01*
X115630646Y-71184853D01*
X115505147Y-71059354D01*
X115406544Y-70911784D01*
X115338624Y-70747812D01*
X115304000Y-70573741D01*
X115304000Y-70396259D01*
X115338624Y-70222188D01*
X115406544Y-70058216D01*
X115505147Y-69910646D01*
X115630646Y-69785147D01*
X115778216Y-69686544D01*
X115942188Y-69618624D01*
X116091488Y-69588927D01*
X116116258Y-69584000D01*
X116293742Y-69584000D01*
X116318512Y-69588927D01*
G37*
G36*
X113778512Y-69588927D02*
G01*
X113927812Y-69618624D01*
X114091784Y-69686544D01*
X114239354Y-69785147D01*
X114364853Y-69910646D01*
X114463456Y-70058216D01*
X114531376Y-70222188D01*
X114566000Y-70396259D01*
X114566000Y-70573741D01*
X114531376Y-70747812D01*
X114463456Y-70911784D01*
X114364853Y-71059354D01*
X114239354Y-71184853D01*
X114091784Y-71283456D01*
X113927812Y-71351376D01*
X113778512Y-71381073D01*
X113753742Y-71386000D01*
X113576258Y-71386000D01*
X113551488Y-71381073D01*
X113402188Y-71351376D01*
X113238216Y-71283456D01*
X113090646Y-71184853D01*
X112965147Y-71059354D01*
X112866544Y-70911784D01*
X112798624Y-70747812D01*
X112764000Y-70573741D01*
X112764000Y-70396259D01*
X112798624Y-70222188D01*
X112866544Y-70058216D01*
X112965147Y-69910646D01*
X113090646Y-69785147D01*
X113238216Y-69686544D01*
X113402188Y-69618624D01*
X113551488Y-69588927D01*
X113576258Y-69584000D01*
X113753742Y-69584000D01*
X113778512Y-69588927D01*
G37*
M02*
